%TF.GenerationSoftware,KiCad,Pcbnew,10.0.2*%
%TF.CreationDate,2026-07-08T16:31:04+05:30*%
%TF.ProjectId,esp_wroom_32,6573705f-7772-46f6-9f6d-5f33322e6b69,rev?*%
%TF.SameCoordinates,Original*%
%TF.FileFunction,Copper,L2,Bot*%
%TF.FilePolarity,Positive*%
%FSLAX46Y46*%
G04 Gerber Fmt 4.6, Leading zero omitted, Abs format (unit mm)*
G04 Created by KiCad (PCBNEW 10.0.2) date 2026-07-08 16:31:04*
%MOMM*%
%LPD*%
G01*
G04 APERTURE LIST*
%TA.AperFunction,ComponentPad*%
%ADD10O,2.100000X1.000000*%
%TD*%
%TA.AperFunction,ComponentPad*%
%ADD11O,1.600000X1.000000*%
%TD*%
%TA.AperFunction,ComponentPad*%
%ADD12R,1.700000X1.700000*%
%TD*%
%TA.AperFunction,ComponentPad*%
%ADD13C,1.700000*%
%TD*%
%TA.AperFunction,HeatsinkPad*%
%ADD14C,0.600000*%
%TD*%
%TA.AperFunction,ViaPad*%
%ADD15C,0.600000*%
%TD*%
%TA.AperFunction,ViaPad*%
%ADD16C,0.500000*%
%TD*%
%TA.AperFunction,Conductor*%
%ADD17C,0.500000*%
%TD*%
%TA.AperFunction,Conductor*%
%ADD18C,0.200000*%
%TD*%
%TA.AperFunction,Conductor*%
%ADD19C,0.300000*%
%TD*%
G04 APERTURE END LIST*
D10*
%TO.P,J1,SH,SHIELD_SH*%
%TO.N,GND*%
X45000000Y-49680000D03*
D11*
X40820000Y-49680000D03*
D10*
X45000000Y-58320000D03*
D11*
X40820000Y-58320000D03*
%TD*%
D12*
%TO.P,J3,1,Pin_1_1*%
%TO.N,+5V*%
X46000000Y-41000000D03*
D13*
%TO.P,J3,2,Pin_2_2*%
%TO.N,GND*%
X48540000Y-41000000D03*
%TO.P,J3,3,Pin_3_3*%
%TO.N,/D13*%
X51080000Y-41000000D03*
%TO.P,J3,4,Pin_4_4*%
%TO.N,/D12*%
X53620000Y-41000000D03*
%TO.P,J3,5,Pin_5_5*%
%TO.N,/D14*%
X56160000Y-41000000D03*
%TO.P,J3,6,Pin_6_6*%
%TO.N,/D27*%
X58700000Y-41000000D03*
%TO.P,J3,7,Pin_7_7*%
%TO.N,/D26*%
X61240000Y-41000000D03*
%TO.P,J3,8,Pin_8_8*%
%TO.N,/D25*%
X63780000Y-41000000D03*
%TO.P,J3,9,Pin_9_9*%
%TO.N,/D33*%
X66320000Y-41000000D03*
%TO.P,J3,10,Pin_10_10*%
%TO.N,/D32*%
X68860000Y-41000000D03*
%TO.P,J3,11,Pin_11_11*%
%TO.N,/D35*%
X71400000Y-41000000D03*
%TO.P,J3,12,Pin_12_12*%
%TO.N,/D34*%
X73940000Y-41000000D03*
%TO.P,J3,13,Pin_13_13*%
%TO.N,/VN*%
X76480000Y-41000000D03*
%TO.P,J3,14,Pin_14_14*%
%TO.N,/VP*%
X79020000Y-41000000D03*
%TO.P,J3,15,Pin_15_15*%
%TO.N,/EN*%
X81560000Y-41000000D03*
%TD*%
D14*
%TO.P,U1,39,GND_39*%
%TO.N,GND*%
X75422500Y-50965000D03*
X73897500Y-50965000D03*
X76185000Y-51727500D03*
X74660000Y-51727500D03*
X73135000Y-51727500D03*
X75422500Y-52490000D03*
X73897500Y-52490000D03*
X76185000Y-53252500D03*
X74660000Y-53252500D03*
X73135000Y-53252500D03*
X75422500Y-54015000D03*
X73897500Y-54015000D03*
%TD*%
D12*
%TO.P,J2,1,Pin_1_1*%
%TO.N,+3V3*%
X46000000Y-66000000D03*
D13*
%TO.P,J2,2,Pin_2_2*%
%TO.N,GND*%
X48540000Y-66000000D03*
%TO.P,J2,3,Pin_3_3*%
%TO.N,/D15*%
X51080000Y-66000000D03*
%TO.P,J2,4,Pin_4_4*%
%TO.N,/D2*%
X53620000Y-66000000D03*
%TO.P,J2,5,Pin_5_5*%
%TO.N,/D4*%
X56160000Y-66000000D03*
%TO.P,J2,6,Pin_6_6*%
%TO.N,/RXD2*%
X58700000Y-66000000D03*
%TO.P,J2,7,Pin_7_7*%
%TO.N,/TXD2*%
X61240000Y-66000000D03*
%TO.P,J2,8,Pin_8_8*%
%TO.N,/D5*%
X63780000Y-66000000D03*
%TO.P,J2,9,Pin_9_9*%
%TO.N,/D18*%
X66320000Y-66000000D03*
%TO.P,J2,10,Pin_10_10*%
%TO.N,/D19*%
X68860000Y-66000000D03*
%TO.P,J2,11,Pin_11_11*%
%TO.N,/D21*%
X71400000Y-66000000D03*
%TO.P,J2,12,Pin_12_12*%
%TO.N,/RXD*%
X73940000Y-66000000D03*
%TO.P,J2,13,Pin_13_13*%
%TO.N,/TXD*%
X76480000Y-66000000D03*
%TO.P,J2,14,Pin_14_14*%
%TO.N,/D22*%
X79020000Y-66000000D03*
%TO.P,J2,15,Pin_15_15*%
%TO.N,/D23*%
X81560000Y-66000000D03*
%TD*%
D15*
%TO.N,+3V3*%
X50000000Y-57000000D03*
X49000000Y-63000000D03*
D16*
X80500000Y-46000000D03*
D15*
X50500000Y-45000000D03*
D16*
X59750000Y-44750000D03*
D15*
X46000000Y-44000000D03*
%TO.N,GND*%
X55000000Y-47460000D03*
X60000000Y-51500000D03*
X48500000Y-50500000D03*
X60000000Y-48500000D03*
X57000000Y-53000000D03*
D16*
%TO.N,/EN*%
X61000000Y-56937500D03*
X44500000Y-47500000D03*
X68000000Y-54500000D03*
%TO.N,Net-(Q2-B)*%
X63000000Y-58000000D03*
X60000000Y-59700000D03*
%TO.N,/DTR*%
X60000000Y-58100000D03*
X62000000Y-60000000D03*
%TO.N,/D+*%
X55500000Y-58500000D03*
X44000000Y-55000000D03*
%TO.N,/D-*%
X54000000Y-58500000D03*
X44000000Y-54000000D03*
%TO.N,+5V*%
X59675000Y-47675000D03*
X48000000Y-45500000D03*
X57250000Y-49750000D03*
%TO.N,/D13*%
X65500000Y-49000000D03*
%TO.N,/D12*%
X62500000Y-44000000D03*
%TO.N,/D15*%
X66000000Y-57500000D03*
%TO.N,/D2*%
X58500000Y-52000000D03*
X64500000Y-60000000D03*
D15*
%TO.N,/D4*%
X67500000Y-60500000D03*
X57500000Y-63500000D03*
D16*
%TO.N,/RXD*%
X55000000Y-63500000D03*
%TO.N,/TXD*%
X55837133Y-63337132D03*
%TO.N,Net-(Q1-B)*%
X59170000Y-61000000D03*
X62000000Y-58000000D03*
%TD*%
%TO.N,+3V3*%
D17*
X80000000Y-46500000D02*
X61500000Y-46500000D01*
X55313972Y-57537500D02*
X54776472Y-57000000D01*
X49500000Y-44000000D02*
X50500000Y-45000000D01*
X54776472Y-57000000D02*
X50000000Y-57000000D01*
X58000000Y-58000000D02*
X57537500Y-57537500D01*
X58000000Y-60000000D02*
X58000000Y-58000000D01*
X49000000Y-63000000D02*
X52500000Y-63000000D01*
X57537500Y-57537500D02*
X55313972Y-57537500D01*
X54500000Y-61000000D02*
X57000000Y-61000000D01*
X46000000Y-44000000D02*
X49500000Y-44000000D01*
X80500000Y-46000000D02*
X80000000Y-46500000D01*
X57000000Y-61000000D02*
X58000000Y-60000000D01*
X52500000Y-63000000D02*
X54500000Y-61000000D01*
X61500000Y-46500000D02*
X59750000Y-44750000D01*
%TO.N,GND*%
D18*
X48540000Y-41000000D02*
X55000000Y-47460000D01*
X55000000Y-47460000D02*
X55000000Y-47500000D01*
X48500000Y-50500000D02*
X51500000Y-53500000D01*
X47680000Y-49680000D02*
X45000000Y-49680000D01*
X51500000Y-53500000D02*
X52000000Y-53500000D01*
X48500000Y-50500000D02*
X47680000Y-49680000D01*
%TO.N,/EN*%
D19*
X61000000Y-56937500D02*
X60937500Y-57000000D01*
X47582653Y-46000000D02*
X53000000Y-51417347D01*
X55562500Y-56937500D02*
X61000000Y-56937500D01*
X68000000Y-54500000D02*
X67000000Y-55500000D01*
X62437500Y-55500000D02*
X61000000Y-56937500D01*
X44500000Y-47500000D02*
X46000000Y-46000000D01*
X53000000Y-54375000D02*
X55562500Y-56937500D01*
X46000000Y-46000000D02*
X47582653Y-46000000D01*
X53000000Y-51417347D02*
X53000000Y-54375000D01*
X67000000Y-55500000D02*
X62437500Y-55500000D01*
%TO.N,Net-(Q2-B)*%
X60000000Y-59700000D02*
X60000000Y-60000000D01*
X62000000Y-61000000D02*
X63000000Y-60000000D01*
X61000000Y-61000000D02*
X62000000Y-61000000D01*
X60000000Y-60000000D02*
X61000000Y-61000000D01*
X63000000Y-58000000D02*
X63000000Y-60000000D01*
%TO.N,/DTR*%
X60000000Y-58100000D02*
X60100000Y-58100000D01*
X60100000Y-58100000D02*
X62000000Y-60000000D01*
%TO.N,/D+*%
D18*
X55500000Y-58500000D02*
X55050000Y-58950000D01*
X44363603Y-55000000D02*
X44000000Y-55000000D01*
X53751471Y-59100000D02*
X53601471Y-58950000D01*
X55050000Y-58950000D02*
X54398529Y-58950000D01*
X54398529Y-58950000D02*
X54248529Y-59100000D01*
X54248529Y-59100000D02*
X53751471Y-59100000D01*
X53601471Y-58950000D02*
X48313603Y-58950000D01*
X48313603Y-58950000D02*
X44363603Y-55000000D01*
%TO.N,/D-*%
X54000000Y-58500000D02*
X48500000Y-58500000D01*
X48500000Y-58500000D02*
X44000000Y-54000000D01*
%TO.N,+5V*%
D17*
X45400000Y-45400000D02*
X43500000Y-43500000D01*
X43500000Y-43500000D02*
X43500000Y-42500000D01*
X57000000Y-49500000D02*
X57250000Y-49750000D01*
X45000000Y-41000000D02*
X46000000Y-41000000D01*
X47831181Y-45400000D02*
X45400000Y-45400000D01*
X57500000Y-49000000D02*
X58825000Y-47675000D01*
X43500000Y-42500000D02*
X45000000Y-41000000D01*
X49500000Y-45500000D02*
X53500000Y-49500000D01*
X46000000Y-41500000D02*
X46000000Y-41000000D01*
X47931181Y-45500000D02*
X47831181Y-45400000D01*
X53500000Y-49500000D02*
X57000000Y-49500000D01*
X58825000Y-47675000D02*
X59675000Y-47675000D01*
X48000000Y-45500000D02*
X49500000Y-45500000D01*
X57500000Y-49500000D02*
X57500000Y-49000000D01*
X57250000Y-49750000D02*
X57500000Y-49500000D01*
X48000000Y-45500000D02*
X47931181Y-45500000D01*
%TO.N,/D13*%
D19*
X65500000Y-49000000D02*
X63600000Y-47100000D01*
X57080000Y-47000000D02*
X51080000Y-41000000D01*
X61251472Y-47100000D02*
X61151472Y-47000000D01*
X63600000Y-47100000D02*
X61251472Y-47100000D01*
X61151472Y-47000000D02*
X57080000Y-47000000D01*
%TO.N,/D12*%
X53620000Y-41000000D02*
X56620000Y-44000000D01*
X56620000Y-44000000D02*
X62500000Y-44000000D01*
%TO.N,/D15*%
X62000000Y-62000000D02*
X54540000Y-62000000D01*
X66000000Y-57500000D02*
X63500000Y-60000000D01*
X54540000Y-62000000D02*
X51080000Y-65460000D01*
X51080000Y-65460000D02*
X51080000Y-66000000D01*
X51500000Y-66000000D02*
X51080000Y-66000000D01*
X63500000Y-60000000D02*
X63500000Y-60500000D01*
X63500000Y-60500000D02*
X62000000Y-62000000D01*
%TO.N,/D2*%
X60000000Y-50500000D02*
X67000000Y-50500000D01*
X69000000Y-52500000D02*
X69000000Y-55500000D01*
X64500000Y-60000000D02*
X64500000Y-60500000D01*
X67000000Y-50500000D02*
X69000000Y-52500000D01*
X64500000Y-60500000D02*
X62500000Y-62500000D01*
X53620000Y-66000000D02*
X53620000Y-63880000D01*
X58500000Y-52000000D02*
X60000000Y-50500000D01*
X62500000Y-62500000D02*
X55000000Y-62500000D01*
X69000000Y-55500000D02*
X64500000Y-60000000D01*
X53620000Y-63880000D02*
X55000000Y-62500000D01*
%TO.N,/D4*%
X57500000Y-63500000D02*
X66000000Y-63500000D01*
X67500000Y-62000000D02*
X67500000Y-60500000D01*
X66000000Y-63500000D02*
X67500000Y-62000000D01*
%TO.N,/RXD*%
X56300000Y-64800000D02*
X72740000Y-64800000D01*
X55000000Y-63500000D02*
X56300000Y-64800000D01*
X72740000Y-64800000D02*
X73940000Y-66000000D01*
%TO.N,/TXD*%
X55837133Y-63337132D02*
X56650001Y-64150000D01*
X56650001Y-64150000D02*
X74630000Y-64150000D01*
X74630000Y-64150000D02*
X76480000Y-66000000D01*
%TO.N,Net-(Q1-B)*%
X59500000Y-57500000D02*
X59170000Y-57830000D01*
X60500000Y-57500000D02*
X59500000Y-57500000D01*
X61000000Y-58000000D02*
X60500000Y-57500000D01*
X59170000Y-57830000D02*
X59170000Y-61000000D01*
X62000000Y-58000000D02*
X61000000Y-58000000D01*
%TD*%
%TA.AperFunction,Conductor*%
%TO.N,GND*%
G36*
X44876936Y-39520185D02*
G01*
X44922691Y-39572989D01*
X44932635Y-39642147D01*
X44903610Y-39705703D01*
X44884208Y-39723766D01*
X44792455Y-39792452D01*
X44792452Y-39792455D01*
X44706206Y-39907664D01*
X44706202Y-39907671D01*
X44655908Y-40042517D01*
X44649501Y-40102116D01*
X44649501Y-40102123D01*
X44649500Y-40102135D01*
X44649500Y-40265298D01*
X44629815Y-40332337D01*
X44594391Y-40368400D01*
X44521584Y-40417048D01*
X44521580Y-40417051D01*
X42917048Y-42021583D01*
X42896478Y-42052369D01*
X42876045Y-42082951D01*
X42834919Y-42144499D01*
X42834912Y-42144511D01*
X42778343Y-42281082D01*
X42778340Y-42281092D01*
X42749500Y-42426079D01*
X42749500Y-42426082D01*
X42749500Y-43573918D01*
X42749500Y-43573920D01*
X42749499Y-43573920D01*
X42778340Y-43718907D01*
X42778343Y-43718917D01*
X42834914Y-43855492D01*
X42867812Y-43904727D01*
X42867813Y-43904730D01*
X42917046Y-43978414D01*
X42917052Y-43978421D01*
X44921661Y-45983029D01*
X44955146Y-46044352D01*
X44950162Y-46114044D01*
X44921661Y-46158391D01*
X44332654Y-46747398D01*
X44286357Y-46775149D01*
X44286714Y-46776011D01*
X44144507Y-46834914D01*
X44144498Y-46834919D01*
X44021584Y-46917048D01*
X44021580Y-46917051D01*
X43917051Y-47021580D01*
X43917048Y-47021584D01*
X43834919Y-47144498D01*
X43834912Y-47144511D01*
X43778343Y-47281082D01*
X43778340Y-47281092D01*
X43749500Y-47426079D01*
X43749500Y-47426082D01*
X43749500Y-47573918D01*
X43749500Y-47573920D01*
X43749499Y-47573920D01*
X43778340Y-47718907D01*
X43778343Y-47718917D01*
X43834912Y-47855488D01*
X43834919Y-47855501D01*
X43917048Y-47978415D01*
X43917051Y-47978419D01*
X44021580Y-48082948D01*
X44021584Y-48082951D01*
X44144498Y-48165080D01*
X44144511Y-48165087D01*
X44281082Y-48221656D01*
X44281087Y-48221658D01*
X44281091Y-48221658D01*
X44281092Y-48221659D01*
X44426079Y-48250500D01*
X44426082Y-48250500D01*
X44573920Y-48250500D01*
X44671462Y-48231096D01*
X44718913Y-48221658D01*
X44855495Y-48165084D01*
X44978416Y-48082951D01*
X45082951Y-47978416D01*
X45165084Y-47855495D01*
X45221658Y-47718913D01*
X45221658Y-47718912D01*
X45223989Y-47713285D01*
X45224852Y-47713642D01*
X45252600Y-47667344D01*
X46233127Y-46686819D01*
X46294450Y-46653334D01*
X46320808Y-46650500D01*
X47261845Y-46650500D01*
X47328884Y-46670185D01*
X47349526Y-46686819D01*
X52313181Y-51650474D01*
X52346666Y-51711797D01*
X52349500Y-51738155D01*
X52349500Y-54439069D01*
X52365914Y-54521584D01*
X52374499Y-54564744D01*
X52423535Y-54683127D01*
X52488989Y-54781087D01*
X52494726Y-54789673D01*
X52494727Y-54789674D01*
X53742873Y-56037819D01*
X53776358Y-56099142D01*
X53771374Y-56168834D01*
X53729502Y-56224767D01*
X53664038Y-56249184D01*
X53655192Y-56249500D01*
X50304604Y-56249500D01*
X50257155Y-56240062D01*
X50233497Y-56230263D01*
X50233493Y-56230262D01*
X50233488Y-56230260D01*
X50078845Y-56199500D01*
X50078842Y-56199500D01*
X49921158Y-56199500D01*
X49921155Y-56199500D01*
X49766510Y-56230261D01*
X49766498Y-56230264D01*
X49620827Y-56290602D01*
X49620814Y-56290609D01*
X49489711Y-56378210D01*
X49489707Y-56378213D01*
X49378213Y-56489707D01*
X49378210Y-56489711D01*
X49290609Y-56620814D01*
X49290602Y-56620827D01*
X49230264Y-56766498D01*
X49230261Y-56766510D01*
X49199500Y-56921153D01*
X49199500Y-57078846D01*
X49230261Y-57233489D01*
X49230264Y-57233501D01*
X49290602Y-57379172D01*
X49290609Y-57379185D01*
X49378210Y-57510288D01*
X49378213Y-57510292D01*
X49489707Y-57621786D01*
X49489711Y-57621789D01*
X49565452Y-57672398D01*
X49610257Y-57726010D01*
X49618964Y-57795335D01*
X49588810Y-57858363D01*
X49529366Y-57895082D01*
X49496561Y-57899500D01*
X48800097Y-57899500D01*
X48733058Y-57879815D01*
X48712416Y-57863181D01*
X44770934Y-53921699D01*
X44737449Y-53860376D01*
X44737025Y-53858346D01*
X44721658Y-53781087D01*
X44719070Y-53774839D01*
X44665087Y-53644511D01*
X44665080Y-53644498D01*
X44582951Y-53521584D01*
X44582948Y-53521580D01*
X44478419Y-53417051D01*
X44478415Y-53417048D01*
X44355501Y-53334919D01*
X44355488Y-53334912D01*
X44218917Y-53278343D01*
X44218907Y-53278340D01*
X44073920Y-53249500D01*
X44073918Y-53249500D01*
X43926082Y-53249500D01*
X43926080Y-53249500D01*
X43781092Y-53278340D01*
X43781082Y-53278343D01*
X43644511Y-53334912D01*
X43644498Y-53334919D01*
X43521584Y-53417048D01*
X43521580Y-53417051D01*
X43417051Y-53521580D01*
X43417048Y-53521584D01*
X43334919Y-53644498D01*
X43334912Y-53644511D01*
X43278343Y-53781082D01*
X43278340Y-53781092D01*
X43249500Y-53926079D01*
X43249500Y-53926082D01*
X43249500Y-54073918D01*
X43249500Y-54073920D01*
X43249499Y-54073920D01*
X43278340Y-54218907D01*
X43278343Y-54218917D01*
X43334912Y-54355488D01*
X43334919Y-54355501D01*
X43385439Y-54431109D01*
X43406317Y-54497787D01*
X43387832Y-54565167D01*
X43385439Y-54568891D01*
X43334919Y-54644498D01*
X43334912Y-54644511D01*
X43278343Y-54781082D01*
X43278340Y-54781092D01*
X43249500Y-54926079D01*
X43249500Y-54926082D01*
X43249500Y-55073918D01*
X43249500Y-55073920D01*
X43249499Y-55073920D01*
X43278340Y-55218907D01*
X43278343Y-55218917D01*
X43334912Y-55355488D01*
X43334919Y-55355501D01*
X43417048Y-55478415D01*
X43417051Y-55478419D01*
X43521580Y-55582948D01*
X43521584Y-55582951D01*
X43644498Y-55665080D01*
X43644511Y-55665087D01*
X43781082Y-55721656D01*
X43781087Y-55721658D01*
X43781091Y-55721658D01*
X43781092Y-55721659D01*
X43926079Y-55750500D01*
X43926082Y-55750500D01*
X44073919Y-55750500D01*
X44091535Y-55746995D01*
X44168182Y-55731749D01*
X44237771Y-55737975D01*
X44280053Y-55765685D01*
X44617187Y-56102819D01*
X44650672Y-56164142D01*
X44645688Y-56233834D01*
X44603816Y-56289767D01*
X44538352Y-56314184D01*
X44529506Y-56314500D01*
X44394234Y-56314500D01*
X44247863Y-56353719D01*
X44116635Y-56429485D01*
X44116632Y-56429487D01*
X44009487Y-56536632D01*
X44009485Y-56536635D01*
X43933719Y-56667863D01*
X43894500Y-56814234D01*
X43894500Y-56965765D01*
X43933719Y-57112136D01*
X43944418Y-57130666D01*
X44009485Y-57243365D01*
X44116635Y-57350515D01*
X44247865Y-57426281D01*
X44394234Y-57465500D01*
X44394236Y-57465500D01*
X44545764Y-57465500D01*
X44545766Y-57465500D01*
X44692135Y-57426281D01*
X44823365Y-57350515D01*
X44930515Y-57243365D01*
X45006281Y-57112135D01*
X45045500Y-56965766D01*
X45045500Y-56830494D01*
X45065185Y-56763455D01*
X45117989Y-56717700D01*
X45187147Y-56707756D01*
X45250703Y-56736781D01*
X45257176Y-56742809D01*
X47944887Y-59430520D01*
X47944889Y-59430521D01*
X47944893Y-59430524D01*
X48081812Y-59509573D01*
X48081815Y-59509575D01*
X48081819Y-59509577D01*
X48234546Y-59550501D01*
X48234548Y-59550501D01*
X48400257Y-59550501D01*
X48400273Y-59550500D01*
X53301540Y-59550500D01*
X53317655Y-59554958D01*
X53332723Y-59554485D01*
X53354638Y-59565189D01*
X53365272Y-59568131D01*
X53377980Y-59575745D01*
X53382755Y-59580520D01*
X53469566Y-59630639D01*
X53470475Y-59631164D01*
X53470492Y-59631174D01*
X53498404Y-59647289D01*
X53519686Y-59659577D01*
X53672414Y-59700501D01*
X53672417Y-59700501D01*
X53838124Y-59700501D01*
X53838140Y-59700500D01*
X54161860Y-59700500D01*
X54161876Y-59700501D01*
X54169472Y-59700501D01*
X54327583Y-59700501D01*
X54327586Y-59700501D01*
X54480314Y-59659577D01*
X54530433Y-59630639D01*
X54617245Y-59580520D01*
X54622015Y-59575749D01*
X54634731Y-59568131D01*
X54661931Y-59561063D01*
X54688152Y-59550929D01*
X54698461Y-59550500D01*
X54963331Y-59550500D01*
X54963347Y-59550501D01*
X54970943Y-59550501D01*
X55129054Y-59550501D01*
X55129057Y-59550501D01*
X55281785Y-59509577D01*
X55352558Y-59468716D01*
X55418716Y-59430520D01*
X55530520Y-59318716D01*
X55530520Y-59318714D01*
X55540723Y-59308512D01*
X55540727Y-59308506D01*
X55578301Y-59270932D01*
X55639622Y-59237449D01*
X55641644Y-59237027D01*
X55718913Y-59221658D01*
X55855495Y-59165084D01*
X55978416Y-59082951D01*
X56082951Y-58978416D01*
X56165084Y-58855495D01*
X56221658Y-58718913D01*
X56237547Y-58639037D01*
X56250500Y-58573920D01*
X56250500Y-58426083D01*
X56250310Y-58424155D01*
X56250500Y-58423153D01*
X56250500Y-58419990D01*
X56251100Y-58419990D01*
X56263328Y-58355509D01*
X56311393Y-58304798D01*
X56373713Y-58288000D01*
X57125500Y-58288000D01*
X57192539Y-58307685D01*
X57238294Y-58360489D01*
X57249500Y-58412000D01*
X57249500Y-59637770D01*
X57229815Y-59704809D01*
X57213181Y-59725451D01*
X56725451Y-60213181D01*
X56664128Y-60246666D01*
X56637770Y-60249500D01*
X54426080Y-60249500D01*
X54281092Y-60278340D01*
X54281082Y-60278343D01*
X54144511Y-60334912D01*
X54144504Y-60334916D01*
X54114885Y-60354707D01*
X54085265Y-60374499D01*
X54085264Y-60374500D01*
X54021581Y-60417050D01*
X54021580Y-60417051D01*
X52225451Y-62213181D01*
X52164128Y-62246666D01*
X52137770Y-62249500D01*
X49304604Y-62249500D01*
X49257155Y-62240062D01*
X49233497Y-62230263D01*
X49233493Y-62230262D01*
X49233488Y-62230260D01*
X49078845Y-62199500D01*
X49078842Y-62199500D01*
X48921158Y-62199500D01*
X48921155Y-62199500D01*
X48766510Y-62230261D01*
X48766498Y-62230264D01*
X48620827Y-62290602D01*
X48620814Y-62290609D01*
X48489711Y-62378210D01*
X48489707Y-62378213D01*
X48378213Y-62489707D01*
X48378210Y-62489711D01*
X48290609Y-62620814D01*
X48290602Y-62620827D01*
X48230264Y-62766498D01*
X48230261Y-62766510D01*
X48199500Y-62921153D01*
X48199500Y-63078846D01*
X48230261Y-63233489D01*
X48230264Y-63233501D01*
X48290602Y-63379172D01*
X48290609Y-63379185D01*
X48378210Y-63510288D01*
X48378213Y-63510292D01*
X48489707Y-63621786D01*
X48489711Y-63621789D01*
X48620814Y-63709390D01*
X48620827Y-63709397D01*
X48720060Y-63750500D01*
X48766503Y-63769737D01*
X48921153Y-63800499D01*
X48921156Y-63800500D01*
X48921158Y-63800500D01*
X49078844Y-63800500D01*
X49078845Y-63800499D01*
X49155152Y-63785320D01*
X49233488Y-63769739D01*
X49233489Y-63769738D01*
X49233497Y-63769737D01*
X49257155Y-63759937D01*
X49304604Y-63750500D01*
X51570192Y-63750500D01*
X51637231Y-63770185D01*
X51682986Y-63822989D01*
X51692930Y-63892147D01*
X51663905Y-63955703D01*
X51657873Y-63962181D01*
X50998448Y-64621604D01*
X50937125Y-64655089D01*
X50930166Y-64656396D01*
X50763759Y-64682753D01*
X50561585Y-64748444D01*
X50372179Y-64844951D01*
X50200213Y-64969890D01*
X50049890Y-65120213D01*
X49924951Y-65292179D01*
X49828444Y-65481585D01*
X49762753Y-65683760D01*
X49729500Y-65893713D01*
X49729500Y-66106286D01*
X49758619Y-66290140D01*
X49762754Y-66316243D01*
X49806718Y-66451551D01*
X49828444Y-66518414D01*
X49924951Y-66707820D01*
X50049890Y-66879786D01*
X50200213Y-67030109D01*
X50372179Y-67155048D01*
X50372181Y-67155049D01*
X50372184Y-67155051D01*
X50561588Y-67251557D01*
X50580092Y-67257569D01*
X50637768Y-67297006D01*
X50664966Y-67361365D01*
X50653051Y-67430211D01*
X50605807Y-67481687D01*
X50541774Y-67499500D01*
X47190103Y-67499500D01*
X47123064Y-67479815D01*
X47077309Y-67427011D01*
X47067365Y-67357853D01*
X47096390Y-67294297D01*
X47115792Y-67276234D01*
X47175240Y-67231730D01*
X47207546Y-67207546D01*
X47293796Y-67092331D01*
X47344091Y-66957483D01*
X47350500Y-66897873D01*
X47350499Y-65102128D01*
X47344091Y-65042517D01*
X47306105Y-64940672D01*
X47293797Y-64907671D01*
X47293793Y-64907664D01*
X47207547Y-64792455D01*
X47207544Y-64792452D01*
X47092335Y-64706206D01*
X47092328Y-64706202D01*
X46957482Y-64655908D01*
X46957483Y-64655908D01*
X46897883Y-64649501D01*
X46897881Y-64649500D01*
X46897873Y-64649500D01*
X46897864Y-64649500D01*
X45102129Y-64649500D01*
X45102123Y-64649501D01*
X45042516Y-64655908D01*
X44907671Y-64706202D01*
X44907664Y-64706206D01*
X44792455Y-64792452D01*
X44792452Y-64792455D01*
X44706206Y-64907664D01*
X44706202Y-64907671D01*
X44655908Y-65042517D01*
X44649501Y-65102116D01*
X44649501Y-65102123D01*
X44649500Y-65102135D01*
X44649500Y-66897870D01*
X44649501Y-66897876D01*
X44655908Y-66957483D01*
X44706202Y-67092328D01*
X44706206Y-67092335D01*
X44792452Y-67207544D01*
X44792455Y-67207547D01*
X44884208Y-67276234D01*
X44926079Y-67332168D01*
X44931063Y-67401859D01*
X44897577Y-67463182D01*
X44836254Y-67496666D01*
X44809897Y-67499500D01*
X41622414Y-67499500D01*
X41555375Y-67479815D01*
X41509620Y-67427011D01*
X41499676Y-67357853D01*
X41524039Y-67300013D01*
X41666924Y-67113803D01*
X41791589Y-66897876D01*
X41798043Y-66886697D01*
X41898398Y-66644419D01*
X41966270Y-66391116D01*
X42000500Y-66131120D01*
X42000500Y-65868880D01*
X41966270Y-65608884D01*
X41898398Y-65355581D01*
X41889844Y-65334930D01*
X41798046Y-65113309D01*
X41798041Y-65113299D01*
X41666924Y-64886196D01*
X41528811Y-64706206D01*
X41507282Y-64678149D01*
X41507281Y-64678148D01*
X41507274Y-64678140D01*
X41321860Y-64492726D01*
X41321851Y-64492718D01*
X41113803Y-64333075D01*
X40886700Y-64201958D01*
X40886690Y-64201953D01*
X40644428Y-64101605D01*
X40644421Y-64101603D01*
X40644419Y-64101602D01*
X40391116Y-64033730D01*
X40333339Y-64026123D01*
X40131127Y-63999500D01*
X40131120Y-63999500D01*
X39868880Y-63999500D01*
X39868872Y-63999500D01*
X39637772Y-64029926D01*
X39608884Y-64033730D01*
X39548772Y-64049837D01*
X39355581Y-64101602D01*
X39355571Y-64101605D01*
X39113309Y-64201953D01*
X39113299Y-64201958D01*
X38886196Y-64333075D01*
X38699987Y-64475961D01*
X38634818Y-64501156D01*
X38566373Y-64487118D01*
X38516383Y-64438304D01*
X38500500Y-64377586D01*
X38500500Y-51034234D01*
X43894500Y-51034234D01*
X43894500Y-51185766D01*
X43911014Y-51247398D01*
X43933719Y-51332136D01*
X43935326Y-51334919D01*
X44009485Y-51463365D01*
X44116635Y-51570515D01*
X44247865Y-51646281D01*
X44394234Y-51685500D01*
X44394236Y-51685500D01*
X44545764Y-51685500D01*
X44545766Y-51685500D01*
X44692135Y-51646281D01*
X44823365Y-51570515D01*
X44930515Y-51463365D01*
X45006281Y-51332135D01*
X45045500Y-51185766D01*
X45045500Y-51034234D01*
X45006281Y-50887865D01*
X44930515Y-50756635D01*
X44823365Y-50649485D01*
X44757750Y-50611602D01*
X44692136Y-50573719D01*
X44618950Y-50554109D01*
X44545766Y-50534500D01*
X44394234Y-50534500D01*
X44247863Y-50573719D01*
X44116635Y-50649485D01*
X44116632Y-50649487D01*
X44009487Y-50756632D01*
X44009485Y-50756635D01*
X43933719Y-50887863D01*
X43902957Y-51002672D01*
X43894500Y-51034234D01*
X38500500Y-51034234D01*
X38500500Y-42622413D01*
X38520185Y-42555374D01*
X38572989Y-42509619D01*
X38642147Y-42499675D01*
X38699984Y-42524036D01*
X38805711Y-42605165D01*
X38886196Y-42666924D01*
X39113299Y-42798041D01*
X39113309Y-42798046D01*
X39268261Y-42862229D01*
X39355581Y-42898398D01*
X39608884Y-42966270D01*
X39868880Y-43000500D01*
X39868887Y-43000500D01*
X40131113Y-43000500D01*
X40131120Y-43000500D01*
X40391116Y-42966270D01*
X40644419Y-42898398D01*
X40886697Y-42798043D01*
X41113803Y-42666924D01*
X41321851Y-42507282D01*
X41321855Y-42507277D01*
X41321860Y-42507274D01*
X41507274Y-42321860D01*
X41507277Y-42321855D01*
X41507282Y-42321851D01*
X41666924Y-42113803D01*
X41798043Y-41886697D01*
X41898398Y-41644419D01*
X41966270Y-41391116D01*
X42000500Y-41131120D01*
X42000500Y-40868880D01*
X41966270Y-40608884D01*
X41898398Y-40355581D01*
X41888770Y-40332337D01*
X41798046Y-40113309D01*
X41798041Y-40113299D01*
X41666924Y-39886196D01*
X41524039Y-39699987D01*
X41498844Y-39634818D01*
X41512882Y-39566373D01*
X41561696Y-39516383D01*
X41622414Y-39500500D01*
X44809897Y-39500500D01*
X44876936Y-39520185D01*
G37*
%TD.AperFunction*%
%TA.AperFunction,Conductor*%
G36*
X82947445Y-41563720D02*
G01*
X82990897Y-41618435D01*
X83000000Y-41665069D01*
X83000000Y-65334930D01*
X82980315Y-65401969D01*
X82927511Y-65447724D01*
X82858353Y-65457668D01*
X82794797Y-65428643D01*
X82765515Y-65391225D01*
X82745397Y-65351742D01*
X82715051Y-65292184D01*
X82667966Y-65227376D01*
X82590109Y-65120213D01*
X82439786Y-64969890D01*
X82267820Y-64844951D01*
X82078414Y-64748444D01*
X82078413Y-64748443D01*
X82078412Y-64748443D01*
X81876243Y-64682754D01*
X81876241Y-64682753D01*
X81876240Y-64682753D01*
X81709826Y-64656396D01*
X81666287Y-64649500D01*
X81453713Y-64649500D01*
X81410174Y-64656396D01*
X81243760Y-64682753D01*
X81041585Y-64748444D01*
X80852179Y-64844951D01*
X80680213Y-64969890D01*
X80529890Y-65120213D01*
X80404949Y-65292182D01*
X80400484Y-65300946D01*
X80352509Y-65351742D01*
X80284688Y-65368536D01*
X80218553Y-65345998D01*
X80179516Y-65300946D01*
X80175050Y-65292182D01*
X80050109Y-65120213D01*
X79899786Y-64969890D01*
X79727820Y-64844951D01*
X79538414Y-64748444D01*
X79538413Y-64748443D01*
X79538412Y-64748443D01*
X79336243Y-64682754D01*
X79336241Y-64682753D01*
X79336240Y-64682753D01*
X79169826Y-64656396D01*
X79126287Y-64649500D01*
X78913713Y-64649500D01*
X78870174Y-64656396D01*
X78703760Y-64682753D01*
X78501585Y-64748444D01*
X78312179Y-64844951D01*
X78140213Y-64969890D01*
X77989890Y-65120213D01*
X77864949Y-65292182D01*
X77860484Y-65300946D01*
X77812509Y-65351742D01*
X77744688Y-65368536D01*
X77678553Y-65345998D01*
X77639516Y-65300946D01*
X77635050Y-65292182D01*
X77510109Y-65120213D01*
X77359786Y-64969890D01*
X77187820Y-64844951D01*
X76998414Y-64748444D01*
X76998413Y-64748443D01*
X76998412Y-64748443D01*
X76796243Y-64682754D01*
X76796241Y-64682753D01*
X76796240Y-64682753D01*
X76629826Y-64656396D01*
X76586287Y-64649500D01*
X76373713Y-64649500D01*
X76330174Y-64656396D01*
X76158945Y-64683516D01*
X76158686Y-64681882D01*
X76096094Y-64678730D01*
X76049288Y-64649342D01*
X75044674Y-63644727D01*
X75044673Y-63644726D01*
X75010345Y-63621789D01*
X74938127Y-63573535D01*
X74819744Y-63524499D01*
X74819738Y-63524497D01*
X74694071Y-63499500D01*
X74694069Y-63499500D01*
X67219808Y-63499500D01*
X67152769Y-63479815D01*
X67107014Y-63427011D01*
X67097070Y-63357853D01*
X67126095Y-63294297D01*
X67132127Y-63287819D01*
X68005271Y-62414675D01*
X68005276Y-62414670D01*
X68076465Y-62308127D01*
X68125501Y-62189744D01*
X68150500Y-62064069D01*
X68150500Y-61004935D01*
X68170185Y-60937896D01*
X68171366Y-60936090D01*
X68209394Y-60879179D01*
X68269737Y-60733497D01*
X68300500Y-60578842D01*
X68300500Y-60421158D01*
X68300500Y-60421155D01*
X68300499Y-60421153D01*
X68272092Y-60278342D01*
X68269737Y-60266503D01*
X68250025Y-60218913D01*
X68209397Y-60120827D01*
X68209390Y-60120814D01*
X68121789Y-59989711D01*
X68121786Y-59989707D01*
X68010292Y-59878213D01*
X68010288Y-59878210D01*
X67879185Y-59790609D01*
X67879172Y-59790602D01*
X67733501Y-59730264D01*
X67733489Y-59730261D01*
X67578845Y-59699500D01*
X67578842Y-59699500D01*
X67421158Y-59699500D01*
X67421155Y-59699500D01*
X67266510Y-59730261D01*
X67266498Y-59730264D01*
X67120827Y-59790602D01*
X67120814Y-59790609D01*
X66989711Y-59878210D01*
X66989707Y-59878213D01*
X66878213Y-59989707D01*
X66878210Y-59989711D01*
X66790609Y-60120814D01*
X66790602Y-60120827D01*
X66730264Y-60266498D01*
X66730261Y-60266510D01*
X66699500Y-60421153D01*
X66699500Y-60578846D01*
X66730261Y-60733489D01*
X66730264Y-60733501D01*
X66790602Y-60879172D01*
X66790606Y-60879179D01*
X66828602Y-60936044D01*
X66849480Y-61002721D01*
X66849500Y-61004935D01*
X66849500Y-61679192D01*
X66829815Y-61746231D01*
X66813181Y-61766873D01*
X65766873Y-62813181D01*
X65705550Y-62846666D01*
X65679192Y-62849500D01*
X63369808Y-62849500D01*
X63302769Y-62829815D01*
X63257014Y-62777011D01*
X63247070Y-62707853D01*
X63276095Y-62644297D01*
X63282127Y-62637819D01*
X65005273Y-60914672D01*
X65005272Y-60914672D01*
X65005276Y-60914669D01*
X65076465Y-60808127D01*
X65125501Y-60689744D01*
X65133307Y-60650500D01*
X65150500Y-60564069D01*
X65150500Y-60413840D01*
X65152126Y-60405664D01*
X65151210Y-60400586D01*
X65156640Y-60382968D01*
X65159939Y-60366388D01*
X65163418Y-60357987D01*
X65165084Y-60355495D01*
X65221658Y-60218913D01*
X65222243Y-60215968D01*
X65225722Y-60207571D01*
X65236529Y-60194159D01*
X65252600Y-60167344D01*
X69505277Y-55914669D01*
X69576465Y-55808127D01*
X69625501Y-55689744D01*
X69643253Y-55600500D01*
X69650500Y-55564069D01*
X69650500Y-52435931D01*
X69650500Y-52435928D01*
X69625502Y-52310261D01*
X69625501Y-52310260D01*
X69625501Y-52310256D01*
X69576465Y-52191873D01*
X69576464Y-52191872D01*
X69576461Y-52191866D01*
X69505277Y-52085332D01*
X69493863Y-52073918D01*
X69414669Y-51994724D01*
X68941525Y-51521580D01*
X67414674Y-49994727D01*
X67414673Y-49994726D01*
X67414669Y-49994723D01*
X67308127Y-49923535D01*
X67189744Y-49874499D01*
X67189738Y-49874497D01*
X67064071Y-49849500D01*
X67064069Y-49849500D01*
X65988271Y-49849500D01*
X65921232Y-49829815D01*
X65875477Y-49777011D01*
X65865533Y-49707853D01*
X65894558Y-49644297D01*
X65919380Y-49622398D01*
X65944515Y-49605602D01*
X65978416Y-49582951D01*
X66082951Y-49478416D01*
X66165084Y-49355495D01*
X66221658Y-49218913D01*
X66250500Y-49073918D01*
X66250500Y-48926082D01*
X66250500Y-48926079D01*
X66221659Y-48781092D01*
X66221658Y-48781091D01*
X66221658Y-48781087D01*
X66208542Y-48749421D01*
X66165087Y-48644511D01*
X66165080Y-48644498D01*
X66082951Y-48521584D01*
X66082948Y-48521580D01*
X65978419Y-48417051D01*
X65978415Y-48417048D01*
X65855501Y-48334919D01*
X65855488Y-48334912D01*
X65713286Y-48276011D01*
X65713643Y-48275149D01*
X65667344Y-48247398D01*
X64882127Y-47462181D01*
X64848642Y-47400858D01*
X64853626Y-47331166D01*
X64895498Y-47275233D01*
X64960962Y-47250816D01*
X64969808Y-47250500D01*
X80073920Y-47250500D01*
X80171462Y-47231096D01*
X80218913Y-47221658D01*
X80355495Y-47165084D01*
X80404729Y-47132186D01*
X80478416Y-47082952D01*
X81082952Y-46478416D01*
X81152386Y-46374499D01*
X81165084Y-46355495D01*
X81221658Y-46218913D01*
X81250500Y-46073918D01*
X81250500Y-45926082D01*
X81250500Y-45926079D01*
X81221659Y-45781092D01*
X81221658Y-45781091D01*
X81221658Y-45781087D01*
X81208574Y-45749500D01*
X81165087Y-45644511D01*
X81165079Y-45644497D01*
X81147985Y-45618914D01*
X81147983Y-45618912D01*
X81082952Y-45521584D01*
X81082950Y-45521582D01*
X81082948Y-45521579D01*
X80978420Y-45417051D01*
X80855491Y-45334913D01*
X80718917Y-45278343D01*
X80718907Y-45278340D01*
X80573920Y-45249500D01*
X80573918Y-45249500D01*
X80426082Y-45249500D01*
X80426080Y-45249500D01*
X80281092Y-45278340D01*
X80281086Y-45278342D01*
X80144508Y-45334914D01*
X80144496Y-45334921D01*
X80095269Y-45367813D01*
X80021588Y-45417044D01*
X80021580Y-45417050D01*
X79725451Y-45713181D01*
X79664128Y-45746666D01*
X79637770Y-45749500D01*
X61862230Y-45749500D01*
X61795191Y-45729815D01*
X61774549Y-45713181D01*
X60923549Y-44862181D01*
X60890064Y-44800858D01*
X60895048Y-44731166D01*
X60936920Y-44675233D01*
X61002384Y-44650816D01*
X61011230Y-44650500D01*
X62086160Y-44650500D01*
X62138520Y-44663614D01*
X62138878Y-44662753D01*
X62144504Y-44665083D01*
X62144505Y-44665084D01*
X62281087Y-44721658D01*
X62281091Y-44721658D01*
X62281092Y-44721659D01*
X62426079Y-44750500D01*
X62426082Y-44750500D01*
X62573920Y-44750500D01*
X62671462Y-44731096D01*
X62718913Y-44721658D01*
X62855495Y-44665084D01*
X62978416Y-44582951D01*
X63082951Y-44478416D01*
X63165084Y-44355495D01*
X63221658Y-44218913D01*
X63250500Y-44073918D01*
X63250500Y-43926082D01*
X63250500Y-43926079D01*
X63221659Y-43781092D01*
X63221658Y-43781091D01*
X63221658Y-43781087D01*
X63215615Y-43766498D01*
X63165087Y-43644511D01*
X63165080Y-43644498D01*
X63082951Y-43521584D01*
X63082948Y-43521580D01*
X62978419Y-43417051D01*
X62978415Y-43417048D01*
X62855501Y-43334919D01*
X62855488Y-43334912D01*
X62718917Y-43278343D01*
X62718907Y-43278340D01*
X62573920Y-43249500D01*
X62573918Y-43249500D01*
X62426082Y-43249500D01*
X62426080Y-43249500D01*
X62281092Y-43278340D01*
X62281086Y-43278342D01*
X62196978Y-43313181D01*
X62144513Y-43334913D01*
X62138878Y-43337247D01*
X62138520Y-43336385D01*
X62086160Y-43349500D01*
X56940808Y-43349500D01*
X56873769Y-43329815D01*
X56853127Y-43313181D01*
X56102127Y-42562181D01*
X56068642Y-42500858D01*
X56073626Y-42431166D01*
X56115498Y-42375233D01*
X56180962Y-42350816D01*
X56189808Y-42350500D01*
X56266286Y-42350500D01*
X56266287Y-42350500D01*
X56476243Y-42317246D01*
X56678412Y-42251557D01*
X56867816Y-42155051D01*
X56889789Y-42139086D01*
X57039786Y-42030109D01*
X57039788Y-42030106D01*
X57039792Y-42030104D01*
X57190104Y-41879792D01*
X57190106Y-41879788D01*
X57190109Y-41879786D01*
X57315048Y-41707820D01*
X57315047Y-41707820D01*
X57315051Y-41707816D01*
X57319514Y-41699054D01*
X57367488Y-41648259D01*
X57435308Y-41631463D01*
X57501444Y-41653999D01*
X57540486Y-41699056D01*
X57544951Y-41707820D01*
X57669890Y-41879786D01*
X57820213Y-42030109D01*
X57992179Y-42155048D01*
X57992181Y-42155049D01*
X57992184Y-42155051D01*
X58181588Y-42251557D01*
X58383757Y-42317246D01*
X58593713Y-42350500D01*
X58593714Y-42350500D01*
X58806286Y-42350500D01*
X58806287Y-42350500D01*
X59016243Y-42317246D01*
X59218412Y-42251557D01*
X59407816Y-42155051D01*
X59429789Y-42139086D01*
X59579786Y-42030109D01*
X59579788Y-42030106D01*
X59579792Y-42030104D01*
X59730104Y-41879792D01*
X59730106Y-41879788D01*
X59730109Y-41879786D01*
X59855048Y-41707820D01*
X59855047Y-41707820D01*
X59855051Y-41707816D01*
X59859514Y-41699054D01*
X59907488Y-41648259D01*
X59975308Y-41631463D01*
X60041444Y-41653999D01*
X60080486Y-41699056D01*
X60084951Y-41707820D01*
X60209890Y-41879786D01*
X60360213Y-42030109D01*
X60532179Y-42155048D01*
X60532181Y-42155049D01*
X60532184Y-42155051D01*
X60721588Y-42251557D01*
X60923757Y-42317246D01*
X61133713Y-42350500D01*
X61133714Y-42350500D01*
X61346286Y-42350500D01*
X61346287Y-42350500D01*
X61556243Y-42317246D01*
X61758412Y-42251557D01*
X61947816Y-42155051D01*
X61969789Y-42139086D01*
X62119786Y-42030109D01*
X62119788Y-42030106D01*
X62119792Y-42030104D01*
X62270104Y-41879792D01*
X62270106Y-41879788D01*
X62270109Y-41879786D01*
X62395048Y-41707820D01*
X62395047Y-41707820D01*
X62395051Y-41707816D01*
X62399514Y-41699054D01*
X62447488Y-41648259D01*
X62515308Y-41631463D01*
X62581444Y-41653999D01*
X62620486Y-41699056D01*
X62624951Y-41707820D01*
X62749890Y-41879786D01*
X62900213Y-42030109D01*
X63072179Y-42155048D01*
X63072181Y-42155049D01*
X63072184Y-42155051D01*
X63261588Y-42251557D01*
X63463757Y-42317246D01*
X63673713Y-42350500D01*
X63673714Y-42350500D01*
X63886286Y-42350500D01*
X63886287Y-42350500D01*
X64096243Y-42317246D01*
X64298412Y-42251557D01*
X64487816Y-42155051D01*
X64509789Y-42139086D01*
X64659786Y-42030109D01*
X64659788Y-42030106D01*
X64659792Y-42030104D01*
X64810104Y-41879792D01*
X64810106Y-41879788D01*
X64810109Y-41879786D01*
X64935048Y-41707820D01*
X64935047Y-41707820D01*
X64935051Y-41707816D01*
X64939514Y-41699054D01*
X64987488Y-41648259D01*
X65055308Y-41631463D01*
X65121444Y-41653999D01*
X65160486Y-41699056D01*
X65164951Y-41707820D01*
X65289890Y-41879786D01*
X65440213Y-42030109D01*
X65612179Y-42155048D01*
X65612181Y-42155049D01*
X65612184Y-42155051D01*
X65801588Y-42251557D01*
X66003757Y-42317246D01*
X66213713Y-42350500D01*
X66213714Y-42350500D01*
X66426286Y-42350500D01*
X66426287Y-42350500D01*
X66636243Y-42317246D01*
X66838412Y-42251557D01*
X67027816Y-42155051D01*
X67049789Y-42139086D01*
X67199786Y-42030109D01*
X67199788Y-42030106D01*
X67199792Y-42030104D01*
X67350104Y-41879792D01*
X67350106Y-41879788D01*
X67350109Y-41879786D01*
X67475048Y-41707820D01*
X67475047Y-41707820D01*
X67475051Y-41707816D01*
X67479514Y-41699054D01*
X67527488Y-41648259D01*
X67595308Y-41631463D01*
X67661444Y-41653999D01*
X67700486Y-41699056D01*
X67704951Y-41707820D01*
X67829890Y-41879786D01*
X67980213Y-42030109D01*
X68152179Y-42155048D01*
X68152181Y-42155049D01*
X68152184Y-42155051D01*
X68341588Y-42251557D01*
X68543757Y-42317246D01*
X68753713Y-42350500D01*
X68753714Y-42350500D01*
X68966286Y-42350500D01*
X68966287Y-42350500D01*
X69176243Y-42317246D01*
X69378412Y-42251557D01*
X69567816Y-42155051D01*
X69589789Y-42139086D01*
X69739786Y-42030109D01*
X69739788Y-42030106D01*
X69739792Y-42030104D01*
X69890104Y-41879792D01*
X69890106Y-41879788D01*
X69890109Y-41879786D01*
X70015048Y-41707820D01*
X70015047Y-41707820D01*
X70015051Y-41707816D01*
X70019514Y-41699054D01*
X70067488Y-41648259D01*
X70135308Y-41631463D01*
X70201444Y-41653999D01*
X70240486Y-41699056D01*
X70244951Y-41707820D01*
X70369890Y-41879786D01*
X70520213Y-42030109D01*
X70692179Y-42155048D01*
X70692181Y-42155049D01*
X70692184Y-42155051D01*
X70881588Y-42251557D01*
X71083757Y-42317246D01*
X71293713Y-42350500D01*
X71293714Y-42350500D01*
X71506286Y-42350500D01*
X71506287Y-42350500D01*
X71716243Y-42317246D01*
X71918412Y-42251557D01*
X72107816Y-42155051D01*
X72129789Y-42139086D01*
X72279786Y-42030109D01*
X72279788Y-42030106D01*
X72279792Y-42030104D01*
X72430104Y-41879792D01*
X72430106Y-41879788D01*
X72430109Y-41879786D01*
X72555048Y-41707820D01*
X72555047Y-41707820D01*
X72555051Y-41707816D01*
X72559514Y-41699054D01*
X72607488Y-41648259D01*
X72675308Y-41631463D01*
X72741444Y-41653999D01*
X72780486Y-41699056D01*
X72784951Y-41707820D01*
X72909890Y-41879786D01*
X73060213Y-42030109D01*
X73232179Y-42155048D01*
X73232181Y-42155049D01*
X73232184Y-42155051D01*
X73421588Y-42251557D01*
X73623757Y-42317246D01*
X73833713Y-42350500D01*
X73833714Y-42350500D01*
X74046286Y-42350500D01*
X74046287Y-42350500D01*
X74256243Y-42317246D01*
X74458412Y-42251557D01*
X74647816Y-42155051D01*
X74669789Y-42139086D01*
X74819786Y-42030109D01*
X74819788Y-42030106D01*
X74819792Y-42030104D01*
X74970104Y-41879792D01*
X74970106Y-41879788D01*
X74970109Y-41879786D01*
X75095048Y-41707820D01*
X75095047Y-41707820D01*
X75095051Y-41707816D01*
X75099514Y-41699054D01*
X75147488Y-41648259D01*
X75215308Y-41631463D01*
X75281444Y-41653999D01*
X75320486Y-41699056D01*
X75324951Y-41707820D01*
X75449890Y-41879786D01*
X75600213Y-42030109D01*
X75772179Y-42155048D01*
X75772181Y-42155049D01*
X75772184Y-42155051D01*
X75961588Y-42251557D01*
X76163757Y-42317246D01*
X76373713Y-42350500D01*
X76373714Y-42350500D01*
X76586286Y-42350500D01*
X76586287Y-42350500D01*
X76796243Y-42317246D01*
X76998412Y-42251557D01*
X77187816Y-42155051D01*
X77209789Y-42139086D01*
X77359786Y-42030109D01*
X77359788Y-42030106D01*
X77359792Y-42030104D01*
X77510104Y-41879792D01*
X77510106Y-41879788D01*
X77510109Y-41879786D01*
X77635048Y-41707820D01*
X77635047Y-41707820D01*
X77635051Y-41707816D01*
X77639514Y-41699054D01*
X77687488Y-41648259D01*
X77755308Y-41631463D01*
X77821444Y-41653999D01*
X77860486Y-41699056D01*
X77864951Y-41707820D01*
X77989890Y-41879786D01*
X78140213Y-42030109D01*
X78312179Y-42155048D01*
X78312181Y-42155049D01*
X78312184Y-42155051D01*
X78501588Y-42251557D01*
X78703757Y-42317246D01*
X78913713Y-42350500D01*
X78913714Y-42350500D01*
X79126286Y-42350500D01*
X79126287Y-42350500D01*
X79336243Y-42317246D01*
X79538412Y-42251557D01*
X79727816Y-42155051D01*
X79749789Y-42139086D01*
X79899786Y-42030109D01*
X79899788Y-42030106D01*
X79899792Y-42030104D01*
X80050104Y-41879792D01*
X80050106Y-41879788D01*
X80050109Y-41879786D01*
X80175048Y-41707820D01*
X80175047Y-41707820D01*
X80175051Y-41707816D01*
X80179514Y-41699054D01*
X80227488Y-41648259D01*
X80295308Y-41631463D01*
X80361444Y-41653999D01*
X80400486Y-41699056D01*
X80404951Y-41707820D01*
X80529890Y-41879786D01*
X80680213Y-42030109D01*
X80852179Y-42155048D01*
X80852181Y-42155049D01*
X80852184Y-42155051D01*
X81041588Y-42251557D01*
X81243757Y-42317246D01*
X81453713Y-42350500D01*
X81453714Y-42350500D01*
X81666286Y-42350500D01*
X81666287Y-42350500D01*
X81876243Y-42317246D01*
X82078412Y-42251557D01*
X82267816Y-42155051D01*
X82289789Y-42139086D01*
X82439786Y-42030109D01*
X82439788Y-42030106D01*
X82439792Y-42030104D01*
X82590104Y-41879792D01*
X82590106Y-41879788D01*
X82590109Y-41879786D01*
X82715048Y-41707820D01*
X82715047Y-41707820D01*
X82715051Y-41707816D01*
X82765515Y-41608773D01*
X82813489Y-41557978D01*
X82881310Y-41541183D01*
X82947445Y-41563720D01*
G37*
%TD.AperFunction*%
%TA.AperFunction,Conductor*%
G36*
X49204809Y-46270185D02*
G01*
X49225451Y-46286819D01*
X52917049Y-49978416D01*
X53021584Y-50082951D01*
X53021585Y-50082952D01*
X53144498Y-50165080D01*
X53144511Y-50165087D01*
X53281082Y-50221656D01*
X53281087Y-50221658D01*
X53281091Y-50221658D01*
X53281092Y-50221659D01*
X53426079Y-50250500D01*
X53426082Y-50250500D01*
X56637770Y-50250500D01*
X56661197Y-50257379D01*
X56685474Y-50260043D01*
X56697343Y-50267992D01*
X56704809Y-50270185D01*
X56715788Y-50278119D01*
X56720842Y-50282210D01*
X56771584Y-50332952D01*
X56835265Y-50375501D01*
X56894505Y-50415084D01*
X56894507Y-50415085D01*
X56894511Y-50415087D01*
X57031082Y-50471656D01*
X57031087Y-50471658D01*
X57031091Y-50471658D01*
X57031092Y-50471659D01*
X57176079Y-50500500D01*
X57176082Y-50500500D01*
X57323920Y-50500500D01*
X57421462Y-50481096D01*
X57468913Y-50471658D01*
X57605495Y-50415084D01*
X57664735Y-50375501D01*
X57728416Y-50332952D01*
X58082951Y-49978416D01*
X58165084Y-49855495D01*
X58221658Y-49718913D01*
X58232366Y-49665084D01*
X58250500Y-49573920D01*
X58250500Y-49362230D01*
X58270185Y-49295191D01*
X58286819Y-49274549D01*
X59099549Y-48461819D01*
X59160872Y-48428334D01*
X59187230Y-48425500D01*
X59748920Y-48425500D01*
X59846462Y-48406096D01*
X59893913Y-48396658D01*
X60030495Y-48340084D01*
X60153416Y-48257951D01*
X60257951Y-48153416D01*
X60340084Y-48030495D01*
X60396658Y-47893913D01*
X60421270Y-47770185D01*
X60425224Y-47750308D01*
X60457609Y-47688397D01*
X60518325Y-47653823D01*
X60546841Y-47650500D01*
X60866870Y-47650500D01*
X60933909Y-47670185D01*
X60935758Y-47671396D01*
X60943344Y-47676465D01*
X60992380Y-47696776D01*
X61061728Y-47725501D01*
X61061732Y-47725501D01*
X61061733Y-47725502D01*
X61187400Y-47750500D01*
X61187403Y-47750500D01*
X63279192Y-47750500D01*
X63346231Y-47770185D01*
X63366873Y-47786819D01*
X64747398Y-49167344D01*
X64775149Y-49213643D01*
X64776011Y-49213286D01*
X64834912Y-49355488D01*
X64834919Y-49355501D01*
X64917048Y-49478415D01*
X64917051Y-49478419D01*
X65021580Y-49582948D01*
X65021584Y-49582951D01*
X65080620Y-49622398D01*
X65125425Y-49676010D01*
X65134132Y-49745335D01*
X65103978Y-49808363D01*
X65044535Y-49845082D01*
X65011729Y-49849500D01*
X59935929Y-49849500D01*
X59810261Y-49874497D01*
X59810255Y-49874499D01*
X59691870Y-49923535D01*
X59585331Y-49994722D01*
X59585324Y-49994728D01*
X58332654Y-51247398D01*
X58286357Y-51275149D01*
X58286714Y-51276011D01*
X58144507Y-51334914D01*
X58144498Y-51334919D01*
X58021584Y-51417048D01*
X58021580Y-51417051D01*
X57917051Y-51521580D01*
X57917048Y-51521584D01*
X57834919Y-51644498D01*
X57834912Y-51644511D01*
X57778343Y-51781082D01*
X57778340Y-51781092D01*
X57749500Y-51926079D01*
X57749500Y-51926082D01*
X57749500Y-52073918D01*
X57749500Y-52073920D01*
X57749499Y-52073920D01*
X57778340Y-52218907D01*
X57778343Y-52218917D01*
X57834912Y-52355488D01*
X57834919Y-52355501D01*
X57917048Y-52478415D01*
X57917051Y-52478419D01*
X58021580Y-52582948D01*
X58021584Y-52582951D01*
X58144498Y-52665080D01*
X58144511Y-52665087D01*
X58281082Y-52721656D01*
X58281087Y-52721658D01*
X58281091Y-52721658D01*
X58281092Y-52721659D01*
X58426079Y-52750500D01*
X58426082Y-52750500D01*
X58573920Y-52750500D01*
X58671462Y-52731096D01*
X58718913Y-52721658D01*
X58855495Y-52665084D01*
X58978416Y-52582951D01*
X59082951Y-52478416D01*
X59165084Y-52355495D01*
X59183821Y-52310261D01*
X59223989Y-52213285D01*
X59224852Y-52213642D01*
X59252600Y-52167344D01*
X60233127Y-51186819D01*
X60294450Y-51153334D01*
X60320808Y-51150500D01*
X66679192Y-51150500D01*
X66746231Y-51170185D01*
X66766873Y-51186819D01*
X68313181Y-52733126D01*
X68346666Y-52794449D01*
X68349500Y-52820807D01*
X68349500Y-53653222D01*
X68329815Y-53720261D01*
X68277011Y-53766016D01*
X68207853Y-53775960D01*
X68201309Y-53774839D01*
X68073921Y-53749500D01*
X68073918Y-53749500D01*
X67926082Y-53749500D01*
X67926080Y-53749500D01*
X67781092Y-53778340D01*
X67781082Y-53778343D01*
X67644511Y-53834912D01*
X67644498Y-53834919D01*
X67521584Y-53917048D01*
X67521580Y-53917051D01*
X67417051Y-54021580D01*
X67417048Y-54021584D01*
X67334919Y-54144498D01*
X67334914Y-54144507D01*
X67276011Y-54286714D01*
X67275148Y-54286356D01*
X67247398Y-54332655D01*
X66766873Y-54813181D01*
X66705550Y-54846666D01*
X66679192Y-54849500D01*
X62373429Y-54849500D01*
X62247761Y-54874497D01*
X62247755Y-54874499D01*
X62129374Y-54923534D01*
X62022826Y-54994726D01*
X60832654Y-56184898D01*
X60825721Y-56189530D01*
X60822779Y-56193768D01*
X60806478Y-56202388D01*
X60792426Y-56211778D01*
X60784026Y-56215257D01*
X60781087Y-56215842D01*
X60644505Y-56272416D01*
X60642010Y-56274082D01*
X60633613Y-56277561D01*
X60616498Y-56279401D01*
X60586160Y-56287000D01*
X55883308Y-56287000D01*
X55816269Y-56267315D01*
X55795627Y-56250681D01*
X53686819Y-54141873D01*
X53653334Y-54080550D01*
X53650500Y-54054192D01*
X53650500Y-51353275D01*
X53625502Y-51227608D01*
X53625501Y-51227607D01*
X53625501Y-51227603D01*
X53583209Y-51125501D01*
X53583208Y-51125497D01*
X53576469Y-51109228D01*
X53576468Y-51109227D01*
X53576466Y-51109221D01*
X53505277Y-51002678D01*
X53505272Y-51002672D01*
X48964780Y-46462181D01*
X48954167Y-46442744D01*
X48939667Y-46426011D01*
X48937750Y-46412679D01*
X48931295Y-46400858D01*
X48932874Y-46378771D01*
X48929723Y-46356853D01*
X48935318Y-46344601D01*
X48936279Y-46331166D01*
X48949549Y-46313439D01*
X48958748Y-46293297D01*
X48970079Y-46286014D01*
X48978151Y-46275233D01*
X48998896Y-46267495D01*
X49017526Y-46255523D01*
X49039444Y-46252371D01*
X49043615Y-46250816D01*
X49052461Y-46250500D01*
X49137770Y-46250500D01*
X49204809Y-46270185D01*
G37*
%TD.AperFunction*%
%TA.AperFunction,Conductor*%
G36*
X50608813Y-39520185D02*
G01*
X50654568Y-39572989D01*
X50664512Y-39642147D01*
X50635487Y-39705703D01*
X50580093Y-39742430D01*
X50561588Y-39748443D01*
X50561585Y-39748444D01*
X50372179Y-39844951D01*
X50200213Y-39969890D01*
X50049890Y-40120213D01*
X49924951Y-40292179D01*
X49828444Y-40481585D01*
X49762753Y-40683760D01*
X49729500Y-40893713D01*
X49729500Y-41106286D01*
X49762753Y-41316239D01*
X49828444Y-41518414D01*
X49924951Y-41707820D01*
X50049890Y-41879786D01*
X50200213Y-42030109D01*
X50372179Y-42155048D01*
X50372181Y-42155049D01*
X50372184Y-42155051D01*
X50561588Y-42251557D01*
X50763757Y-42317246D01*
X50973713Y-42350500D01*
X50973714Y-42350500D01*
X51186286Y-42350500D01*
X51186287Y-42350500D01*
X51367112Y-42321860D01*
X51401055Y-42316484D01*
X51401315Y-42318128D01*
X51463852Y-42321250D01*
X51510711Y-42350657D01*
X56665324Y-47505271D01*
X56665327Y-47505274D01*
X56665330Y-47505276D01*
X56753321Y-47564069D01*
X56771873Y-47576465D01*
X56890256Y-47625501D01*
X56890260Y-47625501D01*
X56890261Y-47625502D01*
X57015928Y-47650500D01*
X57015931Y-47650500D01*
X57488770Y-47650500D01*
X57555809Y-47670185D01*
X57601564Y-47722989D01*
X57611508Y-47792147D01*
X57582483Y-47855703D01*
X57576451Y-47862181D01*
X56917048Y-48521583D01*
X56876750Y-48581896D01*
X56874455Y-48585331D01*
X56834916Y-48644505D01*
X56820052Y-48680389D01*
X56816038Y-48687363D01*
X56796370Y-48706163D01*
X56779294Y-48727355D01*
X56771482Y-48729955D01*
X56765532Y-48735643D01*
X56738822Y-48740826D01*
X56713000Y-48749421D01*
X56708572Y-48749500D01*
X53862229Y-48749500D01*
X53795190Y-48729815D01*
X53774548Y-48713181D01*
X50921027Y-45859659D01*
X50887542Y-45798336D01*
X50892526Y-45728644D01*
X50934398Y-45672711D01*
X50939785Y-45668897D01*
X51010289Y-45621789D01*
X51121789Y-45510289D01*
X51209394Y-45379179D01*
X51269737Y-45233497D01*
X51300500Y-45078842D01*
X51300500Y-44921158D01*
X51300500Y-44921155D01*
X51300499Y-44921153D01*
X51281158Y-44823920D01*
X51269737Y-44766503D01*
X51269735Y-44766498D01*
X51209397Y-44620827D01*
X51209390Y-44620814D01*
X51121789Y-44489711D01*
X51121786Y-44489707D01*
X51010292Y-44378213D01*
X51010284Y-44378207D01*
X50879181Y-44290607D01*
X50879179Y-44290606D01*
X50855521Y-44280806D01*
X50815295Y-44253927D01*
X49978421Y-43417052D01*
X49978414Y-43417046D01*
X49904729Y-43367812D01*
X49904729Y-43367813D01*
X49855491Y-43334913D01*
X49718917Y-43278343D01*
X49718907Y-43278340D01*
X49573920Y-43249500D01*
X49573918Y-43249500D01*
X46304604Y-43249500D01*
X46257155Y-43240062D01*
X46233497Y-43230263D01*
X46233493Y-43230262D01*
X46233488Y-43230260D01*
X46078845Y-43199500D01*
X46078842Y-43199500D01*
X45921158Y-43199500D01*
X45921155Y-43199500D01*
X45766510Y-43230261D01*
X45766498Y-43230264D01*
X45620827Y-43290602D01*
X45620814Y-43290609D01*
X45489711Y-43378210D01*
X45489707Y-43378213D01*
X45378213Y-43489707D01*
X45378210Y-43489711D01*
X45290609Y-43620814D01*
X45290602Y-43620827D01*
X45230264Y-43766498D01*
X45230261Y-43766508D01*
X45208759Y-43874604D01*
X45176374Y-43936515D01*
X45115658Y-43971089D01*
X45045888Y-43967348D01*
X44999461Y-43938093D01*
X44286819Y-43225451D01*
X44253334Y-43164128D01*
X44250500Y-43137770D01*
X44250500Y-42862229D01*
X44270185Y-42795190D01*
X44286819Y-42774548D01*
X44505993Y-42555374D01*
X44751574Y-42309792D01*
X44812895Y-42276309D01*
X44882586Y-42281293D01*
X44899381Y-42290469D01*
X44899886Y-42289546D01*
X44907671Y-42293797D01*
X45042517Y-42344091D01*
X45042516Y-42344091D01*
X45049444Y-42344835D01*
X45102127Y-42350500D01*
X46897872Y-42350499D01*
X46957483Y-42344091D01*
X47092331Y-42293796D01*
X47207546Y-42207546D01*
X47293796Y-42092331D01*
X47344091Y-41957483D01*
X47350500Y-41897873D01*
X47350499Y-40102128D01*
X47344091Y-40042517D01*
X47293796Y-39907669D01*
X47293795Y-39907668D01*
X47293793Y-39907664D01*
X47207547Y-39792455D01*
X47207544Y-39792452D01*
X47115792Y-39723766D01*
X47073921Y-39667832D01*
X47068937Y-39598141D01*
X47102423Y-39536818D01*
X47163746Y-39503334D01*
X47190103Y-39500500D01*
X50541774Y-39500500D01*
X50608813Y-39520185D01*
G37*
%TD.AperFunction*%
%TD*%
M02*
