M48
; DRILL file KiCad 10.0.2 date 2026-07-08T16:30:57
; FORMAT={-:-/ absolute / metric / decimal}
; #@! TF.CreationDate,2026-07-08T16:30:57+05:30
; #@! TF.GenerationSoftware,Kicad,Pcbnew,10.0.2
; #@! TF.FileFunction,Plated,1,2,PTH
FMAT,2
METRIC
; #@! TA.AperFunction,Plated,PTH,ViaDrill
T1C0.300
; #@! TA.AperFunction,Plated,PTH,ComponentDrill
T2C0.300
; #@! TA.AperFunction,Plated,PTH,ComponentDrill
T3C0.600
; #@! TA.AperFunction,Plated,PTH,ComponentDrill
T4C1.000
%
G90
G05
T1
X44.0Y-54.0
X44.0Y-55.0
X44.5Y-47.5
X46.0Y-44.0
X48.0Y-45.5
X48.5Y-50.5
X49.0Y-63.0
X50.0Y-57.0
X50.5Y-45.0
X54.0Y-58.5
X55.0Y-47.46
X55.0Y-63.5
X55.5Y-58.5
X55.837Y-63.337
X57.0Y-53.0
X57.25Y-49.75
X57.5Y-63.5
X58.5Y-52.0
X59.17Y-61.0
X59.675Y-47.675
X59.75Y-44.75
X60.0Y-48.5
X60.0Y-51.5
X60.0Y-58.1
X60.0Y-59.7
X61.0Y-56.938
X62.0Y-58.0
X62.0Y-60.0
X62.5Y-44.0
X63.0Y-58.0
X64.5Y-60.0
X65.5Y-49.0
X66.0Y-57.5
X67.5Y-60.5
X68.0Y-54.5
X80.5Y-46.0
T2
X73.135Y-51.727
X73.135Y-53.252
X73.897Y-50.965
X73.897Y-52.49
X73.897Y-54.015
X74.66Y-51.727
X74.66Y-53.252
X75.422Y-50.965
X75.422Y-52.49
X75.422Y-54.015
X76.185Y-51.727
X76.185Y-53.252
T4
X46.0Y-41.0
X46.0Y-66.0
X48.54Y-41.0
X48.54Y-66.0
X51.08Y-41.0
X51.08Y-66.0
X53.62Y-41.0
X53.62Y-66.0
X56.16Y-41.0
X56.16Y-66.0
X58.7Y-41.0
X58.7Y-66.0
X61.24Y-41.0
X61.24Y-66.0
X63.78Y-41.0
X63.78Y-66.0
X66.32Y-41.0
X66.32Y-66.0
X68.86Y-41.0
X68.86Y-66.0
X71.4Y-41.0
X71.4Y-66.0
X73.94Y-41.0
X73.94Y-66.0
X76.48Y-41.0
X76.48Y-66.0
X79.02Y-41.0
X79.02Y-66.0
X81.56Y-41.0
X81.56Y-66.0
T3
G00X41.12Y-49.68
M15
G01X40.52Y-49.68
M16
G05
G00X41.12Y-58.32
M15
G01X40.52Y-58.32
M16
G05
G00X45.55Y-49.68
M15
G01X44.45Y-49.68
M16
G05
G00X45.55Y-58.32
M15
G01X44.45Y-58.32
M16
G05
M30
