%TF.GenerationSoftware,KiCad,Pcbnew,10.0.2*%
%TF.CreationDate,2026-07-08T16:31:04+05:30*%
%TF.ProjectId,esp_wroom_32,6573705f-7772-46f6-9f6d-5f33322e6b69,rev?*%
%TF.SameCoordinates,Original*%
%TF.FileFunction,Copper,L1,Top*%
%TF.FilePolarity,Positive*%
%FSLAX46Y46*%
G04 Gerber Fmt 4.6, Leading zero omitted, Abs format (unit mm)*
G04 Created by KiCad (PCBNEW 10.0.2) date 2026-07-08 16:31:04*
%MOMM*%
%LPD*%
G01*
G04 APERTURE LIST*
G04 Aperture macros list*
%AMRoundRect*
0 Rectangle with rounded corners*
0 $1 Rounding radius*
0 $2 $3 $4 $5 $6 $7 $8 $9 X,Y pos of 4 corners*
0 Add a 4 corners polygon primitive as box body*
4,1,4,$2,$3,$4,$5,$6,$7,$8,$9,$2,$3,0*
0 Add four circle primitives for the rounded corners*
1,1,$1+$1,$2,$3*
1,1,$1+$1,$4,$5*
1,1,$1+$1,$6,$7*
1,1,$1+$1,$8,$9*
0 Add four rect primitives between the rounded corners*
20,1,$1+$1,$2,$3,$4,$5,0*
20,1,$1+$1,$4,$5,$6,$7,0*
20,1,$1+$1,$6,$7,$8,$9,0*
20,1,$1+$1,$8,$9,$2,$3,0*%
G04 Aperture macros list end*
%TA.AperFunction,SMDPad,CuDef*%
%ADD10RoundRect,0.250000X-0.445000X0.457500X-0.445000X-0.457500X0.445000X-0.457500X0.445000X0.457500X0*%
%TD*%
%TA.AperFunction,SMDPad,CuDef*%
%ADD11RoundRect,0.200000X-0.200000X-0.800000X0.200000X-0.800000X0.200000X0.800000X-0.200000X0.800000X0*%
%TD*%
%TA.AperFunction,SMDPad,CuDef*%
%ADD12RoundRect,0.200000X0.275000X-0.200000X0.275000X0.200000X-0.275000X0.200000X-0.275000X-0.200000X0*%
%TD*%
%TA.AperFunction,SMDPad,CuDef*%
%ADD13RoundRect,0.150000X0.150000X-0.587500X0.150000X0.587500X-0.150000X0.587500X-0.150000X-0.587500X0*%
%TD*%
%TA.AperFunction,SMDPad,CuDef*%
%ADD14RoundRect,0.100000X-0.130000X-0.100000X0.130000X-0.100000X0.130000X0.100000X-0.130000X0.100000X0*%
%TD*%
%TA.AperFunction,SMDPad,CuDef*%
%ADD15RoundRect,0.150000X-0.575000X0.150000X-0.575000X-0.150000X0.575000X-0.150000X0.575000X0.150000X0*%
%TD*%
%TA.AperFunction,SMDPad,CuDef*%
%ADD16RoundRect,0.075000X-0.650000X0.075000X-0.650000X-0.075000X0.650000X-0.075000X0.650000X0.075000X0*%
%TD*%
%TA.AperFunction,ComponentPad*%
%ADD17O,2.100000X1.000000*%
%TD*%
%TA.AperFunction,ComponentPad*%
%ADD18O,1.600000X1.000000*%
%TD*%
%TA.AperFunction,SMDPad,CuDef*%
%ADD19RoundRect,0.140000X-0.140000X-0.170000X0.140000X-0.170000X0.140000X0.170000X-0.140000X0.170000X0*%
%TD*%
%TA.AperFunction,ComponentPad*%
%ADD20R,1.700000X1.700000*%
%TD*%
%TA.AperFunction,ComponentPad*%
%ADD21C,1.700000*%
%TD*%
%TA.AperFunction,SMDPad,CuDef*%
%ADD22RoundRect,0.140000X0.170000X-0.140000X0.170000X0.140000X-0.170000X0.140000X-0.170000X-0.140000X0*%
%TD*%
%TA.AperFunction,SMDPad,CuDef*%
%ADD23RoundRect,0.200000X-0.275000X0.200000X-0.275000X-0.200000X0.275000X-0.200000X0.275000X0.200000X0*%
%TD*%
%TA.AperFunction,SMDPad,CuDef*%
%ADD24RoundRect,0.140000X-0.170000X0.140000X-0.170000X-0.140000X0.170000X-0.140000X0.170000X0.140000X0*%
%TD*%
%TA.AperFunction,SMDPad,CuDef*%
%ADD25R,0.900000X1.500000*%
%TD*%
%TA.AperFunction,SMDPad,CuDef*%
%ADD26R,1.500000X0.900000*%
%TD*%
%TA.AperFunction,SMDPad,CuDef*%
%ADD27R,1.050000X1.050000*%
%TD*%
%TA.AperFunction,HeatsinkPad*%
%ADD28C,0.600000*%
%TD*%
%TA.AperFunction,HeatsinkPad*%
%ADD29R,4.200000X4.200000*%
%TD*%
%TA.AperFunction,SMDPad,CuDef*%
%ADD30RoundRect,0.200000X-0.200000X-0.275000X0.200000X-0.275000X0.200000X0.275000X-0.200000X0.275000X0*%
%TD*%
%TA.AperFunction,SMDPad,CuDef*%
%ADD31RoundRect,0.150000X0.150000X-0.825000X0.150000X0.825000X-0.150000X0.825000X-0.150000X-0.825000X0*%
%TD*%
%TA.AperFunction,SMDPad,CuDef*%
%ADD32RoundRect,0.375000X0.375000X-0.625000X0.375000X0.625000X-0.375000X0.625000X-0.375000X-0.625000X0*%
%TD*%
%TA.AperFunction,SMDPad,CuDef*%
%ADD33RoundRect,0.500000X1.400000X-0.500000X1.400000X0.500000X-1.400000X0.500000X-1.400000X-0.500000X0*%
%TD*%
%TA.AperFunction,SMDPad,CuDef*%
%ADD34RoundRect,0.200000X0.200000X0.275000X-0.200000X0.275000X-0.200000X-0.275000X0.200000X-0.275000X0*%
%TD*%
%TA.AperFunction,SMDPad,CuDef*%
%ADD35RoundRect,0.150000X-0.150000X0.587500X-0.150000X-0.587500X0.150000X-0.587500X0.150000X0.587500X0*%
%TD*%
%TA.AperFunction,SMDPad,CuDef*%
%ADD36RoundRect,0.225000X-0.375000X0.225000X-0.375000X-0.225000X0.375000X-0.225000X0.375000X0.225000X0*%
%TD*%
%TA.AperFunction,ViaPad*%
%ADD37C,0.600000*%
%TD*%
%TA.AperFunction,ViaPad*%
%ADD38C,0.500000*%
%TD*%
%TA.AperFunction,Conductor*%
%ADD39C,0.500000*%
%TD*%
%TA.AperFunction,Conductor*%
%ADD40C,0.200000*%
%TD*%
%TA.AperFunction,Conductor*%
%ADD41C,0.300000*%
%TD*%
G04 APERTURE END LIST*
D10*
%TO.P,C2,1*%
%TO.N,+3V3*%
X58000000Y-44295000D03*
%TO.P,C2,2*%
%TO.N,GND*%
X58000000Y-47000000D03*
%TD*%
D11*
%TO.P,SW2,1,1_1*%
%TO.N,GND*%
X39000000Y-62000000D03*
%TO.P,SW2,2,2_2*%
%TO.N,/IO0*%
X43200000Y-62000000D03*
%TD*%
D12*
%TO.P,R6,1*%
%TO.N,/EN*%
X45000000Y-46500000D03*
%TO.P,R6,2*%
%TO.N,+3V3*%
X45000000Y-44850000D03*
%TD*%
D13*
%TO.P,Q2,1,B_1*%
%TO.N,Net-(Q2-B)*%
X60100000Y-61000000D03*
%TO.P,Q2,2,E_2*%
%TO.N,/DTR*%
X62000000Y-61000000D03*
%TO.P,Q2,3,C_3*%
%TO.N,/IO0*%
X61050000Y-59125000D03*
%TD*%
D14*
%TO.P,D3,1,K_1*%
%TO.N,GND*%
X61025000Y-51500000D03*
%TO.P,D3,2,A_2*%
%TO.N,Net-(D3-A)*%
X61665000Y-51500000D03*
%TD*%
D15*
%TO.P,J1,A1,GND_A1*%
%TO.N,GND*%
X45915000Y-50750000D03*
%TO.P,J1,A4,VBUS_A4*%
%TO.N,VBUS*%
X45915000Y-51550000D03*
D16*
%TO.P,J1,A5,CC1_A5*%
%TO.N,Net-(J1-CC1)*%
X45915000Y-52750000D03*
%TO.P,J1,A6,D+_A6*%
%TO.N,/D+*%
X45915000Y-53750000D03*
%TO.P,J1,A7,D-_A7*%
%TO.N,/D-*%
X45915000Y-54250000D03*
%TO.P,J1,A8,SBU1_A8*%
%TO.N,unconnected-(J1-SBU1-PadA8)*%
X45915000Y-55250000D03*
D15*
%TO.P,J1,A9,VBUS_A9*%
%TO.N,VBUS*%
X45915000Y-56450000D03*
%TO.P,J1,A12,GND_A12*%
%TO.N,GND*%
X45915000Y-57250000D03*
%TO.P,J1,B1,GND_B1*%
X45915000Y-57250000D03*
%TO.P,J1,B4,VBUS_B4*%
%TO.N,VBUS*%
X45915000Y-56450000D03*
D16*
%TO.P,J1,B5,CC2_B5*%
%TO.N,Net-(J1-CC2)*%
X45915000Y-55750000D03*
%TO.P,J1,B6,D+_B6*%
%TO.N,/D+*%
X45915000Y-54750000D03*
%TO.P,J1,B7,D-_B7*%
%TO.N,/D-*%
X45915000Y-53250000D03*
%TO.P,J1,B8,SBU2_B8*%
%TO.N,unconnected-(J1-SBU2-PadB8)*%
X45915000Y-52250000D03*
D15*
%TO.P,J1,B9,VBUS_B9*%
%TO.N,VBUS*%
X45915000Y-51550000D03*
%TO.P,J1,B12,GND_B12*%
%TO.N,GND*%
X45915000Y-50750000D03*
D17*
%TO.P,J1,SH,SHIELD_SH*%
X45000000Y-49680000D03*
D18*
X40820000Y-49680000D03*
D17*
X45000000Y-58320000D03*
D18*
X40820000Y-58320000D03*
%TD*%
D11*
%TO.P,SW1,1,1_1*%
%TO.N,GND*%
X39000000Y-45000000D03*
%TO.P,SW1,2,2_2*%
%TO.N,/EN*%
X43200000Y-45000000D03*
%TD*%
D19*
%TO.P,C1,1*%
%TO.N,+5V*%
X55000000Y-53000000D03*
%TO.P,C1,2*%
%TO.N,GND*%
X55960000Y-53000000D03*
%TD*%
D12*
%TO.P,R1,1*%
%TO.N,Net-(J1-CC1)*%
X48000000Y-53650000D03*
%TO.P,R1,2*%
%TO.N,GND*%
X48000000Y-52000000D03*
%TD*%
D19*
%TO.P,C3,1*%
%TO.N,+3V3*%
X60500000Y-45500000D03*
%TO.P,C3,2*%
%TO.N,GND*%
X61460000Y-45500000D03*
%TD*%
D20*
%TO.P,J3,1,Pin_1_1*%
%TO.N,+5V*%
X46000000Y-41000000D03*
D21*
%TO.P,J3,2,Pin_2_2*%
%TO.N,GND*%
X48540000Y-41000000D03*
%TO.P,J3,3,Pin_3_3*%
%TO.N,/D13*%
X51080000Y-41000000D03*
%TO.P,J3,4,Pin_4_4*%
%TO.N,/D12*%
X53620000Y-41000000D03*
%TO.P,J3,5,Pin_5_5*%
%TO.N,/D14*%
X56160000Y-41000000D03*
%TO.P,J3,6,Pin_6_6*%
%TO.N,/D27*%
X58700000Y-41000000D03*
%TO.P,J3,7,Pin_7_7*%
%TO.N,/D26*%
X61240000Y-41000000D03*
%TO.P,J3,8,Pin_8_8*%
%TO.N,/D25*%
X63780000Y-41000000D03*
%TO.P,J3,9,Pin_9_9*%
%TO.N,/D33*%
X66320000Y-41000000D03*
%TO.P,J3,10,Pin_10_10*%
%TO.N,/D32*%
X68860000Y-41000000D03*
%TO.P,J3,11,Pin_11_11*%
%TO.N,/D35*%
X71400000Y-41000000D03*
%TO.P,J3,12,Pin_12_12*%
%TO.N,/D34*%
X73940000Y-41000000D03*
%TO.P,J3,13,Pin_13_13*%
%TO.N,/VN*%
X76480000Y-41000000D03*
%TO.P,J3,14,Pin_14_14*%
%TO.N,/VP*%
X79020000Y-41000000D03*
%TO.P,J3,15,Pin_15_15*%
%TO.N,/EN*%
X81560000Y-41000000D03*
%TD*%
D22*
%TO.P,C6,1*%
%TO.N,GND*%
X45000000Y-62255000D03*
%TO.P,C6,2*%
%TO.N,/IO0*%
X45000000Y-61295000D03*
%TD*%
D23*
%TO.P,R2,1*%
%TO.N,Net-(J1-CC2)*%
X48000000Y-56262500D03*
%TO.P,R2,2*%
%TO.N,GND*%
X48000000Y-57912500D03*
%TD*%
D24*
%TO.P,C4,1*%
%TO.N,Net-(U3-V3)*%
X47000000Y-61295000D03*
%TO.P,C4,2*%
%TO.N,GND*%
X47000000Y-62255000D03*
%TD*%
%TO.P,C5,1*%
%TO.N,GND*%
X43000000Y-41040000D03*
%TO.P,C5,2*%
%TO.N,/EN*%
X43000000Y-42000000D03*
%TD*%
D25*
%TO.P,U1,1,GND_1*%
%TO.N,GND*%
X82000000Y-44420000D03*
%TO.P,U1,2,VDD_2*%
%TO.N,+3V3*%
X80730000Y-44420000D03*
%TO.P,U1,3,EN_3*%
%TO.N,/EN*%
X79460000Y-44420000D03*
%TO.P,U1,4,SENSOR_VP_4*%
%TO.N,/VP*%
X78190000Y-44420000D03*
%TO.P,U1,5,SENSOR_VN_5*%
%TO.N,/VN*%
X76920000Y-44420000D03*
%TO.P,U1,6,IO34_6*%
%TO.N,/D34*%
X75650000Y-44420000D03*
%TO.P,U1,7,IO35_7*%
%TO.N,/D35*%
X74380000Y-44420000D03*
%TO.P,U1,8,IO32_8*%
%TO.N,/D32*%
X73110000Y-44420000D03*
%TO.P,U1,9,IO33_9*%
%TO.N,/D33*%
X71840000Y-44420000D03*
%TO.P,U1,10,IO25_10*%
%TO.N,/D25*%
X70570000Y-44420000D03*
%TO.P,U1,11,IO26_11*%
%TO.N,/D26*%
X69300000Y-44420000D03*
%TO.P,U1,12,IO27_12*%
%TO.N,/D27*%
X68030000Y-44420000D03*
%TO.P,U1,13,IO14_13*%
%TO.N,/D14*%
X66760000Y-44420000D03*
%TO.P,U1,14,IO12_14*%
%TO.N,/D12*%
X65490000Y-44420000D03*
D26*
%TO.P,U1,15,GND_15*%
%TO.N,GND*%
X64240000Y-47460000D03*
%TO.P,U1,16,IO13_16*%
%TO.N,/D13*%
X64240000Y-48730000D03*
%TO.P,U1,17,SHD/SD2_17*%
%TO.N,unconnected-(U1-SHD{slash}SD2-Pad17)*%
X64240000Y-50000000D03*
%TO.P,U1,18,SWP/SD3_18*%
%TO.N,unconnected-(U1-SWP{slash}SD3-Pad18)*%
X64240000Y-51270000D03*
%TO.P,U1,19,SCS/CMD_19*%
%TO.N,unconnected-(U1-SCS{slash}CMD-Pad19)*%
X64240000Y-52540000D03*
%TO.P,U1,20,SCK/CLK_20*%
%TO.N,unconnected-(U1-SCK{slash}CLK-Pad20)*%
X64240000Y-53810000D03*
%TO.P,U1,21,SDO/SD0_21*%
%TO.N,unconnected-(U1-SDO{slash}SD0-Pad21)*%
X64240000Y-55080000D03*
%TO.P,U1,22,SDI/SD1_22*%
%TO.N,unconnected-(U1-SDI{slash}SD1-Pad22)*%
X64240000Y-56350000D03*
%TO.P,U1,23,IO15_23*%
%TO.N,/D15*%
X64240000Y-57620000D03*
%TO.P,U1,24,IO2_24*%
%TO.N,/D2*%
X64240000Y-58890000D03*
D25*
%TO.P,U1,25,IO0_25*%
%TO.N,/IO0*%
X65490000Y-61920000D03*
%TO.P,U1,26,IO4_26*%
%TO.N,/D4*%
X66760000Y-61920000D03*
%TO.P,U1,27,IO16_27*%
%TO.N,/RXD2*%
X68030000Y-61920000D03*
%TO.P,U1,28,IO17_28*%
%TO.N,/TXD2*%
X69300000Y-61920000D03*
%TO.P,U1,29,IO5_29*%
%TO.N,/D5*%
X70570000Y-61920000D03*
%TO.P,U1,30,IO18_30*%
%TO.N,/D18*%
X71840000Y-61920000D03*
%TO.P,U1,31,IO19_31*%
%TO.N,/D19*%
X73110000Y-61920000D03*
%TO.P,U1,32,NC_32*%
%TO.N,unconnected-(U1-NC-Pad32)*%
X74380000Y-61920000D03*
%TO.P,U1,33,IO21_33*%
%TO.N,/D21*%
X75650000Y-61920000D03*
%TO.P,U1,34,RXD0/IO3_34*%
%TO.N,/RXD*%
X76920000Y-61920000D03*
%TO.P,U1,35,TXD0/IO1_35*%
%TO.N,/TXD*%
X78190000Y-61920000D03*
%TO.P,U1,36,IO22_36*%
%TO.N,/D22*%
X79460000Y-61920000D03*
%TO.P,U1,37,IO23_37*%
%TO.N,/D23*%
X80730000Y-61920000D03*
%TO.P,U1,38,GND_38*%
%TO.N,GND*%
X82000000Y-61920000D03*
D27*
%TO.P,U1,39,GND_39*%
X76185000Y-50965000D03*
D28*
X75422500Y-50965000D03*
D27*
X74660000Y-50965000D03*
D28*
X73897500Y-50965000D03*
D27*
X73135000Y-50965000D03*
D28*
X76185000Y-51727500D03*
X74660000Y-51727500D03*
X73135000Y-51727500D03*
D27*
X76185000Y-52490000D03*
D28*
X75422500Y-52490000D03*
D27*
X74660000Y-52490000D03*
D29*
X74660000Y-52490000D03*
D28*
X73897500Y-52490000D03*
D27*
X73135000Y-52490000D03*
D28*
X76185000Y-53252500D03*
X74660000Y-53252500D03*
X73135000Y-53252500D03*
D27*
X76185000Y-54015000D03*
D28*
X75422500Y-54015000D03*
D27*
X74660000Y-54015000D03*
D28*
X73897500Y-54015000D03*
D27*
X73135000Y-54015000D03*
%TD*%
D30*
%TO.P,R7,1*%
%TO.N,/D2*%
X60500000Y-50000000D03*
%TO.P,R7,2*%
%TO.N,Net-(D3-A)*%
X62150000Y-50000000D03*
%TD*%
D31*
%TO.P,U3,1,GND_1*%
%TO.N,GND*%
X49555000Y-60475000D03*
%TO.P,U3,2,TXD_2*%
%TO.N,/RXD*%
X50825000Y-60475000D03*
%TO.P,U3,3,RXD_3*%
%TO.N,/TXD*%
X52095000Y-60475000D03*
%TO.P,U3,4,V3_4*%
%TO.N,Net-(U3-V3)*%
X53365000Y-60475000D03*
%TO.P,U3,5,UD+_5*%
%TO.N,/D-*%
X54635000Y-60475000D03*
%TO.P,U3,6,UD-_6*%
%TO.N,/D+*%
X55905000Y-60475000D03*
%TO.P,U3,7,NC_7*%
%TO.N,unconnected-(U3-NC-Pad7)*%
X57175000Y-60475000D03*
%TO.P,U3,8,NC_8*%
%TO.N,unconnected-(U3-NC-Pad8)*%
X58445000Y-60475000D03*
%TO.P,U3,9,~{CTS}_9*%
%TO.N,unconnected-(U3-~{CTS}-Pad9)*%
X58445000Y-55525000D03*
%TO.P,U3,10,~{DSR}_10*%
%TO.N,unconnected-(U3-~{DSR}-Pad10)*%
X57175000Y-55525000D03*
%TO.P,U3,11,~{RI}_11*%
%TO.N,unconnected-(U3-~{RI}-Pad11)*%
X55905000Y-55525000D03*
%TO.P,U3,12,~{DCD}_12*%
%TO.N,unconnected-(U3-~{DCD}-Pad12)*%
X54635000Y-55525000D03*
%TO.P,U3,13,~{DTR}_13*%
%TO.N,/DTR*%
X53365000Y-55525000D03*
%TO.P,U3,14,~{RTS}_14*%
%TO.N,/RTS*%
X52095000Y-55525000D03*
%TO.P,U3,15,R232_15*%
%TO.N,unconnected-(U3-R232-Pad15)*%
X50825000Y-55525000D03*
%TO.P,U3,16,VCC_16*%
%TO.N,+3V3*%
X49555000Y-55525000D03*
%TD*%
D32*
%TO.P,U2,1,GND_1*%
%TO.N,GND*%
X50700000Y-51000000D03*
%TO.P,U2,2,VO_2*%
%TO.N,+3V3*%
X53000000Y-51000000D03*
D33*
X53000000Y-44700000D03*
D32*
%TO.P,U2,3,VI_3*%
%TO.N,+5V*%
X55300000Y-51000000D03*
%TD*%
D34*
%TO.P,R4,1*%
%TO.N,/DTR*%
X60912500Y-63000000D03*
%TO.P,R4,2*%
%TO.N,Net-(Q1-B)*%
X59262500Y-63000000D03*
%TD*%
D20*
%TO.P,J2,1,Pin_1_1*%
%TO.N,+3V3*%
X46000000Y-66000000D03*
D21*
%TO.P,J2,2,Pin_2_2*%
%TO.N,GND*%
X48540000Y-66000000D03*
%TO.P,J2,3,Pin_3_3*%
%TO.N,/D15*%
X51080000Y-66000000D03*
%TO.P,J2,4,Pin_4_4*%
%TO.N,/D2*%
X53620000Y-66000000D03*
%TO.P,J2,5,Pin_5_5*%
%TO.N,/D4*%
X56160000Y-66000000D03*
%TO.P,J2,6,Pin_6_6*%
%TO.N,/RXD2*%
X58700000Y-66000000D03*
%TO.P,J2,7,Pin_7_7*%
%TO.N,/TXD2*%
X61240000Y-66000000D03*
%TO.P,J2,8,Pin_8_8*%
%TO.N,/D5*%
X63780000Y-66000000D03*
%TO.P,J2,9,Pin_9_9*%
%TO.N,/D18*%
X66320000Y-66000000D03*
%TO.P,J2,10,Pin_10_10*%
%TO.N,/D19*%
X68860000Y-66000000D03*
%TO.P,J2,11,Pin_11_11*%
%TO.N,/D21*%
X71400000Y-66000000D03*
%TO.P,J2,12,Pin_12_12*%
%TO.N,/RXD*%
X73940000Y-66000000D03*
%TO.P,J2,13,Pin_13_13*%
%TO.N,/TXD*%
X76480000Y-66000000D03*
%TO.P,J2,14,Pin_14_14*%
%TO.N,/D22*%
X79020000Y-66000000D03*
%TO.P,J2,15,Pin_15_15*%
%TO.N,/D23*%
X81560000Y-66000000D03*
%TD*%
D35*
%TO.P,Q1,1,B_1*%
%TO.N,Net-(Q1-B)*%
X61950000Y-55062500D03*
%TO.P,Q1,2,E_2*%
%TO.N,/RTS*%
X60050000Y-55062500D03*
%TO.P,Q1,3,C_3*%
%TO.N,/EN*%
X61000000Y-56937500D03*
%TD*%
D14*
%TO.P,D2,1,K_1*%
%TO.N,GND*%
X61180000Y-48500000D03*
%TO.P,D2,2,A_2*%
%TO.N,Net-(D2-A)*%
X61820000Y-48500000D03*
%TD*%
D30*
%TO.P,R3,1*%
%TO.N,+5V*%
X60350000Y-47000000D03*
%TO.P,R3,2*%
%TO.N,Net-(D2-A)*%
X62000000Y-47000000D03*
%TD*%
D36*
%TO.P,D1,1,K_1*%
%TO.N,+5V*%
X48000000Y-44200000D03*
%TO.P,D1,2,A_2*%
%TO.N,VBUS*%
X48000000Y-47500000D03*
%TD*%
D30*
%TO.P,R5,1*%
%TO.N,/RTS*%
X60350000Y-53000000D03*
%TO.P,R5,2*%
%TO.N,Net-(Q2-B)*%
X62000000Y-53000000D03*
%TD*%
D37*
%TO.N,+3V3*%
X50000000Y-57000000D03*
X49000000Y-63000000D03*
D38*
X80500000Y-46000000D03*
D37*
X50500000Y-45000000D03*
D38*
X59750000Y-44750000D03*
D37*
X46000000Y-44000000D03*
%TO.N,GND*%
X55000000Y-47460000D03*
X60000000Y-51500000D03*
X48500000Y-50500000D03*
X60000000Y-48500000D03*
X57000000Y-53000000D03*
D38*
%TO.N,/EN*%
X61000000Y-56937500D03*
X44500000Y-47500000D03*
X68000000Y-54500000D03*
%TO.N,Net-(Q2-B)*%
X63000000Y-58000000D03*
X60000000Y-59700000D03*
%TO.N,/DTR*%
X60000000Y-58100000D03*
X62000000Y-60000000D03*
%TO.N,/D+*%
X55500000Y-58500000D03*
X44000000Y-55000000D03*
%TO.N,/D-*%
X54000000Y-58500000D03*
X44000000Y-54000000D03*
%TO.N,+5V*%
X59675000Y-47675000D03*
X48000000Y-45500000D03*
X57250000Y-49750000D03*
%TO.N,/D13*%
X65500000Y-49000000D03*
%TO.N,/D12*%
X62500000Y-44000000D03*
%TO.N,/D15*%
X66000000Y-57500000D03*
%TO.N,/D2*%
X58500000Y-52000000D03*
X64500000Y-60000000D03*
D37*
%TO.N,/D4*%
X67500000Y-60500000D03*
X57500000Y-63500000D03*
D38*
%TO.N,/RXD*%
X55000000Y-63500000D03*
%TO.N,/TXD*%
X55837133Y-63337132D03*
%TO.N,Net-(Q1-B)*%
X59170000Y-61000000D03*
X62000000Y-58000000D03*
%TD*%
%TO.N,+3V3*%
D39*
X59295000Y-44295000D02*
X58000000Y-44295000D01*
X50500000Y-45000000D02*
X52700000Y-45000000D01*
X49555000Y-55525000D02*
X49555000Y-54445000D01*
X45000000Y-44850000D02*
X45150000Y-44850000D01*
X53700000Y-44700000D02*
X54105000Y-44295000D01*
X49555000Y-54445000D02*
X53000000Y-51000000D01*
X45150000Y-44850000D02*
X46000000Y-44000000D01*
X50000000Y-57000000D02*
X49555000Y-56555000D01*
X59750000Y-44750000D02*
X59295000Y-44295000D01*
X80500000Y-46000000D02*
X80730000Y-45770000D01*
X49555000Y-56555000D02*
X49555000Y-55525000D01*
X80730000Y-45770000D02*
X80730000Y-44420000D01*
X52700000Y-45000000D02*
X53000000Y-44700000D01*
X59750000Y-44750000D02*
X60500000Y-45500000D01*
X53000000Y-44700000D02*
X53700000Y-44700000D01*
X54105000Y-44295000D02*
X58000000Y-44295000D01*
X49000000Y-63000000D02*
X46000000Y-66000000D01*
%TO.N,GND*%
D40*
X61460000Y-45500000D02*
X62280000Y-45500000D01*
D41*
X60000000Y-48500000D02*
X60530000Y-49030000D01*
D40*
X55460000Y-47000000D02*
X58000000Y-47000000D01*
D41*
X62130884Y-49030000D02*
X63700884Y-47460000D01*
X63700884Y-47460000D02*
X64240000Y-47460000D01*
D40*
X62280000Y-45500000D02*
X64240000Y-47460000D01*
X55960000Y-53000000D02*
X57000000Y-53000000D01*
X55000000Y-47460000D02*
X55460000Y-47000000D01*
X48000000Y-52000000D02*
X48000000Y-51000000D01*
D41*
X60530000Y-49030000D02*
X62130884Y-49030000D01*
X61180000Y-48500000D02*
X60000000Y-48500000D01*
D40*
X48000000Y-51000000D02*
X48500000Y-50500000D01*
D41*
X61025000Y-51500000D02*
X60000000Y-51500000D01*
%TO.N,/IO0*%
X57000000Y-59000000D02*
X55850000Y-57850000D01*
X51650000Y-57850000D02*
X55850000Y-57850000D01*
X62570000Y-59000000D02*
X57000000Y-59000000D01*
X43200000Y-62000000D02*
X43905000Y-61295000D01*
X43905000Y-61295000D02*
X45000000Y-61295000D01*
X48788154Y-58500000D02*
X45993154Y-61295000D01*
X51000000Y-58500000D02*
X51650000Y-57850000D01*
X51000000Y-58500000D02*
X48788154Y-58500000D01*
X65490000Y-61920000D02*
X62570000Y-59000000D01*
X45993154Y-61295000D02*
X45000000Y-61295000D01*
%TO.N,/EN*%
X43000000Y-42000000D02*
X43000000Y-44800000D01*
X79460000Y-45470000D02*
X79460000Y-44420000D01*
X72500000Y-48500000D02*
X76430000Y-48500000D01*
X68000000Y-54500000D02*
X68000000Y-53000000D01*
X76430000Y-48500000D02*
X79460000Y-45470000D01*
X45000000Y-47000000D02*
X45000000Y-46500000D01*
X45000000Y-47000000D02*
X44500000Y-47500000D01*
X43200000Y-45000000D02*
X43500000Y-45000000D01*
X43000000Y-44800000D02*
X43200000Y-45000000D01*
X43500000Y-45000000D02*
X45000000Y-46500000D01*
X79460000Y-43100000D02*
X79460000Y-44420000D01*
X81560000Y-41000000D02*
X79460000Y-43100000D01*
X68000000Y-53000000D02*
X72500000Y-48500000D01*
%TO.N,Net-(Q2-B)*%
X60000000Y-59700000D02*
X60100000Y-59800000D01*
X60100000Y-59800000D02*
X60100000Y-61000000D01*
X63000000Y-54000000D02*
X62000000Y-53000000D01*
X63000000Y-58000000D02*
X63000000Y-54000000D01*
%TO.N,/DTR*%
X54000000Y-57000000D02*
X53365000Y-56365000D01*
X60000000Y-58100000D02*
X57600000Y-58100000D01*
X57600000Y-58100000D02*
X56500000Y-57000000D01*
X60912500Y-62087500D02*
X62000000Y-61000000D01*
X53365000Y-56365000D02*
X53365000Y-55525000D01*
X56500000Y-57000000D02*
X54000000Y-57000000D01*
X60912500Y-63000000D02*
X60912500Y-62087500D01*
X62000000Y-61000000D02*
X62000000Y-60000000D01*
%TO.N,Net-(D3-A)*%
X62150000Y-50000000D02*
X62150000Y-51015000D01*
X62150000Y-51015000D02*
X61665000Y-51500000D01*
%TO.N,VBUS*%
X44770305Y-56165000D02*
X44169695Y-56165000D01*
X48000000Y-49500000D02*
X48000000Y-47500000D01*
X45055305Y-51550000D02*
X45915000Y-51550000D01*
X47500000Y-51000000D02*
X47500000Y-50000000D01*
X45915000Y-51550000D02*
X46950000Y-51550000D01*
X43500000Y-52500000D02*
X44105305Y-52500000D01*
X43000000Y-55000000D02*
X43000000Y-53000000D01*
X45915000Y-56450000D02*
X45055305Y-56450000D01*
X44105305Y-52500000D02*
X45055305Y-51550000D01*
X47500000Y-50000000D02*
X48000000Y-49500000D01*
X46950000Y-51550000D02*
X47500000Y-51000000D01*
X45055305Y-56450000D02*
X44770305Y-56165000D01*
X43000000Y-53000000D02*
X43500000Y-52500000D01*
X44169695Y-56165000D02*
X44167347Y-56167347D01*
X44167347Y-56167347D02*
X43000000Y-55000000D01*
%TO.N,Net-(J1-CC1)*%
D40*
X47100000Y-52750000D02*
X48000000Y-53650000D01*
X45915000Y-52750000D02*
X47100000Y-52750000D01*
%TO.N,/D+*%
X44890000Y-54017590D02*
X44890000Y-54482410D01*
X55905000Y-60475000D02*
X55905000Y-58905000D01*
X55905000Y-58905000D02*
X55500000Y-58500000D01*
X45157590Y-54750000D02*
X45915000Y-54750000D01*
X44517590Y-54482410D02*
X44000000Y-55000000D01*
X45915000Y-53750000D02*
X45157590Y-53750000D01*
X44890000Y-54482410D02*
X44517590Y-54482410D01*
X44890000Y-54482410D02*
X45157590Y-54750000D01*
X45157590Y-53750000D02*
X44890000Y-54017590D01*
%TO.N,/D-*%
X46940000Y-53982410D02*
X46672410Y-54250000D01*
X54635000Y-59135000D02*
X54000000Y-58500000D01*
X44000000Y-53500000D02*
X44250000Y-53250000D01*
X46672410Y-53250000D02*
X46940000Y-53517590D01*
X45915000Y-53250000D02*
X46672410Y-53250000D01*
X46672410Y-54250000D02*
X45915000Y-54250000D01*
X46940000Y-53517590D02*
X46940000Y-53982410D01*
X54635000Y-60475000D02*
X54635000Y-59135000D01*
X44000000Y-54000000D02*
X44000000Y-53500000D01*
X44250000Y-53250000D02*
X45915000Y-53250000D01*
%TO.N,Net-(J1-CC2)*%
D41*
X48000000Y-56262500D02*
X47487500Y-55750000D01*
X47487500Y-55750000D02*
X45915000Y-55750000D01*
%TO.N,+5V*%
D39*
X57250000Y-49750000D02*
X56000000Y-51000000D01*
X56000000Y-51000000D02*
X55300000Y-51000000D01*
X59675000Y-47675000D02*
X60350000Y-47000000D01*
X48000000Y-45500000D02*
X48000000Y-44200000D01*
X55000000Y-51300000D02*
X55000000Y-53000000D01*
X55300000Y-51000000D02*
X55000000Y-51300000D01*
%TO.N,/D13*%
D41*
X64510000Y-49000000D02*
X65500000Y-49000000D01*
X64240000Y-48730000D02*
X64510000Y-49000000D01*
%TO.N,/D12*%
X62920000Y-44420000D02*
X62500000Y-44000000D01*
X65490000Y-44420000D02*
X62920000Y-44420000D01*
%TO.N,/D14*%
X64690000Y-45520000D02*
X66290000Y-45520000D01*
X66290000Y-45520000D02*
X66760000Y-45050000D01*
X60407107Y-42907107D02*
X63000000Y-45500000D01*
X66760000Y-45050000D02*
X66760000Y-44420000D01*
X56160000Y-41000000D02*
X58067107Y-42907107D01*
X58067107Y-42907107D02*
X60407107Y-42907107D01*
X64690000Y-45500000D02*
X64690000Y-45520000D01*
X63000000Y-45500000D02*
X64690000Y-45500000D01*
%TO.N,/D27*%
X60107107Y-42407107D02*
X58700000Y-41000000D01*
X64700000Y-42700000D02*
X62232894Y-42700000D01*
X62232894Y-42700000D02*
X61940000Y-42407107D01*
X61940000Y-42407107D02*
X60107107Y-42407107D01*
X65200000Y-43200000D02*
X64700000Y-42700000D01*
X68030000Y-44420000D02*
X68030000Y-43988377D01*
X67241623Y-43200000D02*
X65200000Y-43200000D01*
X68030000Y-43988377D02*
X67241623Y-43200000D01*
%TO.N,/D26*%
X69292893Y-43700000D02*
X69300000Y-43700000D01*
X67448731Y-42700000D02*
X67948730Y-43200000D01*
X61240000Y-41000000D02*
X62440000Y-42200000D01*
X65615837Y-42700000D02*
X67448731Y-42700000D01*
X62440000Y-42200000D02*
X65115837Y-42200000D01*
X65115837Y-42200000D02*
X65615837Y-42700000D01*
X67948730Y-43200000D02*
X68792893Y-43200000D01*
X68792893Y-43200000D02*
X69292893Y-43700000D01*
X69300000Y-43700000D02*
X69300000Y-44420000D01*
%TO.N,/D25*%
X69500000Y-43200000D02*
X69000000Y-42700000D01*
X65822943Y-42200000D02*
X64622943Y-41000000D01*
X70570000Y-43370000D02*
X70400000Y-43200000D01*
X67655837Y-42200000D02*
X65822943Y-42200000D01*
X70570000Y-44420000D02*
X70570000Y-43370000D01*
X69000000Y-42700000D02*
X68155837Y-42700000D01*
X68155837Y-42700000D02*
X67655837Y-42200000D01*
X64622943Y-41000000D02*
X63780000Y-41000000D01*
X70400000Y-43200000D02*
X69500000Y-43200000D01*
%TO.N,/D33*%
X67162943Y-41000000D02*
X66320000Y-41000000D01*
X68362943Y-42200000D02*
X67162943Y-41000000D01*
X69207106Y-42200000D02*
X68362943Y-42200000D01*
X69707106Y-42700000D02*
X69207106Y-42200000D01*
X69707106Y-42700000D02*
X70947107Y-42700000D01*
X70947107Y-42700000D02*
X71840000Y-43592893D01*
X71840000Y-43592893D02*
X71840000Y-44420000D01*
%TO.N,/D32*%
X73110000Y-43017106D02*
X73110000Y-44420000D01*
X68860000Y-41000000D02*
X70060000Y-42200000D01*
X72292894Y-42200000D02*
X73110000Y-43017106D01*
X70060000Y-42200000D02*
X72292894Y-42200000D01*
%TO.N,/D35*%
X74380000Y-42620000D02*
X74380000Y-44420000D01*
X73960000Y-42200000D02*
X74380000Y-42620000D01*
X73000000Y-42200000D02*
X73960000Y-42200000D01*
X71800000Y-41000000D02*
X73000000Y-42200000D01*
X71400000Y-41000000D02*
X71800000Y-41000000D01*
%TO.N,/D34*%
X75650000Y-42710000D02*
X75650000Y-44420000D01*
X73940000Y-41000000D02*
X75650000Y-42710000D01*
%TO.N,/VN*%
X76480000Y-41000000D02*
X77000000Y-41520000D01*
X77000000Y-44340000D02*
X76920000Y-44420000D01*
X77000000Y-41520000D02*
X77000000Y-44340000D01*
%TO.N,/VP*%
X78190000Y-41830000D02*
X79020000Y-41000000D01*
X78190000Y-44420000D02*
X78190000Y-41830000D01*
%TO.N,Net-(U3-V3)*%
X53365000Y-59500001D02*
X52864999Y-59000000D01*
X49295000Y-59000000D02*
X47000000Y-61295000D01*
X53365000Y-60475000D02*
X53365000Y-59500001D01*
X52864999Y-59000000D02*
X49295000Y-59000000D01*
%TO.N,/D15*%
X65880000Y-57620000D02*
X64240000Y-57620000D01*
X66000000Y-57500000D02*
X65880000Y-57620000D01*
%TO.N,/D2*%
X59500000Y-50000000D02*
X60500000Y-50000000D01*
X64500000Y-60000000D02*
X64500000Y-59150000D01*
X58500000Y-51000000D02*
X59500000Y-50000000D01*
X58500000Y-52000000D02*
X58500000Y-51000000D01*
X64500000Y-59150000D02*
X64240000Y-58890000D01*
%TO.N,/D4*%
X66760000Y-61240000D02*
X67500000Y-60500000D01*
X66760000Y-61920000D02*
X66760000Y-61240000D01*
X56160000Y-66000000D02*
X57500000Y-64660000D01*
X57500000Y-64660000D02*
X57500000Y-63500000D01*
%TO.N,/RXD2*%
X67855635Y-63144365D02*
X62398578Y-63144365D01*
X59542943Y-66000000D02*
X58700000Y-66000000D01*
X68030000Y-62970000D02*
X67855635Y-63144365D01*
X62398578Y-63144365D02*
X59542943Y-66000000D01*
X68030000Y-61920000D02*
X68030000Y-62970000D01*
%TO.N,/TXD2*%
X69000000Y-63644365D02*
X65355635Y-63644365D01*
X69300000Y-61920000D02*
X69300000Y-63344365D01*
X64500000Y-64500000D02*
X62740000Y-64500000D01*
X65355635Y-63644365D02*
X64500000Y-64500000D01*
X69300000Y-63344365D02*
X69000000Y-63644365D01*
X62740000Y-64500000D02*
X61240000Y-66000000D01*
%TO.N,/D5*%
X70570000Y-63718729D02*
X70144365Y-64144365D01*
X70570000Y-61920000D02*
X70570000Y-63718729D01*
X65635635Y-64144365D02*
X63780000Y-66000000D01*
X70144365Y-64144365D02*
X65635635Y-64144365D01*
%TO.N,/D18*%
X71840000Y-61920000D02*
X72000000Y-62080000D01*
X67572081Y-64747919D02*
X66320000Y-66000000D01*
X71792894Y-64000000D02*
X70995836Y-64000000D01*
X72000000Y-62080000D02*
X72000000Y-63792894D01*
X70995836Y-64000000D02*
X70247918Y-64747919D01*
X72000000Y-63792894D02*
X71792894Y-64000000D01*
X70247918Y-64747919D02*
X67572081Y-64747919D01*
%TO.N,/D19*%
X72000000Y-64500000D02*
X73110000Y-63390000D01*
X71202943Y-64500000D02*
X72000000Y-64500000D01*
X68860000Y-66000000D02*
X69702943Y-66000000D01*
X69702943Y-66000000D02*
X71202943Y-64500000D01*
X73110000Y-63390000D02*
X73110000Y-61920000D01*
%TO.N,/D21*%
X72600000Y-64800000D02*
X74200000Y-64800000D01*
X75650000Y-63350000D02*
X75650000Y-61920000D01*
X71400000Y-66000000D02*
X72600000Y-64800000D01*
X74200000Y-64800000D02*
X75650000Y-63350000D01*
%TO.N,/RXD*%
X50825000Y-61325000D02*
X50825000Y-60475000D01*
X55000000Y-63500000D02*
X54000000Y-63500000D01*
X76920000Y-63020000D02*
X76920000Y-61920000D01*
X73940000Y-66000000D02*
X76920000Y-63020000D01*
X53000000Y-62500000D02*
X52000000Y-62500000D01*
X52000000Y-62500000D02*
X50825000Y-61325000D01*
X54000000Y-63500000D02*
X53000000Y-62500000D01*
%TO.N,/TXD*%
X78190000Y-61920000D02*
X78190000Y-63810000D01*
X52645001Y-62000000D02*
X52095000Y-61449999D01*
X76480000Y-65520000D02*
X76480000Y-66000000D01*
X52095000Y-61449999D02*
X52095000Y-60475000D01*
X54500000Y-62000000D02*
X52645001Y-62000000D01*
X55837133Y-63337132D02*
X54500000Y-62000000D01*
X78190000Y-63810000D02*
X76480000Y-65520000D01*
%TO.N,/D22*%
X79020000Y-66000000D02*
X79020000Y-62360000D01*
X79020000Y-62360000D02*
X79460000Y-61920000D01*
%TO.N,/D23*%
X80730000Y-65170000D02*
X81560000Y-66000000D01*
X80730000Y-61920000D02*
X80730000Y-65170000D01*
%TO.N,/RTS*%
X52095000Y-55525000D02*
X52095000Y-55108738D01*
X52095000Y-55108738D02*
X53003738Y-54200000D01*
X59187500Y-54200000D02*
X60050000Y-55062500D01*
X60050000Y-55062500D02*
X60050000Y-53300000D01*
X53003738Y-54200000D02*
X59187500Y-54200000D01*
X60050000Y-53300000D02*
X60350000Y-53000000D01*
%TO.N,Net-(Q1-B)*%
X62000000Y-55125000D02*
X62062500Y-55062500D01*
X59170000Y-62170000D02*
X59262500Y-62262500D01*
X62000000Y-58000000D02*
X62000000Y-55125000D01*
X59170000Y-61000000D02*
X59170000Y-62170000D01*
X59262500Y-62262500D02*
X59262500Y-63000000D01*
X62062500Y-55062500D02*
X61950000Y-55062500D01*
%TO.N,Net-(D2-A)*%
X61820000Y-48500000D02*
X61820000Y-47180000D01*
X61820000Y-47180000D02*
X62000000Y-47000000D01*
%TD*%
%TA.AperFunction,Conductor*%
%TO.N,+3V3*%
G36*
X56406454Y-43514995D02*
G01*
X56433770Y-43520934D01*
X56436718Y-43523881D01*
X56441157Y-43525185D01*
X56467756Y-43548210D01*
X56467993Y-43548483D01*
X56474689Y-43561844D01*
X56483181Y-43570334D01*
X56495518Y-43603402D01*
X56497163Y-43610960D01*
X56500000Y-43637331D01*
X56500000Y-45467005D01*
X56498738Y-45484651D01*
X56494500Y-45514126D01*
X56494500Y-46273618D01*
X56494484Y-46273672D01*
X56494500Y-46273727D01*
X56484624Y-46307248D01*
X56474815Y-46340657D01*
X56474766Y-46340712D01*
X56474756Y-46340749D01*
X56451620Y-46367402D01*
X56451346Y-46367639D01*
X56396597Y-46395018D01*
X56389039Y-46396663D01*
X56362668Y-46399500D01*
X55380940Y-46399500D01*
X55234968Y-46438611D01*
X55234940Y-46438621D01*
X55228215Y-46440423D01*
X55228214Y-46440423D01*
X55228212Y-46440424D01*
X55228209Y-46440425D01*
X55225413Y-46442038D01*
X55225408Y-46442041D01*
X55173539Y-46471990D01*
X55173532Y-46471994D01*
X55149158Y-46486064D01*
X55149159Y-46486065D01*
X55091289Y-46519475D01*
X54997944Y-46612820D01*
X54969689Y-46633970D01*
X54940593Y-46649857D01*
X54905360Y-46662641D01*
X54766513Y-46690259D01*
X54766504Y-46690262D01*
X54766498Y-46690264D01*
X54766493Y-46690265D01*
X54766475Y-46690272D01*
X54620833Y-46750598D01*
X54620824Y-46750603D01*
X54620807Y-46750613D01*
X54489708Y-46838211D01*
X54394795Y-46933124D01*
X54386552Y-46940656D01*
X54351553Y-46969856D01*
X54297359Y-46996045D01*
X54290828Y-46997403D01*
X54265584Y-47000000D01*
X54000000Y-47000000D01*
X54000000Y-48576877D01*
X53998738Y-48594523D01*
X53994500Y-48623998D01*
X53994500Y-49419894D01*
X53995144Y-49445426D01*
X53995773Y-49457896D01*
X53997703Y-49483343D01*
X53998420Y-49487789D01*
X54000000Y-49507521D01*
X54000000Y-51858170D01*
X53999999Y-51858176D01*
X54000000Y-51858179D01*
X53994975Y-51893114D01*
X53990570Y-51908112D01*
X53952827Y-51966855D01*
X53952792Y-51966885D01*
X53952791Y-51966887D01*
X53952789Y-51966887D01*
X53951458Y-51968042D01*
X53896597Y-51995518D01*
X53889039Y-51997163D01*
X53862668Y-52000000D01*
X52141830Y-52000000D01*
X52141825Y-51999999D01*
X52141823Y-52000000D01*
X52106889Y-51994975D01*
X52091890Y-51990570D01*
X52033144Y-51952827D01*
X52033115Y-51952793D01*
X52033114Y-51952793D01*
X52033113Y-51952791D01*
X52031957Y-51951458D01*
X52004477Y-51896583D01*
X52002832Y-51889021D01*
X52000000Y-51862668D01*
X52000000Y-51434391D01*
X52001262Y-51416744D01*
X52005500Y-51387269D01*
X52005500Y-48624000D01*
X52000710Y-48579446D01*
X52000000Y-48566193D01*
X52000000Y-47000000D01*
X49641830Y-47000000D01*
X49641825Y-46999999D01*
X49641823Y-47000000D01*
X49606889Y-46994975D01*
X49591890Y-46990570D01*
X49533144Y-46952827D01*
X49533115Y-46952793D01*
X49533114Y-46952793D01*
X49533113Y-46952791D01*
X49531957Y-46951458D01*
X49504477Y-46896583D01*
X49502832Y-46889021D01*
X49500000Y-46862668D01*
X49500000Y-46633042D01*
X49501262Y-46615395D01*
X49501632Y-46612820D01*
X49505500Y-46585920D01*
X49505500Y-45114079D01*
X49500650Y-45066901D01*
X49500000Y-45054220D01*
X49500000Y-43641829D01*
X49505023Y-43606895D01*
X49508643Y-43594566D01*
X49546416Y-43535788D01*
X49609972Y-43506762D01*
X49627620Y-43505500D01*
X56374118Y-43505500D01*
X56406454Y-43514995D01*
G37*
%TD.AperFunction*%
%TD*%
%TA.AperFunction,Conductor*%
%TO.N,GND*%
G36*
X44876936Y-39520185D02*
G01*
X44922691Y-39572989D01*
X44932635Y-39642147D01*
X44903610Y-39705703D01*
X44884208Y-39723766D01*
X44792455Y-39792452D01*
X44792452Y-39792455D01*
X44706206Y-39907664D01*
X44706202Y-39907671D01*
X44655908Y-40042517D01*
X44649501Y-40102116D01*
X44649501Y-40102123D01*
X44649500Y-40102135D01*
X44649500Y-41897870D01*
X44649501Y-41897876D01*
X44655908Y-41957483D01*
X44706202Y-42092328D01*
X44706206Y-42092335D01*
X44792452Y-42207544D01*
X44792455Y-42207547D01*
X44907664Y-42293793D01*
X44907671Y-42293797D01*
X45042517Y-42344091D01*
X45042516Y-42344091D01*
X45049444Y-42344835D01*
X45102127Y-42350500D01*
X46897872Y-42350499D01*
X46957483Y-42344091D01*
X47092331Y-42293796D01*
X47207546Y-42207546D01*
X47293796Y-42092331D01*
X47344091Y-41957483D01*
X47350500Y-41897873D01*
X47350499Y-40102128D01*
X47344091Y-40042517D01*
X47293796Y-39907669D01*
X47293795Y-39907668D01*
X47293793Y-39907664D01*
X47207547Y-39792455D01*
X47207544Y-39792452D01*
X47115792Y-39723766D01*
X47073921Y-39667832D01*
X47068937Y-39598141D01*
X47102423Y-39536818D01*
X47163746Y-39503334D01*
X47190103Y-39500500D01*
X50541774Y-39500500D01*
X50608813Y-39520185D01*
X50654568Y-39572989D01*
X50664512Y-39642147D01*
X50635487Y-39705703D01*
X50580093Y-39742430D01*
X50561588Y-39748443D01*
X50561585Y-39748444D01*
X50372179Y-39844951D01*
X50200213Y-39969890D01*
X50049890Y-40120213D01*
X49924951Y-40292179D01*
X49828444Y-40481585D01*
X49762753Y-40683760D01*
X49729500Y-40893713D01*
X49729500Y-41106286D01*
X49758619Y-41290140D01*
X49762754Y-41316243D01*
X49773684Y-41349883D01*
X49828444Y-41518414D01*
X49924951Y-41707820D01*
X50049890Y-41879786D01*
X50200213Y-42030109D01*
X50372179Y-42155048D01*
X50372181Y-42155049D01*
X50372184Y-42155051D01*
X50561588Y-42251557D01*
X50763757Y-42317246D01*
X50973713Y-42350500D01*
X50973714Y-42350500D01*
X51186286Y-42350500D01*
X51186287Y-42350500D01*
X51396243Y-42317246D01*
X51598412Y-42251557D01*
X51787816Y-42155051D01*
X51809789Y-42139086D01*
X51959786Y-42030109D01*
X51959788Y-42030106D01*
X51959792Y-42030104D01*
X52110104Y-41879792D01*
X52110106Y-41879788D01*
X52110109Y-41879786D01*
X52235048Y-41707820D01*
X52235047Y-41707820D01*
X52235051Y-41707816D01*
X52239514Y-41699054D01*
X52287488Y-41648259D01*
X52355308Y-41631463D01*
X52421444Y-41653999D01*
X52460486Y-41699056D01*
X52464951Y-41707820D01*
X52589890Y-41879786D01*
X52740213Y-42030109D01*
X52912179Y-42155048D01*
X52912181Y-42155049D01*
X52912184Y-42155051D01*
X53101588Y-42251557D01*
X53303757Y-42317246D01*
X53513713Y-42350500D01*
X53513714Y-42350500D01*
X53726286Y-42350500D01*
X53726287Y-42350500D01*
X53936243Y-42317246D01*
X54138412Y-42251557D01*
X54327816Y-42155051D01*
X54349789Y-42139086D01*
X54499786Y-42030109D01*
X54499788Y-42030106D01*
X54499792Y-42030104D01*
X54650104Y-41879792D01*
X54650106Y-41879788D01*
X54650109Y-41879786D01*
X54775048Y-41707820D01*
X54775047Y-41707820D01*
X54775051Y-41707816D01*
X54779514Y-41699054D01*
X54827488Y-41648259D01*
X54895308Y-41631463D01*
X54961444Y-41653999D01*
X55000486Y-41699056D01*
X55004951Y-41707820D01*
X55129890Y-41879786D01*
X55280213Y-42030109D01*
X55452179Y-42155048D01*
X55452181Y-42155049D01*
X55452184Y-42155051D01*
X55641588Y-42251557D01*
X55843757Y-42317246D01*
X56053713Y-42350500D01*
X56053714Y-42350500D01*
X56266286Y-42350500D01*
X56266287Y-42350500D01*
X56447112Y-42321860D01*
X56481055Y-42316484D01*
X56481315Y-42318128D01*
X56543852Y-42321250D01*
X56590711Y-42350657D01*
X57028373Y-42788319D01*
X57061858Y-42849642D01*
X57056874Y-42919334D01*
X57015002Y-42975267D01*
X56949538Y-42999684D01*
X56940692Y-43000000D01*
X49000000Y-43000000D01*
X49000000Y-43285920D01*
X48980315Y-43352959D01*
X48927511Y-43398714D01*
X48858353Y-43408658D01*
X48810903Y-43391459D01*
X48683699Y-43312998D01*
X48683694Y-43312996D01*
X48522709Y-43259651D01*
X48423346Y-43249500D01*
X47576662Y-43249500D01*
X47576644Y-43249501D01*
X47477292Y-43259650D01*
X47477289Y-43259651D01*
X47316305Y-43312996D01*
X47316294Y-43313001D01*
X47171959Y-43402029D01*
X47171955Y-43402032D01*
X47052032Y-43521955D01*
X47052029Y-43521959D01*
X46963001Y-43666294D01*
X46959947Y-43672846D01*
X46958465Y-43672155D01*
X46923651Y-43722418D01*
X46859130Y-43749228D01*
X46790357Y-43736900D01*
X46739166Y-43689348D01*
X46731178Y-43673414D01*
X46709394Y-43620821D01*
X46709392Y-43620818D01*
X46709390Y-43620814D01*
X46621789Y-43489711D01*
X46621786Y-43489707D01*
X46510292Y-43378213D01*
X46510288Y-43378210D01*
X46379185Y-43290609D01*
X46379172Y-43290602D01*
X46233501Y-43230264D01*
X46233489Y-43230261D01*
X46078845Y-43199500D01*
X46078842Y-43199500D01*
X45921158Y-43199500D01*
X45921155Y-43199500D01*
X45766510Y-43230261D01*
X45766498Y-43230264D01*
X45620827Y-43290602D01*
X45620814Y-43290609D01*
X45489711Y-43378210D01*
X45489707Y-43378213D01*
X45378213Y-43489707D01*
X45378207Y-43489715D01*
X45290607Y-43620818D01*
X45290606Y-43620819D01*
X45280805Y-43644480D01*
X45253927Y-43684703D01*
X45025449Y-43913182D01*
X44964129Y-43946666D01*
X44937770Y-43949500D01*
X44668384Y-43949500D01*
X44649145Y-43951248D01*
X44597807Y-43955913D01*
X44435393Y-44006522D01*
X44289811Y-44094530D01*
X44283906Y-44099157D01*
X44282894Y-44097865D01*
X44229453Y-44127039D01*
X44159762Y-44122047D01*
X44103833Y-44080169D01*
X44084725Y-44042762D01*
X44043478Y-43910394D01*
X43955472Y-43764815D01*
X43955470Y-43764813D01*
X43955469Y-43764811D01*
X43835189Y-43644531D01*
X43835185Y-43644528D01*
X43710349Y-43569061D01*
X43663162Y-43517533D01*
X43650500Y-43462945D01*
X43650500Y-42616324D01*
X43670185Y-42549285D01*
X43676520Y-42540324D01*
X43680111Y-42535692D01*
X43680117Y-42535687D01*
X43762494Y-42396395D01*
X43804574Y-42251557D01*
X43807642Y-42240997D01*
X43807643Y-42240991D01*
X43810499Y-42204697D01*
X43810500Y-42204690D01*
X43810500Y-41795310D01*
X43807643Y-41759007D01*
X43792770Y-41707816D01*
X43770588Y-41631463D01*
X43762494Y-41603605D01*
X43680117Y-41464313D01*
X43680115Y-41464311D01*
X43680112Y-41464307D01*
X43565692Y-41349887D01*
X43565684Y-41349881D01*
X43426393Y-41267505D01*
X43426390Y-41267504D01*
X43270997Y-41222357D01*
X43270991Y-41222356D01*
X43234697Y-41219500D01*
X43234690Y-41219500D01*
X42765310Y-41219500D01*
X42765302Y-41219500D01*
X42729008Y-41222356D01*
X42729002Y-41222357D01*
X42573609Y-41267504D01*
X42573606Y-41267505D01*
X42434315Y-41349881D01*
X42434307Y-41349887D01*
X42319887Y-41464307D01*
X42319881Y-41464315D01*
X42237505Y-41603606D01*
X42237504Y-41603609D01*
X42192357Y-41759002D01*
X42192356Y-41759008D01*
X42189500Y-41795302D01*
X42189500Y-42204697D01*
X42192356Y-42240991D01*
X42192357Y-42240997D01*
X42237504Y-42396390D01*
X42237505Y-42396393D01*
X42319881Y-42535684D01*
X42323480Y-42540324D01*
X42349014Y-42605361D01*
X42349500Y-42616324D01*
X42349500Y-43914054D01*
X42343886Y-43950943D01*
X42342337Y-43955914D01*
X42305914Y-44072804D01*
X42300986Y-44127039D01*
X42299500Y-44143386D01*
X42299500Y-45856613D01*
X42305913Y-45927192D01*
X42305913Y-45927194D01*
X42305914Y-45927196D01*
X42356522Y-46089606D01*
X42436349Y-46221656D01*
X42444530Y-46235188D01*
X42564811Y-46355469D01*
X42564813Y-46355470D01*
X42564815Y-46355472D01*
X42710394Y-46443478D01*
X42872804Y-46494086D01*
X42943384Y-46500500D01*
X42943387Y-46500500D01*
X43456613Y-46500500D01*
X43456616Y-46500500D01*
X43527196Y-46494086D01*
X43689606Y-46443478D01*
X43814586Y-46367924D01*
X43842672Y-46360508D01*
X43869888Y-46350358D01*
X43876045Y-46351697D01*
X43882138Y-46350089D01*
X43909776Y-46359035D01*
X43938161Y-46365210D01*
X43945252Y-46370518D01*
X43948612Y-46371606D01*
X43966415Y-46386361D01*
X43988181Y-46408127D01*
X44021666Y-46469450D01*
X44024500Y-46495808D01*
X44024500Y-46756613D01*
X44030914Y-46827201D01*
X44031346Y-46829371D01*
X44031229Y-46830667D01*
X44031508Y-46833730D01*
X44030950Y-46833780D01*
X44025108Y-46898962D01*
X43997406Y-46941226D01*
X43917051Y-47021580D01*
X43917048Y-47021584D01*
X43834919Y-47144498D01*
X43834912Y-47144511D01*
X43778343Y-47281082D01*
X43778340Y-47281092D01*
X43749500Y-47426079D01*
X43749500Y-47426082D01*
X43749500Y-47573918D01*
X43749500Y-47573920D01*
X43749499Y-47573920D01*
X43778340Y-47718907D01*
X43778343Y-47718917D01*
X43834912Y-47855488D01*
X43834919Y-47855501D01*
X43917048Y-47978415D01*
X43917051Y-47978419D01*
X44021580Y-48082948D01*
X44021584Y-48082951D01*
X44144498Y-48165080D01*
X44144511Y-48165087D01*
X44270988Y-48217475D01*
X44281087Y-48221658D01*
X44281091Y-48221658D01*
X44281092Y-48221659D01*
X44426079Y-48250500D01*
X44426082Y-48250500D01*
X44573920Y-48250500D01*
X44671462Y-48231096D01*
X44718913Y-48221658D01*
X44855495Y-48165084D01*
X44978416Y-48082951D01*
X45082951Y-47978416D01*
X45165084Y-47855495D01*
X45221658Y-47718913D01*
X45221658Y-47718912D01*
X45223989Y-47713285D01*
X45224852Y-47713642D01*
X45252598Y-47667346D01*
X45505277Y-47414669D01*
X45519119Y-47393951D01*
X45529540Y-47378356D01*
X45568493Y-47341128D01*
X45584228Y-47331616D01*
X45710185Y-47255472D01*
X45830472Y-47135185D01*
X45918478Y-46989606D01*
X45969086Y-46827196D01*
X45975500Y-46756616D01*
X45975500Y-46243384D01*
X45969086Y-46172804D01*
X45918478Y-46010394D01*
X45830472Y-45864815D01*
X45830470Y-45864813D01*
X45830469Y-45864811D01*
X45728339Y-45762681D01*
X45694854Y-45701358D01*
X45699838Y-45631666D01*
X45728339Y-45587319D01*
X45830468Y-45485189D01*
X45830469Y-45485188D01*
X45830472Y-45485185D01*
X45918478Y-45339606D01*
X45969086Y-45177196D01*
X45973510Y-45128503D01*
X45999180Y-45063523D01*
X46009312Y-45052054D01*
X46315297Y-44746069D01*
X46355522Y-44719192D01*
X46379179Y-44709394D01*
X46510289Y-44621789D01*
X46621789Y-44510289D01*
X46674506Y-44431392D01*
X46728116Y-44386589D01*
X46797441Y-44377881D01*
X46860469Y-44408035D01*
X46897188Y-44467477D01*
X46900965Y-44487682D01*
X46909651Y-44572708D01*
X46909651Y-44572710D01*
X46962996Y-44733694D01*
X46963001Y-44733705D01*
X47052029Y-44878040D01*
X47052032Y-44878044D01*
X47171956Y-44997968D01*
X47190596Y-45009465D01*
X47237321Y-45061412D01*
X47249500Y-45115004D01*
X47249500Y-45426082D01*
X47249500Y-45573918D01*
X47249500Y-45573920D01*
X47249499Y-45573920D01*
X47278340Y-45718907D01*
X47278343Y-45718917D01*
X47334912Y-45855488D01*
X47334919Y-45855501D01*
X47417048Y-45978415D01*
X47417051Y-45978419D01*
X47521580Y-46082948D01*
X47521584Y-46082951D01*
X47644498Y-46165080D01*
X47644511Y-46165087D01*
X47770981Y-46217472D01*
X47781087Y-46221658D01*
X47781091Y-46221658D01*
X47781092Y-46221659D01*
X47926079Y-46250500D01*
X47926082Y-46250500D01*
X48073920Y-46250500D01*
X48171462Y-46231096D01*
X48218913Y-46221658D01*
X48342420Y-46170500D01*
X48355488Y-46165087D01*
X48355488Y-46165086D01*
X48355495Y-46165084D01*
X48478416Y-46082951D01*
X48582951Y-45978416D01*
X48665084Y-45855495D01*
X48721658Y-45718913D01*
X48740978Y-45621789D01*
X48750500Y-45573920D01*
X48750500Y-45115004D01*
X48753376Y-45105207D01*
X48752112Y-45095075D01*
X48763054Y-45072249D01*
X48770185Y-45047965D01*
X48778704Y-45039602D01*
X48782315Y-45032071D01*
X48809414Y-45009459D01*
X48810914Y-45008534D01*
X48878308Y-44990100D01*
X48944969Y-45011029D01*
X48989734Y-45064676D01*
X49000000Y-45114079D01*
X49000000Y-46585920D01*
X48980315Y-46652959D01*
X48927511Y-46698714D01*
X48858353Y-46708658D01*
X48810903Y-46691459D01*
X48683699Y-46612998D01*
X48683694Y-46612996D01*
X48522709Y-46559651D01*
X48423346Y-46549500D01*
X47576662Y-46549500D01*
X47576644Y-46549501D01*
X47477292Y-46559650D01*
X47477289Y-46559651D01*
X47316305Y-46612996D01*
X47316294Y-46613001D01*
X47171959Y-46702029D01*
X47171955Y-46702032D01*
X47052032Y-46821955D01*
X47052029Y-46821959D01*
X46963001Y-46966294D01*
X46962996Y-46966305D01*
X46909651Y-47127290D01*
X46899500Y-47226647D01*
X46899500Y-47773337D01*
X46899501Y-47773355D01*
X46909650Y-47872707D01*
X46909651Y-47872708D01*
X46962996Y-48033694D01*
X46963001Y-48033705D01*
X47052029Y-48178040D01*
X47052032Y-48178044D01*
X47171956Y-48297968D01*
X47290599Y-48371148D01*
X47337321Y-48423094D01*
X47349500Y-48476685D01*
X47349500Y-49179191D01*
X47329815Y-49246230D01*
X47313181Y-49266872D01*
X46994727Y-49585325D01*
X46994724Y-49585328D01*
X46931137Y-49680493D01*
X46931138Y-49680494D01*
X46923533Y-49691875D01*
X46874499Y-49810255D01*
X46874497Y-49810261D01*
X46849500Y-49935928D01*
X46849500Y-50661895D01*
X46829815Y-50728934D01*
X46777011Y-50774689D01*
X46707853Y-50784633D01*
X46690905Y-50780971D01*
X46592573Y-50752402D01*
X46592567Y-50752401D01*
X46555701Y-50749500D01*
X46555694Y-50749500D01*
X45274306Y-50749500D01*
X45274298Y-50749500D01*
X45237432Y-50752401D01*
X45237426Y-50752402D01*
X45072110Y-50800432D01*
X45071689Y-50798983D01*
X45011062Y-50806466D01*
X44948099Y-50776176D01*
X44932786Y-50759594D01*
X44930516Y-50756636D01*
X44823367Y-50649487D01*
X44823365Y-50649485D01*
X44729293Y-50595172D01*
X44692136Y-50573719D01*
X44618950Y-50554109D01*
X44545766Y-50534500D01*
X44394234Y-50534500D01*
X44247863Y-50573719D01*
X44116635Y-50649485D01*
X44116632Y-50649487D01*
X44009487Y-50756632D01*
X44009485Y-50756635D01*
X43933719Y-50887863D01*
X43909354Y-50978796D01*
X43894500Y-51034234D01*
X43894500Y-51185766D01*
X43907190Y-51233126D01*
X43933719Y-51332136D01*
X43965551Y-51387269D01*
X44009485Y-51463365D01*
X44009487Y-51463367D01*
X44028058Y-51481938D01*
X44032395Y-51489882D01*
X44039644Y-51495308D01*
X44048879Y-51520069D01*
X44061543Y-51543261D01*
X44060897Y-51552290D01*
X44064061Y-51560773D01*
X44058444Y-51586593D01*
X44056559Y-51612953D01*
X44050740Y-51622007D01*
X44049209Y-51629046D01*
X44028061Y-51657297D01*
X43872176Y-51813182D01*
X43810855Y-51846666D01*
X43784497Y-51849500D01*
X43435929Y-51849500D01*
X43310261Y-51874497D01*
X43310255Y-51874499D01*
X43191874Y-51923534D01*
X43085326Y-51994726D01*
X43085325Y-51994727D01*
X42494725Y-52585328D01*
X42494724Y-52585329D01*
X42441436Y-52665083D01*
X42441435Y-52665083D01*
X42423536Y-52691870D01*
X42423534Y-52691874D01*
X42374499Y-52810255D01*
X42374497Y-52810261D01*
X42349500Y-52935928D01*
X42349500Y-55064071D01*
X42369593Y-55165080D01*
X42371130Y-55172807D01*
X42374499Y-55189744D01*
X42423535Y-55308127D01*
X42463817Y-55368414D01*
X42494726Y-55414673D01*
X42494727Y-55414674D01*
X43131919Y-56051865D01*
X43707276Y-56627222D01*
X43752570Y-56672535D01*
X43752627Y-56672573D01*
X43752678Y-56672624D01*
X43805265Y-56707760D01*
X43805283Y-56707782D01*
X43805288Y-56707776D01*
X43805297Y-56707782D01*
X43839413Y-56730588D01*
X43884206Y-56784208D01*
X43894500Y-56833675D01*
X43894500Y-56965766D01*
X43902137Y-56994269D01*
X43933719Y-57112136D01*
X43959383Y-57156586D01*
X44009485Y-57243365D01*
X44116635Y-57350515D01*
X44247865Y-57426281D01*
X44394234Y-57465500D01*
X44394236Y-57465500D01*
X44545764Y-57465500D01*
X44545766Y-57465500D01*
X44692135Y-57426281D01*
X44823365Y-57350515D01*
X44930515Y-57243365D01*
X44930518Y-57243358D01*
X44932782Y-57240410D01*
X44935332Y-57238547D01*
X44936262Y-57237618D01*
X44936406Y-57237762D01*
X44989208Y-57199205D01*
X45058954Y-57195048D01*
X45077374Y-57201097D01*
X45237426Y-57247597D01*
X45237429Y-57247597D01*
X45237431Y-57247598D01*
X45274306Y-57250500D01*
X45274314Y-57250500D01*
X46555686Y-57250500D01*
X46555694Y-57250500D01*
X46592569Y-57247598D01*
X46592571Y-57247597D01*
X46592573Y-57247597D01*
X46668630Y-57225500D01*
X46750398Y-57201744D01*
X46891865Y-57118081D01*
X47008081Y-57001865D01*
X47025418Y-56972548D01*
X47076486Y-56924866D01*
X47145227Y-56912361D01*
X47209817Y-56939006D01*
X47219831Y-56947989D01*
X47289811Y-57017969D01*
X47289813Y-57017970D01*
X47289815Y-57017972D01*
X47435394Y-57105978D01*
X47597804Y-57156586D01*
X47668384Y-57163000D01*
X47668387Y-57163000D01*
X48331613Y-57163000D01*
X48331616Y-57163000D01*
X48402196Y-57156586D01*
X48564606Y-57105978D01*
X48710185Y-57017972D01*
X48754134Y-56974023D01*
X48815457Y-56940537D01*
X48885148Y-56945521D01*
X48941082Y-56987392D01*
X48944908Y-56992797D01*
X48966493Y-57025102D01*
X48972048Y-57033416D01*
X49253927Y-57315295D01*
X49280807Y-57355523D01*
X49290604Y-57379175D01*
X49290609Y-57379185D01*
X49378210Y-57510288D01*
X49378213Y-57510292D01*
X49489708Y-57621787D01*
X49490621Y-57622397D01*
X49490991Y-57622839D01*
X49494419Y-57625653D01*
X49493885Y-57626303D01*
X49535427Y-57676010D01*
X49544134Y-57745334D01*
X49513980Y-57808362D01*
X49454537Y-57845082D01*
X49421731Y-57849500D01*
X48724083Y-57849500D01*
X48598415Y-57874497D01*
X48598409Y-57874499D01*
X48480028Y-57923534D01*
X48373480Y-57994726D01*
X48373479Y-57994727D01*
X45760027Y-60608181D01*
X45733099Y-60622884D01*
X45707281Y-60639477D01*
X45701080Y-60640368D01*
X45698704Y-60641666D01*
X45672346Y-60644500D01*
X45598961Y-60644500D01*
X45535840Y-60627232D01*
X45534800Y-60626617D01*
X45426395Y-60562506D01*
X45426394Y-60562505D01*
X45426393Y-60562505D01*
X45426390Y-60562504D01*
X45270997Y-60517357D01*
X45270991Y-60517356D01*
X45234697Y-60514500D01*
X45234690Y-60514500D01*
X44765310Y-60514500D01*
X44765302Y-60514500D01*
X44729008Y-60517356D01*
X44729002Y-60517357D01*
X44573609Y-60562504D01*
X44573606Y-60562505D01*
X44545982Y-60578842D01*
X44465200Y-60626617D01*
X44464160Y-60627232D01*
X44401039Y-60644500D01*
X43869706Y-60644500D01*
X43805557Y-60626617D01*
X43689606Y-60556522D01*
X43527196Y-60505914D01*
X43527194Y-60505913D01*
X43527192Y-60505913D01*
X43477778Y-60501423D01*
X43456616Y-60499500D01*
X42943384Y-60499500D01*
X42924145Y-60501248D01*
X42872807Y-60505913D01*
X42710393Y-60556522D01*
X42564811Y-60644530D01*
X42444530Y-60764811D01*
X42356522Y-60910393D01*
X42305913Y-61072807D01*
X42300782Y-61129275D01*
X42299500Y-61143384D01*
X42299500Y-62856616D01*
X42299691Y-62858716D01*
X42305913Y-62927192D01*
X42305913Y-62927194D01*
X42305914Y-62927196D01*
X42353169Y-63078846D01*
X42356522Y-63089606D01*
X42444530Y-63235188D01*
X42564811Y-63355469D01*
X42564813Y-63355470D01*
X42564815Y-63355472D01*
X42710394Y-63443478D01*
X42872804Y-63494086D01*
X42943384Y-63500500D01*
X42943387Y-63500500D01*
X43456613Y-63500500D01*
X43456616Y-63500500D01*
X43527196Y-63494086D01*
X43689606Y-63443478D01*
X43835185Y-63355472D01*
X43955472Y-63235185D01*
X44043478Y-63089606D01*
X44094086Y-62927196D01*
X44100500Y-62856616D01*
X44100500Y-62070808D01*
X44109144Y-62041367D01*
X44115668Y-62011381D01*
X44119422Y-62006365D01*
X44120185Y-62003769D01*
X44136819Y-61983127D01*
X44138127Y-61981819D01*
X44199450Y-61948334D01*
X44225808Y-61945500D01*
X44401039Y-61945500D01*
X44464159Y-61962767D01*
X44573605Y-62027494D01*
X44614587Y-62039400D01*
X44729002Y-62072642D01*
X44729005Y-62072642D01*
X44729007Y-62072643D01*
X44765310Y-62075500D01*
X44765318Y-62075500D01*
X45234682Y-62075500D01*
X45234690Y-62075500D01*
X45270993Y-62072643D01*
X45270995Y-62072642D01*
X45270997Y-62072642D01*
X45311975Y-62060736D01*
X45426395Y-62027494D01*
X45535840Y-61962767D01*
X45598961Y-61945500D01*
X46057225Y-61945500D01*
X46141769Y-61928682D01*
X46182898Y-61920501D01*
X46266721Y-61885779D01*
X46336190Y-61878311D01*
X46398670Y-61909586D01*
X46401855Y-61912660D01*
X46434307Y-61945112D01*
X46434311Y-61945115D01*
X46434313Y-61945117D01*
X46573605Y-62027494D01*
X46614587Y-62039400D01*
X46729002Y-62072642D01*
X46729005Y-62072642D01*
X46729007Y-62072643D01*
X46765310Y-62075500D01*
X46765318Y-62075500D01*
X47234682Y-62075500D01*
X47234690Y-62075500D01*
X47270993Y-62072643D01*
X47270995Y-62072642D01*
X47270997Y-62072642D01*
X47311975Y-62060736D01*
X47426395Y-62027494D01*
X47565687Y-61945117D01*
X47680117Y-61830687D01*
X47762494Y-61691395D01*
X47807643Y-61535993D01*
X47810500Y-61499690D01*
X47810500Y-61455807D01*
X47830185Y-61388768D01*
X47846819Y-61368126D01*
X49528126Y-59686819D01*
X49589449Y-59653334D01*
X49615807Y-59650500D01*
X49900500Y-59650500D01*
X49967539Y-59670185D01*
X50013294Y-59722989D01*
X50024500Y-59774500D01*
X50024500Y-61365701D01*
X50027401Y-61402567D01*
X50027402Y-61402573D01*
X50073254Y-61560393D01*
X50073255Y-61560396D01*
X50073256Y-61560398D01*
X50092077Y-61592222D01*
X50156917Y-61701862D01*
X50156923Y-61701870D01*
X50273129Y-61818076D01*
X50273133Y-61818079D01*
X50273135Y-61818081D01*
X50414602Y-61901744D01*
X50478741Y-61920378D01*
X50531827Y-61951773D01*
X51585325Y-63005272D01*
X51585328Y-63005275D01*
X51679543Y-63068227D01*
X51682676Y-63070320D01*
X51691873Y-63076465D01*
X51810256Y-63125501D01*
X51810260Y-63125501D01*
X51810261Y-63125502D01*
X51935928Y-63150500D01*
X51935931Y-63150500D01*
X52679192Y-63150500D01*
X52746231Y-63170185D01*
X52766873Y-63186819D01*
X53585325Y-64005272D01*
X53585332Y-64005278D01*
X53691863Y-64076459D01*
X53691867Y-64076461D01*
X53691874Y-64076466D01*
X53751156Y-64101021D01*
X53751157Y-64101021D01*
X53751158Y-64101022D01*
X53780513Y-64113181D01*
X53810256Y-64125501D01*
X53810260Y-64125501D01*
X53810261Y-64125502D01*
X53935928Y-64150500D01*
X53935931Y-64150500D01*
X54064069Y-64150500D01*
X54586160Y-64150500D01*
X54638520Y-64163614D01*
X54638878Y-64162753D01*
X54644504Y-64165083D01*
X54644505Y-64165084D01*
X54781087Y-64221658D01*
X54781091Y-64221658D01*
X54781092Y-64221659D01*
X54926079Y-64250500D01*
X54926082Y-64250500D01*
X55073920Y-64250500D01*
X55171462Y-64231096D01*
X55218913Y-64221658D01*
X55355495Y-64165084D01*
X55478416Y-64082951D01*
X55478418Y-64082948D01*
X55483120Y-64079090D01*
X55483996Y-64080158D01*
X55539168Y-64050023D01*
X55608860Y-64054998D01*
X55613003Y-64056629D01*
X55618216Y-64058789D01*
X55618224Y-64058791D01*
X55763212Y-64087632D01*
X55763215Y-64087632D01*
X55911053Y-64087632D01*
X56008595Y-64068228D01*
X56056046Y-64058790D01*
X56192628Y-64002216D01*
X56315549Y-63920083D01*
X56420084Y-63815548D01*
X56502217Y-63692627D01*
X56502218Y-63692623D01*
X56505366Y-63687913D01*
X56558978Y-63643107D01*
X56628303Y-63634400D01*
X56691331Y-63664554D01*
X56728051Y-63723997D01*
X56730085Y-63732604D01*
X56730261Y-63733491D01*
X56730264Y-63733501D01*
X56790602Y-63879172D01*
X56790606Y-63879179D01*
X56828602Y-63936044D01*
X56849480Y-64002721D01*
X56849500Y-64004935D01*
X56849500Y-64339192D01*
X56829815Y-64406231D01*
X56813181Y-64426873D01*
X56590711Y-64649342D01*
X56529388Y-64682827D01*
X56481244Y-64682317D01*
X56481055Y-64683516D01*
X56339494Y-64661095D01*
X56266287Y-64649500D01*
X56053713Y-64649500D01*
X56005042Y-64657208D01*
X55843760Y-64682753D01*
X55641585Y-64748444D01*
X55452179Y-64844951D01*
X55280213Y-64969890D01*
X55129890Y-65120213D01*
X55004949Y-65292182D01*
X55000484Y-65300946D01*
X54952509Y-65351742D01*
X54884688Y-65368536D01*
X54818553Y-65345998D01*
X54779516Y-65300946D01*
X54775050Y-65292182D01*
X54650109Y-65120213D01*
X54499786Y-64969890D01*
X54327820Y-64844951D01*
X54138414Y-64748444D01*
X54138413Y-64748443D01*
X54138412Y-64748443D01*
X53936243Y-64682754D01*
X53936241Y-64682753D01*
X53936240Y-64682753D01*
X53774957Y-64657208D01*
X53726287Y-64649500D01*
X53513713Y-64649500D01*
X53465042Y-64657208D01*
X53303760Y-64682753D01*
X53101585Y-64748444D01*
X52912179Y-64844951D01*
X52740213Y-64969890D01*
X52589890Y-65120213D01*
X52464949Y-65292182D01*
X52460484Y-65300946D01*
X52412509Y-65351742D01*
X52344688Y-65368536D01*
X52278553Y-65345998D01*
X52239516Y-65300946D01*
X52235050Y-65292182D01*
X52110109Y-65120213D01*
X51959786Y-64969890D01*
X51787820Y-64844951D01*
X51598414Y-64748444D01*
X51598413Y-64748443D01*
X51598412Y-64748443D01*
X51396243Y-64682754D01*
X51396241Y-64682753D01*
X51396240Y-64682753D01*
X51234957Y-64657208D01*
X51186287Y-64649500D01*
X50973713Y-64649500D01*
X50925042Y-64657208D01*
X50763760Y-64682753D01*
X50561585Y-64748444D01*
X50372179Y-64844951D01*
X50200213Y-64969890D01*
X50049890Y-65120213D01*
X49924951Y-65292179D01*
X49828444Y-65481585D01*
X49762753Y-65683760D01*
X49729500Y-65893713D01*
X49729500Y-66106286D01*
X49758619Y-66290140D01*
X49762754Y-66316243D01*
X49824175Y-66505277D01*
X49828444Y-66518414D01*
X49924951Y-66707820D01*
X50049890Y-66879786D01*
X50200213Y-67030109D01*
X50372179Y-67155048D01*
X50372181Y-67155049D01*
X50372184Y-67155051D01*
X50561588Y-67251557D01*
X50580092Y-67257569D01*
X50637768Y-67297006D01*
X50664966Y-67361365D01*
X50653051Y-67430211D01*
X50605807Y-67481687D01*
X50541774Y-67499500D01*
X47190103Y-67499500D01*
X47123064Y-67479815D01*
X47077309Y-67427011D01*
X47067365Y-67357853D01*
X47096390Y-67294297D01*
X47115792Y-67276234D01*
X47175240Y-67231730D01*
X47207546Y-67207546D01*
X47293796Y-67092331D01*
X47344091Y-66957483D01*
X47350500Y-66897873D01*
X47350499Y-65762228D01*
X47370184Y-65695190D01*
X47386813Y-65674553D01*
X49315295Y-63746070D01*
X49355519Y-63719193D01*
X49379179Y-63709394D01*
X49510289Y-63621789D01*
X49621789Y-63510289D01*
X49709394Y-63379179D01*
X49769737Y-63233497D01*
X49800500Y-63078842D01*
X49800500Y-62921158D01*
X49800500Y-62921155D01*
X49800499Y-62921153D01*
X49788079Y-62858716D01*
X49769737Y-62766503D01*
X49764633Y-62754180D01*
X49709397Y-62620827D01*
X49709390Y-62620814D01*
X49621789Y-62489711D01*
X49621786Y-62489707D01*
X49510292Y-62378213D01*
X49510288Y-62378210D01*
X49379185Y-62290609D01*
X49379172Y-62290602D01*
X49233501Y-62230264D01*
X49233489Y-62230261D01*
X49078845Y-62199500D01*
X49078842Y-62199500D01*
X48921158Y-62199500D01*
X48921155Y-62199500D01*
X48766510Y-62230261D01*
X48766498Y-62230264D01*
X48620827Y-62290602D01*
X48620814Y-62290609D01*
X48489711Y-62378210D01*
X48489707Y-62378213D01*
X48378213Y-62489707D01*
X48378207Y-62489715D01*
X48290607Y-62620818D01*
X48290605Y-62620822D01*
X48280805Y-62644480D01*
X48253927Y-62684704D01*
X46325449Y-64613181D01*
X46264126Y-64646666D01*
X46237768Y-64649500D01*
X45102129Y-64649500D01*
X45102123Y-64649501D01*
X45042516Y-64655908D01*
X44907671Y-64706202D01*
X44907664Y-64706206D01*
X44792455Y-64792452D01*
X44792452Y-64792455D01*
X44706206Y-64907664D01*
X44706202Y-64907671D01*
X44655908Y-65042517D01*
X44649501Y-65102116D01*
X44649500Y-65102135D01*
X44649500Y-66897870D01*
X44649501Y-66897876D01*
X44655908Y-66957483D01*
X44706202Y-67092328D01*
X44706206Y-67092335D01*
X44792452Y-67207544D01*
X44792455Y-67207547D01*
X44884208Y-67276234D01*
X44926079Y-67332168D01*
X44931063Y-67401859D01*
X44897577Y-67463182D01*
X44836254Y-67496666D01*
X44809897Y-67499500D01*
X41622414Y-67499500D01*
X41555375Y-67479815D01*
X41509620Y-67427011D01*
X41499676Y-67357853D01*
X41524039Y-67300013D01*
X41666924Y-67113803D01*
X41791589Y-66897876D01*
X41798043Y-66886697D01*
X41898398Y-66644419D01*
X41966270Y-66391116D01*
X42000500Y-66131120D01*
X42000500Y-65868880D01*
X41966270Y-65608884D01*
X41898398Y-65355581D01*
X41889844Y-65334930D01*
X41798046Y-65113309D01*
X41798041Y-65113299D01*
X41666924Y-64886196D01*
X41528811Y-64706206D01*
X41507282Y-64678149D01*
X41507281Y-64678148D01*
X41507274Y-64678140D01*
X41321860Y-64492726D01*
X41321851Y-64492718D01*
X41113803Y-64333075D01*
X40886700Y-64201958D01*
X40886690Y-64201953D01*
X40644428Y-64101605D01*
X40644421Y-64101603D01*
X40644419Y-64101602D01*
X40391116Y-64033730D01*
X40324184Y-64024918D01*
X40131127Y-63999500D01*
X40131120Y-63999500D01*
X39868880Y-63999500D01*
X39868872Y-63999500D01*
X39637772Y-64029926D01*
X39608884Y-64033730D01*
X39407718Y-64087632D01*
X39355581Y-64101602D01*
X39355571Y-64101605D01*
X39113309Y-64201953D01*
X39113299Y-64201958D01*
X38886196Y-64333075D01*
X38699987Y-64475961D01*
X38634818Y-64501156D01*
X38566373Y-64487118D01*
X38516383Y-64438304D01*
X38500500Y-64377586D01*
X38500500Y-42622413D01*
X38520185Y-42555374D01*
X38572989Y-42509619D01*
X38642147Y-42499675D01*
X38699984Y-42524036D01*
X38805711Y-42605165D01*
X38886196Y-42666924D01*
X39113299Y-42798041D01*
X39113309Y-42798046D01*
X39355571Y-42898394D01*
X39355581Y-42898398D01*
X39608884Y-42966270D01*
X39868880Y-43000500D01*
X39868887Y-43000500D01*
X40131113Y-43000500D01*
X40131120Y-43000500D01*
X40391116Y-42966270D01*
X40644419Y-42898398D01*
X40886697Y-42798043D01*
X41113803Y-42666924D01*
X41321851Y-42507282D01*
X41321855Y-42507277D01*
X41321860Y-42507274D01*
X41507274Y-42321860D01*
X41507277Y-42321855D01*
X41507282Y-42321851D01*
X41666924Y-42113803D01*
X41798043Y-41886697D01*
X41898398Y-41644419D01*
X41966270Y-41391116D01*
X42000500Y-41131120D01*
X42000500Y-40868880D01*
X41966270Y-40608884D01*
X41898398Y-40355581D01*
X41889844Y-40334930D01*
X41798046Y-40113309D01*
X41798041Y-40113299D01*
X41666924Y-39886196D01*
X41524039Y-39699987D01*
X41498844Y-39634818D01*
X41512882Y-39566373D01*
X41561696Y-39516383D01*
X41622414Y-39500500D01*
X44809897Y-39500500D01*
X44876936Y-39520185D01*
G37*
%TD.AperFunction*%
%TA.AperFunction,Conductor*%
G36*
X82947445Y-41563720D02*
G01*
X82990897Y-41618435D01*
X83000000Y-41665069D01*
X83000000Y-65334930D01*
X82980315Y-65401969D01*
X82927511Y-65447724D01*
X82858353Y-65457668D01*
X82794797Y-65428643D01*
X82765515Y-65391225D01*
X82745397Y-65351742D01*
X82715051Y-65292184D01*
X82667966Y-65227376D01*
X82590109Y-65120213D01*
X82439786Y-64969890D01*
X82267820Y-64844951D01*
X82078414Y-64748444D01*
X82078413Y-64748443D01*
X82078412Y-64748443D01*
X81876243Y-64682754D01*
X81876241Y-64682753D01*
X81876240Y-64682753D01*
X81714957Y-64657208D01*
X81666287Y-64649500D01*
X81504500Y-64649500D01*
X81437461Y-64629815D01*
X81391706Y-64577011D01*
X81380500Y-64525500D01*
X81380500Y-63207180D01*
X81400185Y-63140141D01*
X81430187Y-63107914D01*
X81537546Y-63027546D01*
X81623796Y-62912331D01*
X81674091Y-62777483D01*
X81680500Y-62717873D01*
X81680499Y-61122128D01*
X81674091Y-61062517D01*
X81651280Y-61001358D01*
X81623797Y-60927671D01*
X81623793Y-60927664D01*
X81537547Y-60812455D01*
X81537544Y-60812452D01*
X81422335Y-60726206D01*
X81422328Y-60726202D01*
X81287482Y-60675908D01*
X81287483Y-60675908D01*
X81227883Y-60669501D01*
X81227881Y-60669500D01*
X81227873Y-60669500D01*
X81227864Y-60669500D01*
X80232129Y-60669500D01*
X80232123Y-60669501D01*
X80172518Y-60675908D01*
X80138331Y-60688659D01*
X80068639Y-60693642D01*
X80051669Y-60688659D01*
X80017480Y-60675908D01*
X80017482Y-60675908D01*
X79957883Y-60669501D01*
X79957881Y-60669500D01*
X79957873Y-60669500D01*
X79957864Y-60669500D01*
X78962129Y-60669500D01*
X78962123Y-60669501D01*
X78902518Y-60675908D01*
X78868331Y-60688659D01*
X78798639Y-60693642D01*
X78781669Y-60688659D01*
X78747480Y-60675908D01*
X78747482Y-60675908D01*
X78687883Y-60669501D01*
X78687881Y-60669500D01*
X78687873Y-60669500D01*
X78687864Y-60669500D01*
X77692129Y-60669500D01*
X77692123Y-60669501D01*
X77632518Y-60675908D01*
X77598331Y-60688659D01*
X77528639Y-60693642D01*
X77511669Y-60688659D01*
X77477480Y-60675908D01*
X77477482Y-60675908D01*
X77417883Y-60669501D01*
X77417881Y-60669500D01*
X77417873Y-60669500D01*
X77417864Y-60669500D01*
X76422129Y-60669500D01*
X76422123Y-60669501D01*
X76362518Y-60675908D01*
X76328331Y-60688659D01*
X76258639Y-60693642D01*
X76241669Y-60688659D01*
X76207480Y-60675908D01*
X76207482Y-60675908D01*
X76147883Y-60669501D01*
X76147881Y-60669500D01*
X76147873Y-60669500D01*
X76147864Y-60669500D01*
X75152129Y-60669500D01*
X75152123Y-60669501D01*
X75092518Y-60675908D01*
X75058331Y-60688659D01*
X74988639Y-60693642D01*
X74971669Y-60688659D01*
X74937480Y-60675908D01*
X74937482Y-60675908D01*
X74877883Y-60669501D01*
X74877881Y-60669500D01*
X74877873Y-60669500D01*
X74877864Y-60669500D01*
X73882129Y-60669500D01*
X73882123Y-60669501D01*
X73822518Y-60675908D01*
X73788331Y-60688659D01*
X73718639Y-60693642D01*
X73701669Y-60688659D01*
X73667480Y-60675908D01*
X73667482Y-60675908D01*
X73607883Y-60669501D01*
X73607881Y-60669500D01*
X73607873Y-60669500D01*
X73607864Y-60669500D01*
X72612129Y-60669500D01*
X72612123Y-60669501D01*
X72552518Y-60675908D01*
X72518331Y-60688659D01*
X72448639Y-60693642D01*
X72431669Y-60688659D01*
X72397480Y-60675908D01*
X72397482Y-60675908D01*
X72337883Y-60669501D01*
X72337881Y-60669500D01*
X72337873Y-60669500D01*
X72337864Y-60669500D01*
X71342129Y-60669500D01*
X71342123Y-60669501D01*
X71282518Y-60675908D01*
X71248331Y-60688659D01*
X71178639Y-60693642D01*
X71161669Y-60688659D01*
X71127480Y-60675908D01*
X71127482Y-60675908D01*
X71067883Y-60669501D01*
X71067881Y-60669500D01*
X71067873Y-60669500D01*
X71067864Y-60669500D01*
X70072129Y-60669500D01*
X70072123Y-60669501D01*
X70012518Y-60675908D01*
X69978331Y-60688659D01*
X69908639Y-60693642D01*
X69891669Y-60688659D01*
X69857480Y-60675908D01*
X69857482Y-60675908D01*
X69797883Y-60669501D01*
X69797881Y-60669500D01*
X69797873Y-60669500D01*
X69797864Y-60669500D01*
X68802129Y-60669500D01*
X68802123Y-60669501D01*
X68742518Y-60675908D01*
X68708331Y-60688659D01*
X68651178Y-60695703D01*
X68635986Y-60693999D01*
X68587483Y-60675909D01*
X68527873Y-60669500D01*
X68417570Y-60669500D01*
X68410678Y-60668727D01*
X68384595Y-60657782D01*
X68357461Y-60649815D01*
X68352806Y-60644443D01*
X68346251Y-60641693D01*
X68330224Y-60618382D01*
X68311706Y-60597011D01*
X68309935Y-60588871D01*
X68306667Y-60584118D01*
X68306294Y-60572133D01*
X68300500Y-60545500D01*
X68300500Y-60421155D01*
X68300499Y-60421153D01*
X68292847Y-60382685D01*
X68269737Y-60266503D01*
X68262372Y-60248721D01*
X68209397Y-60120827D01*
X68209390Y-60120814D01*
X68121789Y-59989711D01*
X68121786Y-59989707D01*
X68010292Y-59878213D01*
X68010288Y-59878210D01*
X67879185Y-59790609D01*
X67879172Y-59790602D01*
X67733501Y-59730264D01*
X67733489Y-59730261D01*
X67578845Y-59699500D01*
X67578842Y-59699500D01*
X67421158Y-59699500D01*
X67421155Y-59699500D01*
X67266510Y-59730261D01*
X67266498Y-59730264D01*
X67120827Y-59790602D01*
X67120814Y-59790609D01*
X66989711Y-59878210D01*
X66989707Y-59878213D01*
X66878213Y-59989707D01*
X66878210Y-59989711D01*
X66790609Y-60120814D01*
X66790602Y-60120827D01*
X66730264Y-60266498D01*
X66730261Y-60266508D01*
X66716920Y-60333579D01*
X66684535Y-60395490D01*
X66682984Y-60397068D01*
X66446871Y-60633181D01*
X66425955Y-60644601D01*
X66407510Y-60659698D01*
X66392869Y-60662667D01*
X66385548Y-60666666D01*
X66373380Y-60668685D01*
X66366302Y-60669500D01*
X66262128Y-60669501D01*
X66202517Y-60675909D01*
X66154190Y-60693933D01*
X66139190Y-60695661D01*
X66119039Y-60692183D01*
X66098639Y-60693642D01*
X66081669Y-60688659D01*
X66047480Y-60675908D01*
X66047482Y-60675908D01*
X65987883Y-60669501D01*
X65987881Y-60669500D01*
X65987873Y-60669500D01*
X65987865Y-60669500D01*
X65210808Y-60669500D01*
X65181367Y-60660855D01*
X65151381Y-60654332D01*
X65146365Y-60650577D01*
X65143769Y-60649815D01*
X65123127Y-60633181D01*
X65109011Y-60619065D01*
X65075526Y-60557742D01*
X65080510Y-60488050D01*
X65093590Y-60462493D01*
X65102066Y-60449808D01*
X65165084Y-60355495D01*
X65221658Y-60218913D01*
X65238682Y-60133331D01*
X65250500Y-60073920D01*
X65250500Y-59926080D01*
X65238754Y-59867033D01*
X65244981Y-59797441D01*
X65286059Y-59743574D01*
X65347546Y-59697546D01*
X65433796Y-59582331D01*
X65484091Y-59447483D01*
X65490500Y-59387873D01*
X65490499Y-58394499D01*
X65510183Y-58327461D01*
X65562987Y-58281706D01*
X65614499Y-58270500D01*
X65944070Y-58270500D01*
X66032633Y-58252883D01*
X66056825Y-58250500D01*
X66073920Y-58250500D01*
X66171462Y-58231096D01*
X66218913Y-58221658D01*
X66355495Y-58165084D01*
X66478416Y-58082951D01*
X66582951Y-57978416D01*
X66665084Y-57855495D01*
X66721658Y-57718913D01*
X66731096Y-57671462D01*
X66750500Y-57573920D01*
X66750500Y-57426079D01*
X66721659Y-57281092D01*
X66721658Y-57281091D01*
X66721658Y-57281087D01*
X66718530Y-57273535D01*
X66665087Y-57144511D01*
X66665080Y-57144498D01*
X66582951Y-57021584D01*
X66582948Y-57021580D01*
X66478419Y-56917051D01*
X66478415Y-56917048D01*
X66355501Y-56834919D01*
X66355488Y-56834912D01*
X66218917Y-56778343D01*
X66218907Y-56778340D01*
X66073920Y-56749500D01*
X66073918Y-56749500D01*
X65926082Y-56749500D01*
X65926080Y-56749500D01*
X65781092Y-56778340D01*
X65781091Y-56778341D01*
X65781090Y-56778341D01*
X65781087Y-56778342D01*
X65731994Y-56798677D01*
X65661951Y-56827689D01*
X65592481Y-56835157D01*
X65530002Y-56803881D01*
X65494350Y-56743792D01*
X65490499Y-56713133D01*
X65490499Y-55852128D01*
X65484091Y-55792517D01*
X65471340Y-55758332D01*
X65466357Y-55688642D01*
X65471338Y-55671672D01*
X65484091Y-55637483D01*
X65490500Y-55577873D01*
X65490499Y-54582128D01*
X65484091Y-54522517D01*
X65471340Y-54488332D01*
X65466357Y-54418642D01*
X65471338Y-54401672D01*
X65484091Y-54367483D01*
X65490500Y-54307873D01*
X65490499Y-53312128D01*
X65484091Y-53252517D01*
X65471340Y-53218332D01*
X65466357Y-53148642D01*
X65471338Y-53131672D01*
X65484091Y-53097483D01*
X65490500Y-53037873D01*
X65490499Y-52042128D01*
X65484091Y-51982517D01*
X65471340Y-51948332D01*
X65466357Y-51878642D01*
X65471338Y-51861672D01*
X65484091Y-51827483D01*
X65490500Y-51767873D01*
X65490499Y-50772128D01*
X65484091Y-50712517D01*
X65471340Y-50678332D01*
X65466357Y-50608642D01*
X65471338Y-50591672D01*
X65484091Y-50557483D01*
X65490500Y-50497873D01*
X65490499Y-49868856D01*
X65510183Y-49801818D01*
X65562987Y-49756063D01*
X65590307Y-49747240D01*
X65618387Y-49741654D01*
X65718913Y-49721658D01*
X65855495Y-49665084D01*
X65978416Y-49582951D01*
X66082951Y-49478416D01*
X66165084Y-49355495D01*
X66221658Y-49218913D01*
X66240239Y-49125501D01*
X66250500Y-49073920D01*
X66250500Y-48926079D01*
X66221659Y-48781092D01*
X66221658Y-48781091D01*
X66221658Y-48781087D01*
X66183820Y-48689738D01*
X66165087Y-48644511D01*
X66165080Y-48644498D01*
X66082951Y-48521584D01*
X66082948Y-48521580D01*
X65978419Y-48417051D01*
X65978415Y-48417048D01*
X65855501Y-48334919D01*
X65855488Y-48334912D01*
X65718917Y-48278343D01*
X65718907Y-48278340D01*
X65575730Y-48249860D01*
X65513819Y-48217475D01*
X65483740Y-48171576D01*
X65433797Y-48037671D01*
X65433793Y-48037664D01*
X65347547Y-47922455D01*
X65347544Y-47922452D01*
X65232335Y-47836206D01*
X65232328Y-47836202D01*
X65097482Y-47785908D01*
X65097483Y-47785908D01*
X65037883Y-47779501D01*
X65037881Y-47779500D01*
X65037873Y-47779500D01*
X65037864Y-47779500D01*
X63442129Y-47779500D01*
X63442123Y-47779501D01*
X63382516Y-47785908D01*
X63247671Y-47836202D01*
X63247664Y-47836206D01*
X63132455Y-47922452D01*
X63132452Y-47922455D01*
X63046206Y-48037664D01*
X63046202Y-48037671D01*
X62995908Y-48172517D01*
X62989501Y-48232116D01*
X62989500Y-48232135D01*
X62989500Y-49074927D01*
X62969815Y-49141966D01*
X62917011Y-49187721D01*
X62847853Y-49197665D01*
X62789030Y-49172540D01*
X62785189Y-49169530D01*
X62639606Y-49081522D01*
X62529268Y-49047140D01*
X62477196Y-49030914D01*
X62477195Y-49030913D01*
X62477189Y-49030912D01*
X62468547Y-49030127D01*
X62403565Y-49004453D01*
X62362780Y-48947722D01*
X62359141Y-48877947D01*
X62376673Y-48837746D01*
X62396465Y-48808127D01*
X62445501Y-48689744D01*
X62470500Y-48564069D01*
X62470500Y-47999964D01*
X62490185Y-47932925D01*
X62530350Y-47893847D01*
X62535870Y-47890510D01*
X62635185Y-47830472D01*
X62755472Y-47710185D01*
X62843478Y-47564606D01*
X62894086Y-47402196D01*
X62900500Y-47331616D01*
X62900500Y-46668384D01*
X62894086Y-46597804D01*
X62843478Y-46435394D01*
X62780535Y-46331274D01*
X62762700Y-46263723D01*
X62784217Y-46197249D01*
X62838258Y-46152961D01*
X62907663Y-46144920D01*
X62910835Y-46145508D01*
X62911117Y-46145564D01*
X62935930Y-46150500D01*
X62935931Y-46150500D01*
X64513175Y-46150500D01*
X64537367Y-46152883D01*
X64625929Y-46170500D01*
X64625931Y-46170500D01*
X66354071Y-46170500D01*
X66454613Y-46150500D01*
X66479744Y-46145501D01*
X66598127Y-46096465D01*
X66611533Y-46087506D01*
X66620492Y-46081522D01*
X66696234Y-46030913D01*
X66704669Y-46025277D01*
X67023128Y-45706816D01*
X67084450Y-45673333D01*
X67110808Y-45670499D01*
X67257871Y-45670499D01*
X67257872Y-45670499D01*
X67317483Y-45664091D01*
X67351667Y-45651340D01*
X67421358Y-45646357D01*
X67438327Y-45651338D01*
X67472517Y-45664091D01*
X67532127Y-45670500D01*
X68527872Y-45670499D01*
X68587483Y-45664091D01*
X68621667Y-45651340D01*
X68691358Y-45646357D01*
X68708327Y-45651338D01*
X68742517Y-45664091D01*
X68802127Y-45670500D01*
X69797872Y-45670499D01*
X69857483Y-45664091D01*
X69891667Y-45651340D01*
X69961358Y-45646357D01*
X69978327Y-45651338D01*
X70012517Y-45664091D01*
X70072127Y-45670500D01*
X71067872Y-45670499D01*
X71127483Y-45664091D01*
X71161667Y-45651340D01*
X71231358Y-45646357D01*
X71248327Y-45651338D01*
X71282517Y-45664091D01*
X71342127Y-45670500D01*
X72337872Y-45670499D01*
X72397483Y-45664091D01*
X72431667Y-45651340D01*
X72501358Y-45646357D01*
X72518327Y-45651338D01*
X72552517Y-45664091D01*
X72612127Y-45670500D01*
X73607872Y-45670499D01*
X73667483Y-45664091D01*
X73701667Y-45651340D01*
X73771358Y-45646357D01*
X73788327Y-45651338D01*
X73822517Y-45664091D01*
X73882127Y-45670500D01*
X74877872Y-45670499D01*
X74937483Y-45664091D01*
X74971667Y-45651340D01*
X75041358Y-45646357D01*
X75058327Y-45651338D01*
X75092517Y-45664091D01*
X75152127Y-45670500D01*
X76147872Y-45670499D01*
X76207483Y-45664091D01*
X76241667Y-45651340D01*
X76311358Y-45646357D01*
X76328327Y-45651338D01*
X76362517Y-45664091D01*
X76422127Y-45670500D01*
X77417872Y-45670499D01*
X77477483Y-45664091D01*
X77511667Y-45651340D01*
X77581358Y-45646357D01*
X77598327Y-45651338D01*
X77632517Y-45664091D01*
X77692127Y-45670500D01*
X78040192Y-45670499D01*
X78107230Y-45690183D01*
X78152985Y-45742987D01*
X78162929Y-45812146D01*
X78133904Y-45875701D01*
X78127872Y-45882180D01*
X76196873Y-47813181D01*
X76135550Y-47846666D01*
X76109192Y-47849500D01*
X72435929Y-47849500D01*
X72319265Y-47872707D01*
X72319260Y-47872708D01*
X72310256Y-47874499D01*
X72310255Y-47874499D01*
X72191874Y-47923534D01*
X72085326Y-47994726D01*
X72085325Y-47994727D01*
X67494725Y-52585328D01*
X67494724Y-52585329D01*
X67441436Y-52665083D01*
X67441435Y-52665083D01*
X67423536Y-52691870D01*
X67423534Y-52691874D01*
X67374499Y-52810255D01*
X67374497Y-52810261D01*
X67349500Y-52935928D01*
X67349500Y-54086160D01*
X67336385Y-54138520D01*
X67337247Y-54138878D01*
X67334916Y-54144504D01*
X67334916Y-54144505D01*
X67319419Y-54181919D01*
X67278342Y-54281086D01*
X67278340Y-54281092D01*
X67249500Y-54426079D01*
X67249500Y-54426082D01*
X67249500Y-54573918D01*
X67249500Y-54573920D01*
X67249499Y-54573920D01*
X67278340Y-54718907D01*
X67278343Y-54718917D01*
X67334912Y-54855488D01*
X67334919Y-54855501D01*
X67417048Y-54978415D01*
X67417051Y-54978419D01*
X67521580Y-55082948D01*
X67521584Y-55082951D01*
X67644498Y-55165080D01*
X67644511Y-55165087D01*
X67781082Y-55221656D01*
X67781087Y-55221658D01*
X67781091Y-55221658D01*
X67781092Y-55221659D01*
X67926079Y-55250500D01*
X67926082Y-55250500D01*
X68073920Y-55250500D01*
X68171462Y-55231096D01*
X68218913Y-55221658D01*
X68324547Y-55177902D01*
X68355488Y-55165087D01*
X68355488Y-55165086D01*
X68355495Y-55165084D01*
X68478416Y-55082951D01*
X68582951Y-54978416D01*
X68665084Y-54855495D01*
X68721658Y-54718913D01*
X68738488Y-54634306D01*
X68750500Y-54573920D01*
X68750500Y-54426079D01*
X68721659Y-54281092D01*
X68721658Y-54281091D01*
X68721658Y-54281087D01*
X68665084Y-54144505D01*
X68665083Y-54144504D01*
X68662753Y-54138878D01*
X68663614Y-54138520D01*
X68650500Y-54086160D01*
X68650500Y-53320808D01*
X68670185Y-53253769D01*
X68686819Y-53233127D01*
X72733127Y-49186819D01*
X72794450Y-49153334D01*
X72820808Y-49150500D01*
X76494071Y-49150500D01*
X76578615Y-49133682D01*
X76619744Y-49125501D01*
X76738127Y-49076465D01*
X76756679Y-49064069D01*
X76844669Y-49005277D01*
X79603973Y-46245971D01*
X79629828Y-46231853D01*
X79654285Y-46215418D01*
X79660148Y-46215297D01*
X79665294Y-46212488D01*
X79694683Y-46214589D01*
X79724140Y-46213986D01*
X79729135Y-46217053D01*
X79734985Y-46217472D01*
X79758572Y-46235129D01*
X79783680Y-46250547D01*
X79787731Y-46256957D01*
X79790919Y-46259344D01*
X79803367Y-46279841D01*
X79804881Y-46282984D01*
X79834916Y-46355495D01*
X79847614Y-46374499D01*
X79852449Y-46381736D01*
X79852453Y-46381743D01*
X79917046Y-46478414D01*
X79917047Y-46478415D01*
X79917048Y-46478416D01*
X80021584Y-46582952D01*
X80066548Y-46612995D01*
X80066550Y-46612997D01*
X80066551Y-46612997D01*
X80144505Y-46665084D01*
X80144506Y-46665084D01*
X80144507Y-46665085D01*
X80249702Y-46708658D01*
X80281087Y-46721658D01*
X80281091Y-46721658D01*
X80281092Y-46721659D01*
X80426079Y-46750500D01*
X80426082Y-46750500D01*
X80573920Y-46750500D01*
X80671462Y-46731096D01*
X80718913Y-46721658D01*
X80855495Y-46665084D01*
X80933449Y-46612997D01*
X80978416Y-46582952D01*
X81312951Y-46248416D01*
X81344968Y-46200499D01*
X81395084Y-46125495D01*
X81451658Y-45988913D01*
X81474178Y-45875701D01*
X81480500Y-45843920D01*
X81480500Y-45632320D01*
X81500185Y-45565281D01*
X81530192Y-45533051D01*
X81537546Y-45527546D01*
X81623796Y-45412331D01*
X81674091Y-45277483D01*
X81680500Y-45217873D01*
X81680499Y-43622128D01*
X81675255Y-43573342D01*
X81674091Y-43562516D01*
X81623797Y-43427671D01*
X81623793Y-43427664D01*
X81537547Y-43312455D01*
X81537544Y-43312452D01*
X81422335Y-43226206D01*
X81422328Y-43226202D01*
X81287482Y-43175908D01*
X81287483Y-43175908D01*
X81227883Y-43169501D01*
X81227881Y-43169500D01*
X81227873Y-43169500D01*
X81227865Y-43169500D01*
X80609807Y-43169500D01*
X80542768Y-43149815D01*
X80497013Y-43097011D01*
X80487069Y-43027853D01*
X80516094Y-42964297D01*
X80522126Y-42957819D01*
X80813021Y-42666924D01*
X81129289Y-42350655D01*
X81190610Y-42317172D01*
X81238754Y-42317685D01*
X81238945Y-42316484D01*
X81272888Y-42321860D01*
X81453713Y-42350500D01*
X81453714Y-42350500D01*
X81666286Y-42350500D01*
X81666287Y-42350500D01*
X81876243Y-42317246D01*
X82078412Y-42251557D01*
X82267816Y-42155051D01*
X82289789Y-42139086D01*
X82439786Y-42030109D01*
X82439788Y-42030106D01*
X82439792Y-42030104D01*
X82590104Y-41879792D01*
X82590106Y-41879788D01*
X82590109Y-41879786D01*
X82715048Y-41707820D01*
X82715047Y-41707820D01*
X82715051Y-41707816D01*
X82765515Y-41608773D01*
X82813489Y-41557978D01*
X82881310Y-41541183D01*
X82947445Y-41563720D01*
G37*
%TD.AperFunction*%
%TA.AperFunction,Conductor*%
G36*
X48944959Y-48311022D02*
G01*
X48989729Y-48364664D01*
X49000000Y-48414079D01*
X49000000Y-48500000D01*
X51376000Y-48500000D01*
X51443039Y-48519685D01*
X51488794Y-48572489D01*
X51500000Y-48624000D01*
X51500000Y-51387269D01*
X51480315Y-51454308D01*
X51463681Y-51474950D01*
X49187181Y-53751450D01*
X49125858Y-53784935D01*
X49056166Y-53779951D01*
X49000233Y-53738079D01*
X48975816Y-53672615D01*
X48975500Y-53663769D01*
X48975500Y-53393386D01*
X48969086Y-53322807D01*
X48969086Y-53322804D01*
X48918478Y-53160394D01*
X48830472Y-53014815D01*
X48830470Y-53014813D01*
X48830469Y-53014811D01*
X48710188Y-52894530D01*
X48564606Y-52806522D01*
X48402196Y-52755914D01*
X48402194Y-52755913D01*
X48402192Y-52755913D01*
X48352778Y-52751423D01*
X48331616Y-52749500D01*
X48331613Y-52749500D01*
X48000097Y-52749500D01*
X47933058Y-52729815D01*
X47912416Y-52713181D01*
X47587590Y-52388355D01*
X47587588Y-52388352D01*
X47468717Y-52269481D01*
X47468712Y-52269477D01*
X47406903Y-52233792D01*
X47358687Y-52183225D01*
X47345464Y-52114618D01*
X47371432Y-52049753D01*
X47381222Y-52038724D01*
X48005271Y-51414675D01*
X48005276Y-51414670D01*
X48076465Y-51308127D01*
X48125501Y-51189744D01*
X48126291Y-51185772D01*
X48126293Y-51185772D01*
X48126293Y-51185760D01*
X48150500Y-51064069D01*
X48150500Y-50320808D01*
X48170185Y-50253769D01*
X48186819Y-50233127D01*
X48505273Y-49914673D01*
X48505277Y-49914669D01*
X48576465Y-49808127D01*
X48600335Y-49750500D01*
X48625501Y-49689744D01*
X48646271Y-49585331D01*
X48650500Y-49564071D01*
X48650500Y-48476685D01*
X48653374Y-48466894D01*
X48652110Y-48456769D01*
X48663052Y-48433935D01*
X48670185Y-48409646D01*
X48678698Y-48401288D01*
X48682306Y-48393761D01*
X48709397Y-48371150D01*
X48810905Y-48308539D01*
X48878295Y-48290100D01*
X48944959Y-48311022D01*
G37*
%TD.AperFunction*%
%TA.AperFunction,Conductor*%
G36*
X59142082Y-45219298D02*
G01*
X59186430Y-45247799D01*
X59705057Y-45766424D01*
X59736452Y-45819510D01*
X59767503Y-45926390D01*
X59767505Y-45926393D01*
X59767506Y-45926395D01*
X59780358Y-45948127D01*
X59797036Y-45976327D01*
X59814219Y-46044051D01*
X59792059Y-46110313D01*
X59754456Y-46145564D01*
X59714811Y-46169530D01*
X59594530Y-46289811D01*
X59506522Y-46435393D01*
X59455913Y-46597807D01*
X59449500Y-46668386D01*
X59449500Y-46787769D01*
X59429815Y-46854808D01*
X59413181Y-46875450D01*
X59092052Y-47196578D01*
X59092049Y-47196581D01*
X59052700Y-47255471D01*
X59052701Y-47255472D01*
X59009914Y-47319508D01*
X58953343Y-47456082D01*
X58953340Y-47456092D01*
X58924500Y-47601079D01*
X58924500Y-47601082D01*
X58924500Y-47748918D01*
X58924500Y-47748920D01*
X58924499Y-47748920D01*
X58953340Y-47893907D01*
X58953343Y-47893917D01*
X59009913Y-48030490D01*
X59009915Y-48030493D01*
X59009916Y-48030495D01*
X59012056Y-48033697D01*
X59092048Y-48153416D01*
X59196584Y-48257952D01*
X59256474Y-48297968D01*
X59319505Y-48340084D01*
X59319507Y-48340085D01*
X59319511Y-48340087D01*
X59449093Y-48393761D01*
X59456087Y-48396658D01*
X59456091Y-48396658D01*
X59456092Y-48396659D01*
X59601079Y-48425500D01*
X59601082Y-48425500D01*
X59748920Y-48425500D01*
X59846462Y-48406096D01*
X59893913Y-48396658D01*
X60030495Y-48340084D01*
X60093526Y-48297968D01*
X60153416Y-48257952D01*
X60399549Y-48011819D01*
X60460872Y-47978334D01*
X60487230Y-47975500D01*
X60606613Y-47975500D01*
X60606616Y-47975500D01*
X60677196Y-47969086D01*
X60839606Y-47918478D01*
X60981351Y-47832789D01*
X61048904Y-47814953D01*
X61115378Y-47836470D01*
X61159666Y-47890510D01*
X61169500Y-47938906D01*
X61169500Y-48564069D01*
X61169500Y-48564071D01*
X61169499Y-48564071D01*
X61194497Y-48689738D01*
X61194499Y-48689744D01*
X61243533Y-48808124D01*
X61243538Y-48808133D01*
X61314723Y-48914668D01*
X61314726Y-48914672D01*
X61405327Y-49005273D01*
X61405332Y-49005277D01*
X61443791Y-49030974D01*
X61457302Y-49047140D01*
X61474168Y-49059766D01*
X61479257Y-49073411D01*
X61488597Y-49084586D01*
X61491223Y-49105490D01*
X61498586Y-49125230D01*
X61495490Y-49139459D01*
X61497306Y-49153910D01*
X61488213Y-49172915D01*
X61483735Y-49193503D01*
X61468852Y-49213383D01*
X61467152Y-49216938D01*
X61462584Y-49221757D01*
X61412682Y-49271660D01*
X61351359Y-49305146D01*
X61281668Y-49300162D01*
X61237319Y-49271661D01*
X61135188Y-49169530D01*
X61131082Y-49167048D01*
X60989606Y-49081522D01*
X60827196Y-49030914D01*
X60827194Y-49030913D01*
X60827192Y-49030913D01*
X60777778Y-49026423D01*
X60756616Y-49024500D01*
X60243384Y-49024500D01*
X60224145Y-49026248D01*
X60172807Y-49030913D01*
X60010393Y-49081522D01*
X59864811Y-49169530D01*
X59744531Y-49289810D01*
X59739906Y-49295715D01*
X59738882Y-49294912D01*
X59693096Y-49336840D01*
X59638511Y-49349500D01*
X59435929Y-49349500D01*
X59310261Y-49374497D01*
X59310251Y-49374500D01*
X59261956Y-49394504D01*
X59261957Y-49394505D01*
X59191877Y-49423532D01*
X59191863Y-49423540D01*
X59085332Y-49494721D01*
X59085325Y-49494727D01*
X57994726Y-50585326D01*
X57923534Y-50691874D01*
X57874499Y-50810255D01*
X57874497Y-50810261D01*
X57849500Y-50935928D01*
X57849500Y-51586160D01*
X57836385Y-51638520D01*
X57837247Y-51638878D01*
X57778342Y-51781086D01*
X57778340Y-51781092D01*
X57749500Y-51926079D01*
X57749500Y-51926082D01*
X57749500Y-52073918D01*
X57749500Y-52073920D01*
X57749499Y-52073920D01*
X57778340Y-52218907D01*
X57778343Y-52218917D01*
X57834912Y-52355488D01*
X57834919Y-52355501D01*
X57917048Y-52478415D01*
X57917051Y-52478419D01*
X58021580Y-52582948D01*
X58021584Y-52582951D01*
X58144498Y-52665080D01*
X58144511Y-52665087D01*
X58281082Y-52721656D01*
X58281087Y-52721658D01*
X58281091Y-52721658D01*
X58281092Y-52721659D01*
X58426079Y-52750500D01*
X58426082Y-52750500D01*
X58573920Y-52750500D01*
X58681978Y-52729005D01*
X58718913Y-52721658D01*
X58855495Y-52665084D01*
X58978416Y-52582951D01*
X59082951Y-52478416D01*
X59165084Y-52355495D01*
X59221658Y-52218913D01*
X59239895Y-52127233D01*
X59250500Y-52073920D01*
X59250500Y-51926079D01*
X59221659Y-51781092D01*
X59221658Y-51781091D01*
X59221658Y-51781087D01*
X59165084Y-51644505D01*
X59165083Y-51644504D01*
X59162753Y-51638878D01*
X59163614Y-51638520D01*
X59150500Y-51586160D01*
X59150500Y-51320807D01*
X59170185Y-51253768D01*
X59186815Y-51233130D01*
X59639464Y-50780480D01*
X59700785Y-50746997D01*
X59770476Y-50751981D01*
X59814824Y-50780482D01*
X59864811Y-50830469D01*
X59864813Y-50830470D01*
X59864815Y-50830472D01*
X60010394Y-50918478D01*
X60172804Y-50969086D01*
X60243384Y-50975500D01*
X60243387Y-50975500D01*
X60756613Y-50975500D01*
X60756616Y-50975500D01*
X60827196Y-50969086D01*
X60989606Y-50918478D01*
X60989613Y-50918473D01*
X60996445Y-50915400D01*
X60997551Y-50917859D01*
X61052802Y-50903260D01*
X61119280Y-50924765D01*
X61163578Y-50978796D01*
X61171633Y-51048200D01*
X61152525Y-51096104D01*
X61088534Y-51191874D01*
X61039499Y-51310255D01*
X61039497Y-51310263D01*
X61014501Y-51435926D01*
X61014501Y-51564073D01*
X61039497Y-51689736D01*
X61039499Y-51689744D01*
X61077334Y-51781087D01*
X61088535Y-51808127D01*
X61153873Y-51905913D01*
X61159726Y-51914673D01*
X61250325Y-52005272D01*
X61250328Y-52005274D01*
X61250331Y-52005277D01*
X61291790Y-52032979D01*
X61305301Y-52049144D01*
X61322165Y-52061769D01*
X61327254Y-52075413D01*
X61336594Y-52086589D01*
X61339220Y-52107493D01*
X61346583Y-52127233D01*
X61343487Y-52141463D01*
X61345303Y-52155914D01*
X61336210Y-52174919D01*
X61331732Y-52195506D01*
X61316848Y-52215387D01*
X61315148Y-52218942D01*
X61310581Y-52223760D01*
X61262682Y-52271660D01*
X61201359Y-52305146D01*
X61131668Y-52300162D01*
X61087319Y-52271661D01*
X60985188Y-52169530D01*
X60839606Y-52081522D01*
X60755381Y-52055277D01*
X60677196Y-52030914D01*
X60677194Y-52030913D01*
X60677192Y-52030913D01*
X60627778Y-52026423D01*
X60606616Y-52024500D01*
X60093384Y-52024500D01*
X60074145Y-52026248D01*
X60022807Y-52030913D01*
X59860393Y-52081522D01*
X59714811Y-52169530D01*
X59594530Y-52289811D01*
X59506522Y-52435393D01*
X59455913Y-52597807D01*
X59452481Y-52635581D01*
X59450390Y-52658596D01*
X59449500Y-52668386D01*
X59449500Y-53025233D01*
X59440061Y-53072685D01*
X59424500Y-53110251D01*
X59424497Y-53110261D01*
X59399500Y-53235928D01*
X59399500Y-53427830D01*
X59379815Y-53494869D01*
X59327011Y-53540624D01*
X59257853Y-53550568D01*
X59251669Y-53549509D01*
X59251572Y-53549500D01*
X59251569Y-53549500D01*
X55861882Y-53549500D01*
X55794843Y-53529815D01*
X55749088Y-53477011D01*
X55739144Y-53407853D01*
X55742806Y-53390905D01*
X55777642Y-53270997D01*
X55777643Y-53270991D01*
X55777765Y-53269446D01*
X55780500Y-53234690D01*
X55780500Y-52765310D01*
X55777643Y-52729007D01*
X55755423Y-52652528D01*
X55750500Y-52617934D01*
X55750500Y-52605329D01*
X55770185Y-52538290D01*
X55822989Y-52492535D01*
X55844562Y-52484997D01*
X55978693Y-52451641D01*
X56149296Y-52367030D01*
X56297722Y-52247722D01*
X56417030Y-52099296D01*
X56501641Y-51928693D01*
X56547600Y-51743889D01*
X56550500Y-51701123D01*
X56550499Y-51562229D01*
X56570183Y-51495190D01*
X56586813Y-51474553D01*
X57832952Y-50228416D01*
X57901716Y-50125501D01*
X57915084Y-50105495D01*
X57971658Y-49968913D01*
X58000500Y-49823918D01*
X58000500Y-49676082D01*
X58000500Y-49676079D01*
X57971659Y-49531092D01*
X57971658Y-49531091D01*
X57971658Y-49531087D01*
X57971656Y-49531082D01*
X57915085Y-49394506D01*
X57915084Y-49394505D01*
X57901717Y-49374500D01*
X57858791Y-49310256D01*
X57832952Y-49271584D01*
X57728416Y-49167048D01*
X57728415Y-49167047D01*
X57728414Y-49167046D01*
X57654729Y-49117812D01*
X57654729Y-49117813D01*
X57605491Y-49084913D01*
X57468917Y-49028343D01*
X57468907Y-49028340D01*
X57323920Y-48999500D01*
X57323918Y-48999500D01*
X57176082Y-48999500D01*
X57176080Y-48999500D01*
X57031092Y-49028340D01*
X57031086Y-49028342D01*
X56894508Y-49084914D01*
X56894496Y-49084921D01*
X56845270Y-49117811D01*
X56845271Y-49117812D01*
X56771581Y-49167049D01*
X56314643Y-49623987D01*
X56253320Y-49657472D01*
X56183628Y-49652488D01*
X56155145Y-49636292D01*
X56154956Y-49636588D01*
X56149292Y-49632967D01*
X55978697Y-49548360D01*
X55793892Y-49502400D01*
X55772506Y-49500950D01*
X55751123Y-49499500D01*
X55751120Y-49499500D01*
X54848877Y-49499500D01*
X54848874Y-49499501D01*
X54806113Y-49502399D01*
X54806112Y-49502399D01*
X54653926Y-49540247D01*
X54584118Y-49537323D01*
X54526971Y-49497123D01*
X54500631Y-49432408D01*
X54500000Y-49419912D01*
X54500000Y-48624000D01*
X54519685Y-48556961D01*
X54572489Y-48511206D01*
X54624000Y-48500000D01*
X57000000Y-48500000D01*
X57000000Y-45514128D01*
X57019685Y-45447089D01*
X57072489Y-45401334D01*
X57141647Y-45391390D01*
X57189094Y-45408588D01*
X57235666Y-45437314D01*
X57402203Y-45492499D01*
X57504991Y-45503000D01*
X58495008Y-45502999D01*
X58495016Y-45502998D01*
X58495019Y-45502998D01*
X58551302Y-45497248D01*
X58597797Y-45492499D01*
X58764334Y-45437314D01*
X58913656Y-45345212D01*
X59011071Y-45247796D01*
X59072390Y-45214314D01*
X59142082Y-45219298D01*
G37*
%TD.AperFunction*%
%TA.AperFunction,Conductor*%
G36*
X60153338Y-43577292D02*
G01*
X60173980Y-43593926D01*
X62397166Y-45817112D01*
X62430651Y-45878435D01*
X62425667Y-45948127D01*
X62383795Y-46004060D01*
X62318331Y-46028477D01*
X62298265Y-46028284D01*
X62256616Y-46024500D01*
X61743384Y-46024500D01*
X61724145Y-46026248D01*
X61672807Y-46030913D01*
X61510393Y-46081522D01*
X61485675Y-46096465D01*
X61364815Y-46169528D01*
X61364813Y-46169529D01*
X61358396Y-46173409D01*
X61357003Y-46171105D01*
X61303846Y-46192241D01*
X61235270Y-46178856D01*
X61184817Y-46130521D01*
X61168506Y-46062582D01*
X61185618Y-46005656D01*
X61232494Y-45926395D01*
X61277643Y-45770993D01*
X61280500Y-45734690D01*
X61280500Y-45265310D01*
X61277643Y-45229007D01*
X61277471Y-45228416D01*
X61236056Y-45085867D01*
X61232494Y-45073605D01*
X61150117Y-44934313D01*
X61150115Y-44934311D01*
X61150112Y-44934307D01*
X61035692Y-44819887D01*
X61035684Y-44819881D01*
X60896393Y-44737505D01*
X60896390Y-44737503D01*
X60789510Y-44706452D01*
X60736424Y-44675057D01*
X60224096Y-44162727D01*
X60224075Y-44162707D01*
X59830657Y-43769288D01*
X59797172Y-43707965D01*
X59802156Y-43638273D01*
X59844028Y-43582340D01*
X59909492Y-43557923D01*
X59918338Y-43557607D01*
X60086299Y-43557607D01*
X60153338Y-43577292D01*
G37*
%TD.AperFunction*%
%TD*%
M02*
